<svg xmlns="http://www.w3.org/2000/svg" viewBox="33.3 31.31 210.84 210.82"><!-- Source: https://football-logos.cc --><defs data-source="https://football-logos.cc"><linearGradient id="a" x1="0" x2="1" y1="0" y2="0" gradientTransform="scale(45.78672)rotate(45 2.863 35.45)" gradientUnits="userSpaceOnUse" spreadMethod="pad"><stop offset="0" style="stop-opacity:1;stop-color:#ccd7dd"></stop><stop offset=".519" style="stop-opacity:1;stop-color:#e9e9ea"></stop><stop offset=".824" style="stop-opacity:1;stop-color:#4d555b"></stop><stop offset="1" style="stop-opacity:1;stop-color:#000"></stop></linearGradient><linearGradient id="b" x1="0" x2="1" y1="0" y2="0" gradientTransform="matrix(31.3415 31.3415 -31.3415 31.3415 1186.64 383.218)" gradientUnits="userSpaceOnUse" spreadMethod="pad"><stop offset="0" style="stop-opacity:1;stop-color:#fff"></stop><stop offset=".505" style="stop-opacity:1;stop-color:#fff"></stop><stop offset="1" style="stop-opacity:1;stop-color:#adb7bd"></stop></linearGradient></defs><g style="clip-rule:evenodd;fill-rule:evenodd;image-rendering:optimizeQuality;shape-rendering:geometricPrecision;text-rendering:geometricPrecision" data-source="https://football-logos.cc"><path d="m1192.827 375.994-13.412 13.413v18.96l13.412 13.41h18.965l13.412-13.41v-18.96l-13.412-13.413z" style="fill:url(#a);stroke:none" transform="matrix(4.60467 0 0 4.60467 -5397.509 -1700.02)"></path><path d="m1193.132 376.728-12.983 12.982v18.356l12.983 12.985h18.358l12.98-12.985V389.71l-12.98-12.982z" style="fill:url(#b);stroke:none" transform="matrix(4.60467 0 0 4.60467 -5397.509 -1700.02)"></path><path d="m1219.082 391.758 5.113-2.104.229.063-.115.222-5.11 2.102zM1219.16 405.686l5.1 2.126.119.208-.238.073-5.095-2.123zM1209.407 415.624l2.105 5.102-.064.233-.219-.12-2.106-5.098zM1195.508 415.719l-2.118 5.102-.216.116-.068-.245 2.123-5.088zM1202.795 384.069a.334.334 0 0 0-.411-.227.34.34 0 0 0-.223.42.33.33 0 1 0 .634-.193m.279.94c-.01.01.265-.174.256-.369-.01-.134-.183-.169-.229-.196l.031-.058.017-.069c.046.013.212.089.297-.004.12-.155.018-.473.02-.46.01.005-.09-.313-.28-.361-.121-.034-.215.116-.251.159l-.05-.043-.053-.034c.026-.035.15-.18.082-.288-.106-.162-.447-.166-.434-.166.01 0-.321-.006-.435.153-.07.109.07.267.091.308l-.052.033-.044.037c-.036-.04-.13-.19-.256-.165-.189.053-.278.359-.267.354 0-.013-.117.293.01.446.072.093.251.027.3.017l.019.06.018.059c-.05.018-.236.058-.241.182-.013.199.261.395.242.384 0-.01.256.196.435.127.125-.044.103-.233.108-.28l.062.005.056-.005c0 .047-.012.25.105.292.189.078.458-.121.445-.117m.202.541c-.13-.058-.372.123-.573.084-.177-.047-.25-.272-.25-.28.01.02-.059.258-.205.28-.212.036-.464-.16-.598-.115-.108.038-.207.168-.247.223l-.134-.098c.039-.057.14-.18.15-.294.015-.146-.254-.316-.279-.522-.027-.17.168-.288.214-.311-.046.02-.288-.004-.342-.124-.101-.188 0-.483-.086-.604-.068-.086-.22-.139-.287-.156 0-.005.05-.161.05-.161.07.02.218.075.325.045.142-.026.228-.321.411-.398.168-.08.337.06.371.091-.017-.018-.101-.288.01-.393.143-.148.462-.137.548-.256.062-.093.06-.258.066-.328l.166.004c0 .063-.01.226.052.324.072.12.377.12.507.267.125.139.044.35.026.386.016-.02.248-.18.38-.101.19.09.279.4.42.438.104.031.261-.013.324-.035l.05.156a.56.56 0 0 0-.292.149c-.096.104.01.39-.094.566-.091.16-.324.155-.37.153.027.008.225.155.207.302-.03.206-.291.394-.284.535 0 .115.098.25.137.308 0 .003-.137.095-.137.095-.04-.054-.13-.193-.233-.23m14.214 13.61a.34.34 0 0 0-.332-.346.34.34 0 0 0-.342.344c-.01.177.145.33.342.33a.34.34 0 0 0 .332-.328m-.022 1.006c-.014 0 .313-.097.366-.287.031-.13-.129-.23-.164-.262l.047-.047.035-.057c.042.022.186.148.293.078.17-.108.167-.452.17-.43 0 .007 0-.337-.164-.442-.106-.075-.25.048-.294.074l-.035-.056-.043-.05c.04-.033.2-.123.17-.247-.051-.199-.386-.308-.372-.308.013.005-.305-.098-.468.023-.098.07-.014.281-.01.328l-.06.012-.052.026c-.022-.053-.072-.233-.198-.245-.196-.006-.381.263-.372.252.01-.004-.198.261-.129.445.044.114.237.105.281.108v.126c-.049.003-.242-.014-.291.112-.07.18.134.449.123.435-.012-.005.185.27.384.264.126-.003.167-.195.182-.238l.061.02.057.01c-.013.057-.09.248.013.325.16.128.478.026.469.031m.031.573c-.113-.09-.405.009-.582-.09-.159-.101-.164-.33-.155-.355 0 .034-.139.238-.293.215-.214-.03-.395-.298-.538-.296-.122 0-.257.095-.313.137l-.1-.137c.055-.043.192-.133.238-.245.053-.127-.148-.385-.117-.588.03-.173.26-.229.31-.234-.044.005-.272-.094-.293-.235-.044-.199.153-.462.104-.61-.036-.105-.176-.203-.227-.245l.1-.135c.053.043.183.14.297.15.149.013.32-.244.524-.263.186-.013.308.168.33.201-.01-.02-.01-.303.13-.377.188-.103.495.009.612-.077.094-.073.142-.226.168-.298l.155.054c-.017.06-.072.213-.05.33.038.146.333.233.415.415.074.17-.062.356-.096.393.018-.02.292-.102.406.008.151.154.141.478.262.555.096.075.264.072.333.075v.164c-.073 0-.23 0-.333.059-.129.074-.113.385-.266.513-.139.131-.359.061-.408.034.022.022.17.229.103.365-.094.196-.4.29-.444.429-.03.114.022.276.044.334l-.164.052c-.022-.062-.072-.216-.152-.298M1202.494 413.927a.34.34 0 0 0-.202-.43.35.35 0 0 0-.442.216.337.337 0 0 0 .221.425c.167.067.364-.038.423-.211m-.336.954c-.014 0 .327.005.434-.164.076-.11-.048-.245-.073-.292l.062-.036.052-.042c.034.04.13.2.253.165.19-.053.299-.375.295-.354 0 .004.108-.32-.018-.472-.075-.104-.254-.026-.3-.018l-.019-.066-.025-.06c.047-.02.23-.058.236-.19.018-.195-.266-.4-.254-.4.012.015-.258-.192-.452-.13-.118.055-.103.262-.107.312l-.064-.005h-.06c0-.055.01-.238-.109-.288-.185-.068-.441.14-.432.136.01-.01-.27.167-.263.368.012.124.188.173.24.193l-.026.065-.018.065c-.052-.022-.225-.1-.31.008-.126.146-.016.47-.018.455-.01-.013.083.314.276.369.124.033.223-.14.254-.173l.049.033.05.038c-.027.042-.162.203-.09.312.113.174.448.167.437.171m-.156.55c-.065-.12-.375-.114-.51-.266-.13-.14-.057-.369-.045-.38-.014.018-.207.18-.343.108-.196-.097-.287-.406-.427-.452-.108-.031-.263.016-.328.043l-.055-.164c.062-.022.224-.072.3-.157.09-.103-.019-.412.073-.598.083-.155.316-.143.36-.13-.037-.018-.223-.173-.205-.306.031-.216.297-.4.297-.545-.01-.118-.102-.25-.14-.309l.135-.103c.046.063.134.198.238.236.14.059.377-.126.58-.083.181.033.237.25.252.29-.01-.02.085-.288.24-.315.213-.04.469.167.608.114.108-.036.205-.17.248-.229l.134.104c-.035.058-.134.178-.149.297-.016.143.244.32.264.527.01.187-.175.309-.216.338.025-.013.313 0 .38.141.1.187-.014.499.072.617.076.089.233.136.3.16l-.055.158c-.066-.023-.218-.082-.33-.052-.144.034-.23.328-.415.411-.174.077-.363-.064-.4-.092.019.013.096.26-.012.376-.153.152-.473.144-.557.262-.065.098-.064.27-.068.34h-.167c0-.072 0-.239-.06-.34m-14.527-16.26c.19 0 .352-.15.354-.335a.34.34 0 0 0-.348-.34c-.185-.007-.33.142-.333.336 0 .18.147.339.327.339m.145.65c.103-.075.03-.273.013-.32l.064-.018.06-.022c.016.044.055.238.18.242.2.018.399-.26.386-.251-.01.009.203-.253.13-.44-.04-.122-.237-.104-.29-.108l.01-.068v-.065c.045-.004.235.018.287-.101.073-.187-.13-.455-.126-.444.01.01-.167-.266-.363-.262-.132.012-.176.191-.2.238l-.058-.022-.057-.02c.01-.045.098-.24-.01-.323-.158-.13-.48-.028-.468-.029.014-.003-.319.11-.377.292-.031.126.13.233.169.26l-.042.05-.04.055c-.043-.024-.185-.15-.29-.087-.17.108-.172.454-.168.44 0-.02-.01.333.157.443.111.065.25-.054.294-.085l.036.066.044.051c-.036.029-.201.128-.17.254.052.189.375.296.365.294-.013-.009.304.106.467-.02m-.67.888-.16-.056c.026-.062.076-.222.05-.331-.043-.148-.344-.241-.44-.434-.067-.142.092-.346.109-.358-.043.014-.264.082-.403-.042-.151-.14-.136-.456-.263-.528-.095-.059-.254-.059-.325-.061v-.165c.072 0 .228 0 .331-.062.119-.075.115-.402.27-.554.113-.11.382-.022.406-.012-.03-.031-.164-.217-.09-.381.087-.192.386-.268.424-.413.022-.113-.03-.267-.052-.33l.164-.054c.024.07.073.234.16.296.12.09.427-.015.616.088.135.082.13.367.12.383.023-.038.15-.212.334-.193.206.022.372.281.52.27.113-.006.243-.106.301-.144l.1.141c-.054.036-.193.135-.236.24-.047.143.142.403.105.613-.03.131-.26.226-.306.226.048.007.275.065.302.24.033.205-.175.456-.123.59.042.103.177.206.23.245l-.098.136c-.064-.043-.189-.153-.306-.153-.147-.005-.336.264-.55.287-.155.023-.282-.18-.29-.206.01.018.01.256-.162.344-.18.1-.465-.003-.575.087-.09.067-.142.231-.167.291" style="fill:#5f6a70;fill-opacity:1;fill-rule:nonzero;stroke:none" transform="matrix(4.60467 0 0 4.60467 -5397.509 -1700.02)"></path><path d="M1215.207 386.192c3.126 3.264 5.054 7.678 5.054 12.555 0 10.027-8.127 18.147-18.151 18.147-4.877 0-9.3-1.92-12.558-5.046 3.303 3.438 7.951 5.592 13.1 5.592 10.02 0 18.146-8.128 18.146-18.146 0-5.159-2.146-9.798-5.591-13.102" style="fill:#5f6a70;fill-opacity:1;fill-rule:nonzero;stroke:none" transform="matrix(4.60467 0 0 4.60467 -5397.509 -1700.02)"></path><path d="M1202.652 411.284c6.623 0 11.989-5.371 11.989-11.99a11.97 11.97 0 0 0-3.784-8.754 11.96 11.96 0 0 1 3.245 8.207c0 6.625-5.37 11.996-11.992 11.996-3.177 0-6.06-1.237-8.203-3.248a11.97 11.97 0 0 0 8.744 3.79" style="fill:#fff;fill-opacity:1;fill-rule:nonzero;stroke:none" transform="matrix(4.60467 0 0 4.60467 -5397.509 -1700.02)"></path><path d="M1202.652 381.142c4.87 0 9.296 1.921 12.555 5.05a18.1 18.1 0 0 0-13.097-5.596c-10.024 0-18.15 8.134-18.15 18.152a18.08 18.08 0 0 0 5.592 13.1 18.1 18.1 0 0 1-5.05-12.555c0-10.03 8.123-18.151 18.15-18.151" style="fill:#fff;fill-opacity:1;fill-rule:nonzero;stroke:none" transform="matrix(4.60467 0 0 4.60467 -5397.509 -1700.02)"></path><path d="M1202.652 387.3a11.96 11.96 0 0 1 8.205 3.24 11.99 11.99 0 0 0-8.747-3.786c-6.625 0-11.997 5.372-11.997 11.993a11.94 11.94 0 0 0 3.794 8.748 11.93 11.93 0 0 1-3.251-8.202c0-6.632 5.369-11.994 11.995-11.994" style="fill:#5f6a70;fill-opacity:1;fill-rule:nonzero;stroke:none" transform="matrix(4.60467 0 0 4.60467 -5397.509 -1700.02)"></path><path d="m1199.227 391.837.018.012.016-.021s.094-.167.12-.307v-.043a.23.23 0 0 0-.137-.219l-.408-.204-.01-.001-.035-.03-.01.056v.045c0 .07.013.25.165.353l.016.01c.075.04.159.051.215.051h.042c0 .016-.014.051-.031.112a.2.2 0 0 0-.02.078c0 .075.048.103.053.108m1.231-.316v-.018l.023-.037h-.064l-.449-.03h-.018a.26.26 0 0 0-.233.164.9.9 0 0 0-.049.308v.035h.037c.022 0 .1-.025.117-.14a1 1 0 0 1 .027-.111c.04.027.133.08.239.08h.026c.213-.011.324-.21.337-.238l.01-.013m-1.327 1.91a.32.32 0 0 0 .309-.241c.045-.143.029-.335.186-.447.142-.113.288-.123.39-.248l.034-.047-.068.011s-.04.007-.134.02q-.053.006-.14.008a.5.5 0 0 1-.203-.034c-.057-.02-.093-.056-.096-.117 0-.022 0-.031.01-.05 0-.024.023-.037.05-.058q.051-.005.107-.004a.12.12 0 0 0 .12-.117c0-.01-.01-.029-.01-.029l-.01-.027-.029.007s-.02.012-.047.02c-.034.009-.077.02-.127.02a.3.3 0 0 1-.092-.012.4.4 0 0 1-.158-.084.4.4 0 0 1-.046-.052l-.023-.035-.02.035s-.023.034-.023.071c0 .026 0 .049.025.076a.4.4 0 0 0 .072.058c.03.02.053.047.053.07 0 .003 0 .022-.01.024-.027.087-.073.099-.14.099a.46.46 0 0 1-.22-.064c-.05-.028-.081-.06-.104-.082-.017-.015-.026-.027-.026-.027l-.031-.063-.013.072v.008c0 .033.013.122.128.288.042.05.052.092.052.138 0 .161-.18.324-.186.477v.003c.01.173.149.276.3.313.037.008.07.02.104.02m2.004-1.193s-.048.04-.18.009c-.13-.038-.26-.105-.26-.105.05.93-.282 1.127-.282 1.127s-.07-.124-.117-.18c-.253-.262-.123.616-.814 1.048 0 0-.113-.1-.207-.116-.125-.017-.3.206-.3.206-.176-.133-.04-.399-.04-.399s-.14.03-.198.118c-.036.058-.055.075-.055.075s.01-.017.01-.207c0-.152-.062-.224-.177-.224-.073 0-.16.05-.16.05s.01-.175-.117-.436c-.112-.28-.23-.516-.141-.89 0 0-.3.208-.43-.284 0 0 .357.173.414-.162 0 0-.337.067-.391-.423 0-.02.25.447.414-.526.013-.078.069-.229.196-.265 0-.48.349-.737.354-.737.195.063.208.277.208.277s.118-.011.158-.148c.09-.302.354-.277.354-.277-.094.199.086.334.086.334s.259-.164.428-.21a.64.64 0 0 1 .374.006c-.103.081-.146.205-.096.296.06.104.225.12.368.044a.37.37 0 0 0 .158-.193c.108.304-.026.459-.026.459.273.12.36-.13.36-.13s.137.337.064.592c-.043.144-.159.217-.159.217s.268.008.192.342c-.119.572.018.712.018.712m-2.176.595c.042-.082.077-.18.05-.27a.4.4 0 0 0-.078-.152.44.44 0 0 0 .366.025c.065.137.293.159.409.145-.044.037-.292.05-.337.406 0 .058-.035.405-.363.3-.297-.1-.083-.378-.046-.454m4.475 2.274a.292.292 0 0 0-.002.279c-.065-.035-.188-.1-.188-.272 0-.026.01-.065.018-.091.01-.025.014-.037.022-.049.014-.024.036-.05.066-.05.053-.007.106.026.113.08.01.034-.01.065-.03.103m-.602-.575c-.13.003-.198.088-.198.088.014-.07.031-.204.198-.261a.3.3 0 0 1 .145-.01c.026.004.05.024.065.05a.1.1 0 0 1-.04.135c-.03.02-.061.01-.105 0q-.036-.002-.065-.003m.544-.687c-.014-.011-.077.012-.091 0-.112-.08-.226-.041-.226-.041.05-.05.145-.151.312-.103.037.013.08.027.108.056.01 0 .01.004.016.008.021.024-.21-.208-.428.039.187-.01.31.11.255.103-.036-.003.083-.028.055-.062m3.538.72c-.145.025-1.039.03-1.08.661-.17-.09-.196-.276-.185-.304-.656.038-.681.364-.681.364s-.119-.083-.051-.355c.029-.117-.268.288-.345.02-.193.04-.173.291-.173.291s-.134-.039-.134-.254c0 0 .01-.14-.102-.02-.057.06-.072.14-.073.14-.113-.08-.135-.26-.135-.26-.031.14-.297.442-.55.335 0-.026.015-.05.028-.075.023-.038.04-.069.031-.103a.1.1 0 0 0-.113-.08c-.03 0-.052.025-.066.05a.1.1 0 0 0-.022.048c-.102-.262.154-.377.08-.352-.3.13-.482.015-.51-.138q.027.001.064.003c.043.01.074.02.106 0a.1.1 0 0 0 .039-.136c-.014-.026-.04-.047-.065-.05a.3.3 0 0 0-.144.01c.025-.126.118-.208.412-.254-.04-.1-.022-.193.033-.249 0-.003.01-.011.01-.011q.023.017.04.027c.027.034.055.061.091.063.053.007.106-.04.11-.09a.13.13 0 0 0-.032-.081c-.01-.004-.01-.008-.016-.008a.6.6 0 0 1 .252.004c.32.06.498.335.498.335s.112 0 .354.02c.203.017.363.063.363.063-.757-.3-.558-.78-.558-.78s.744.717 2.815.78c0 0 .136.319-.289.386m1.22.926c-.012.008-.02.025-.027.034-.083.112-.038.23-.038.23-.052-.043-.151-.127-.117-.297v-.01a.3.3 0 0 1 .062-.11.1.1 0 0 1 .074-.035.1.1 0 0 1 .092.1c0 .04-.022.06-.05.088m-.617-.249c-.01 0-.018.005-.026.005-.136.055-.16.182-.16.182-.023-.065-.066-.19.052-.31.012-.018.03-.027.043-.038a.3.3 0 0 1 .08-.042.14.14 0 0 1 .077.01c.043.04.06.093.022.145-.017.025-.05.038-.09.048m-.102-.558c-.018-.012-.031-.012-.046-.012-.134-.001-.211.09-.211.09.014-.06.03-.197.194-.25q.015-.005.039-.008a.15.15 0 0 1 .1 0 .09.09 0 0 1 .062.047c.022.04.01.108-.04.129-.03.022-.06.01-.1.004m2.598-.908s-.018-.036-.056-.044a.1.1 0 0 0-.058.007c.11.107-.011.298-.011.298-.06-.148-.172-.092-.172-.092s.043.08.064.173c.022.16-.095.242-.095.242s0-.164-.128-.129c-.07.016-.212.132-.15.493 0 0-.101-.015-.171-.075-.072-.07-.108-.172-.108-.172s-.04.51-.36.454c.087-.096.04-.229.04-.229s-.126.045-.18.103a.4.4 0 0 0-.067.207c-.035.344-.158.476-.322.513a.4.4 0 0 1-.13 0c.01-.01.016-.026.027-.034.027-.027.047-.048.05-.087a.1.1 0 0 0-.093-.1.1.1 0 0 0-.074.034.25.25 0 0 0-.062.11c-.01-.005-.012-.013-.018-.022-.04-.068 0-.154.012-.176a.7.7 0 0 1-.153.081c-.153.056-.25.007-.305-.083.01 0 .018-.005.026-.005.04-.01.073-.024.09-.048.036-.053.02-.106-.022-.145-.022-.01-.053-.016-.078-.01a.3.3 0 0 0-.08.041c0-.041 0-.15.105-.246 0-.015.01-.018-.018-.018-.047-.014-.122-.047-.144-.144.014 0 .027 0 .045.011.04.007.07.019.099-.004.05-.02.062-.088.04-.128a.1.1 0 0 0-.062-.047.15.15 0 0 0-.1 0c.184-.293.706-.077.706-.077.01 0 .098-.025.173-.112.113-.137.112-.297-.15-.31-.545-.043-2.638-.061-3.731-.95 0 0-.823-.146-2.054.996-1.82 1.688-2.88 1.374-3.442 1.304-.27-.034-.467.023-.627.18-.1-.22.155-.396.155-.396-.175-.02-.444-.038-.566.182-.09-.082-.075-.24-.075-.24s-.235.185-.423.092c0 0 .148-.103.074-.18-.061-.053-.187-.076-.344.238 0 0-.087-.074-.065-.204.016-.087.049-.13.049-.13s-.137.12-.335.093c0 0 .179-.095.1-.183-.111-.117-.526-.136-.801.027-.096.047-.29.285-.547.116a.13.13 0 0 0 .107-.053c.036-.05.027-.121-.022-.153-.027-.026-.062-.03-.094-.026-.036.005-.074.028-.113.046-.017-.115.072-.189.157-.24-.198-.008-.593-.017-.59-.291 0 0 0-.003.01-.017.017 0 .035.012.058.017.043.02.081.032.121.02a.114.114 0 0 0 .068-.148c-.013-.028-.035-.058-.068-.069-.04-.018-.094-.024-.139-.018.068-.185.465-.125.509-.12-.048-.078-.066-.172.035-.276.013.032.022.056.053.078.051.028.117.013.146-.039a.1.1 0 0 0 .01-.08c0-.03-.017-.06-.035-.078.075-.029.17-.029.337.198.202.246.152.335.996.41.635.005.86-.137.86-.137s-.189 0-.23-.108c0 0 .068.007.113-.046.038-.044.025-.11-.047-.159-.147-.096-.25.257-.25.257-.183-.098-.122-.309-.122-.309s-.066.034-.149.059c-.208.052-.313-.07-.313-.07s.265-.017.247-.15c0 0-.372.161-.652-.055 0 0 .347-.035.261-.152-.052-.061-.162.027-.516-.009-.238-.03-.29-.164-.29-.164.218.022.284-.033.28-.103 0-.08-.13-.045-.274-.075-.206-.047-.323-.157-.786.039-.1.044-.26.05-.365-.1.014 0 .027-.01.048-.01.043-.009.081-.009.106-.039.038-.043.036-.114-.01-.148-.022-.026-.06-.032-.083-.031a.3.3 0 0 0-.121.052c0-.21.287-.272.343-.303 0 0-.364-.293-.188-.544.027.039.052.07.09.074a.107.107 0 0 0 .139-.082.1.1 0 0 0-.021-.091c-.01-.013-.014-.021-.022-.035.164-.155.445.09.577.226 0 0-.072-.303.098-.396 0 .003.01.008.012.015.013.047.022.078.059.1.05.027.115.015.144-.038a.09.09 0 0 0 .01-.086c-.01-.013-.01-.025-.01-.025.29.08.242.344.264.612.02.272.904.568 1.626.71.018.2.126.37.198.568.126.29.099.576.099.576s.18-.119.26-.113c.077 0 .025.123.061.292.034.16.181.257.181.257l.051-.098s.062.203.258.335c0 0 .177-.337.302-.313.089.019.1.236.1.236.916-.45.849-1.317.946-.849 0 0 .615-.337.595-1.213.674.189 1.685-.763 3.94-.774.85-.003 2.037.42 2.63.631.588.206.968.202 1.088 0 .114-.18.064-.458-.79-.584-.624-.088-1.34-.119-1.765-.158-.298-.02-.776-.06-1.027-.354a.86.86 0 0 1-.194-.65c.06-.475.324-.683.33-.698 0 0-.038.07-.035.11 0 0 .202-.185.443-.185 0 0-.182.059-.23.185 0 0 .114-.082.286-.133.186-.052.26-.052.26-.052s0-.395.458-.36c1.047.064 1.01-.37 1.01-.37s.185.099.128.294c-.091.341-.531.297-.531.297s.226.173.49.065c.287-.12.364-.44.364-.44s.3.845-.607 1.061c-.315.075-.56-.04-.56-.04s.03.214.357.183c.126-.008.247-.047.365-.092.108-.044.278-.155.548-.104 0 0-.123.06-.284.187a1.5 1.5 0 0 1-.673.335c-.526.114-1.077-.177-1.052-.624 0 0-.541.014-.61.422-.046.24.105.492.69.565.666.1 2.4-.033 3.196.638.288.234.211.493.211.493s-.043-.154-.12-.214c-.074-.069-.113-.065-.113-.065s.205.11.205.418c0 .207-.193.346-.193.346s.073-.141.059-.244c-.016-.093-.066-.127-.066-.127s-.012.811-1.498.521a3.8 3.8 0 0 1-.91-.286c-.066-.04.072.572 1.739.738.248.03.496.003.713-.017.275-.027.51-.061.652.007.257.129.202.384.202.384m-6.576 1.331a.292.292 0 0 0-.002.279c-.065-.035-.187-.1-.187-.272 0-.026.01-.065.018-.091.01-.025.014-.037.022-.048.014-.025.036-.05.066-.05.053-.008.105.025.113.08.01.033-.01.065-.031.102m-.601-.575c-.13.003-.198.089-.198.089.014-.07.03-.205.198-.262a.3.3 0 0 1 .144-.01c.026.004.051.024.065.05a.1.1 0 0 1-.039.136c-.03.02-.062.01-.105 0q-.037-.002-.065-.003m.584-.598c.053.007.106-.039.11-.09a.13.13 0 0 0-.031-.08c-.01-.004-.01-.008-.016-.008-.027-.029-.072-.043-.108-.056-.167-.048-.263.053-.313.103 0 0 .115-.04.227.041q.022.018.04.028c.027.033.055.06.09.062m-7.844.81c-.027-.026-.062-.03-.094-.026-.036.005-.074.027-.114.045-.01.012-.018.019-.03.037-.15.125-.109.288-.09.363 0 0 .045-.17.238-.213h.01a.13.13 0 0 0 .106-.054c.036-.05.027-.12-.022-.152m-.454-.492a.114.114 0 0 0 .068-.147c-.013-.029-.035-.059-.068-.07-.04-.017-.094-.024-.14-.017q-.018.004-.025.003c-.197.033-.244.178-.276.265 0 0 .104-.092.261-.07.018 0 .036.011.06.017.042.02.08.032.12.02m.459-.553c.05.028.117.013.145-.039a.1.1 0 0 0 .01-.08c0-.03-.017-.06-.035-.079-.013-.028-.036-.041-.052-.057-.14-.124-.278-.07-.347-.04 0 0 .159.027.222.192 0 .01 0 .012.01.025.013.031.022.056.053.078m.244-2.084c.05.028.116.016.144-.037a.1.1 0 0 0 .01-.086c-.01-.013-.01-.025-.01-.025a.3.3 0 0 0-.078-.107c-.143-.123-.28-.067-.35-.04 0 0 .145.029.214.18 0 .004.01.009.012.015.013.047.022.078.059.1m-.872 1.164c.038-.043.037-.114-.01-.148-.022-.026-.06-.033-.083-.031a.3.3 0 0 0-.121.052c-.011.004-.011.009-.021.011-.149.116-.119.26-.106.339 0 0 .04-.136.186-.175.014 0 .027-.01.048-.01.043-.008.081-.008.106-.038m-.06-.975v-.003c-.116-.164-.29-.139-.29-.139.067-.042.188-.14.367-.061a.5.5 0 0 1 .11.069c.01.014.017.022.022.035.02.025.03.056.02.091a.107.107 0 0 1-.138.082c-.038-.004-.062-.035-.09-.074m4.416 11.911c-.01-.001-.053-.031-.053-.105 0-.021.01-.049.014-.081a.3.3 0 0 0 .033-.11h-.038a.37.37 0 0 1-.216-.055l-.01-.007c-.162-.098-.177-.286-.177-.35v-.043l.012-.063.03.027.014.004.407.2c.01.002.137.063.137.225 0 .014 0 .024-.01.043-.016.144-.117.303-.117.305l-.014.019-.017-.01zm1.227-.32-.01.02c-.013.019-.12.226-.338.235l-.014.004h-.01a.44.44 0 0 1-.238-.08c-.012.015-.02.049-.03.114-.02.114-.097.135-.12.135h-.021l-.01-.022v-.02c0-.045.01-.19.05-.3a.26.26 0 0 1 .233-.163h.014l.453.034h.059l-.018.03-.01.013m-1.492 1.317c.038-.085.073-.185.05-.273a.6.6 0 0 0-.082-.147.47.47 0 0 0 .367.023c.065.137.294.155.406.14-.04.044-.291.053-.332.403-.01.068-.039.414-.366.306-.299-.09-.083-.375-.043-.452m.167.591a.24.24 0 0 1-.1-.018c-.158-.031-.3-.137-.306-.307v-.003c.01-.162.194-.32.191-.477a.25.25 0 0 0-.05-.143c-.118-.16-.13-.251-.13-.286v-.007l.012-.063.031.054s0 .009.031.03c.018.02.046.055.095.078.018.011.132.07.225.067.064 0 .112-.02.14-.099v-.026q-.001-.028-.054-.078a.2.2 0 0 1-.072-.053.13.13 0 0 1-.022-.064c0-.053.02-.082.022-.083l.018-.03.02.031s.02.029.057.055a.33.33 0 0 0 .242.09.4.4 0 0 0 .124-.019q.048-.012.046-.014l.031-.014.01.028v.031c.01.042-.022.112-.118.12-.03 0-.075 0-.101.005a.1.1 0 0 0-.06.055v.044c0 .064.036.098.095.13a.8.8 0 0 0 .204.022c.057 0 .11-.004.138-.005.096-.005.138-.014.138-.014l.069-.014-.046.05c-.094.122-.238.13-.383.238-.152.122-.143.315-.186.466a.314.314 0 0 1-.307.222zm10.87.44c.049.186-.117.275-.117.275s.03-.149-.052-.128c-.103.042.06.465-.202.61 0 0 .047-.145-.069-.141-.079.007-.074.157-.148.272-.126.213-.23.178-.23.178s.056-.129-.017-.189c-.065-.058-.22.006-.212.218 0 0-.068 0-.126-.062-.059-.056-.059-.12-.059-.12s-.099-.044-.146.265c-.034.243-.218.524-.43.518l.01-.01c.03-.033.048-.073.04-.102-.01-.061-.058-.09-.117-.084a.1.1 0 0 0-.062.039.4.4 0 0 0-.038.1.2.2 0 0 1-.044-.083c-.03-.086.023-.192.052-.24a.4.4 0 0 1-.14.08c-.086.019-.17 0-.23-.062 0-.003.01-.003.01-.003.04-.015.074-.028.096-.064.022-.043 0-.101-.046-.128a.1.1 0 0 0-.08-.007.15.15 0 0 0-.058.033c0-.015-.01-.027 0-.033.01-.136.062-.17.164-.224-.073-.012-.135-.049-.167-.11h.01c.043.01.08.015.11-.005.047-.02.06-.091.03-.134a.09.09 0 0 0-.066-.048.5.5 0 0 0-.092 0v-.012c.104-.289.924.124.966-.161.079-.57-1.756-.32-2.95-.643-1.127-.306-1.266-.591-1.266-.591-1.644.188-1.802 1.503-3.302 2.082-.985.378-1.625.298-2.18.207-.38-.073-.35.225-.683.112.12-.022.163-.142.082-.196-.138-.089-.175.143-.462.138.206-.181.04-.31.04-.31s-.177.415-.523.31c0 0 .117-.045.164-.173.03-.072.01-.121.01-.121s-.295.299-.617.178c0 0 .07-.017.112-.057.056-.043.075-.107.048-.137-.034-.059-.108.008-.187.04-.085.034-.22.07-.306 0 0 0 .347-.107.09-.225-.137-.076-.37-.098-.645.055-.099.058-.44.25-.579.103.01-.001.023-.01.027-.01.04-.023.072-.033.094-.065.024-.052.01-.112-.04-.139a.1.1 0 0 0-.085-.001c-.03.009-.055.027-.086.05-.017-.115.072-.192.158-.248-.176 0-.403-.024-.448-.229.014 0 .027.007.043.01.048.012.086.03.12.006.06-.02.083-.093.057-.146-.016-.031-.044-.06-.072-.063a.3.3 0 0 0-.124-.008c.036-.112.167-.174.322-.139l.132.03c-.034-.05-.152-.147-.086-.26.01 0 .014.01.027.02.036.033.062.058.105.058.064 0 .115-.049.115-.108a.13.13 0 0 0-.04-.094c-.01-.007-.024-.018-.034-.023.108-.04.29-.008.52.21.177.154.323.297 1.046.358.346.02.719-.011 1.018-.145-.232-.214-.306.022-.61-.124 0 0 .087-.016.123-.065.026-.042.035-.126-.045-.16-.19-.078-.255.198-.255.198-.144-.198-.026-.369-.026-.369s-.122-.05-.267-.018c-.207.056-.22.189-.22.189-.113-.1-.068-.233-.034-.283 0 0-.186-.086-.294.142 0 0-.117-.21.07-.302.091-.047.071-.118.071-.118-.01 0-.172.125-.483.125-.24 0-.354-.153-.34-.15.265.053.283-.146.283-.146s-.4-.11-.984.056c-.247.072-.333 0-.383-.096.01-.003.014-.003.023-.003.044-.01.081-.013.103-.043.045-.047.035-.112-.01-.151a.1.1 0 0 0-.08-.025.2.2 0 0 0-.087.028c0-.171.26-.32.45-.304 0 0-.496-.27-.342-.518.013.007.034.027.05.033.035.032.067.058.107.058.062 0 .117-.053.117-.112a.12.12 0 0 0-.043-.09c-.02-.018-.046-.03-.08-.049.172-.118.47.08.611.195 0 0-.039-.198.082-.294.01.004.018.018.027.027.022.042.036.075.077.09a.106.106 0 0 0 .137-.061c.016-.031.01-.056-.01-.09l-.031-.047c.153.007.225.121.287.373.145.618 1.294.853 1.643.874.134.39.025.647.025.647.256.04.381.02.381.02s.092.45.37.572c0 0 .039-.143.042-.105.072.315.38.467.38.467s.191-.067.39-.238c.201-.18.087.07.087.07s.446-.09.743-.62c.103-.19.092-.19.124.079.458-.37.628-.81.6-1.015.53.205 2.319-1.056 4.079-1.115 1.113-.036 1.577.287 2.13.48.547.193.875.291.987.109.108-.176.083-.542-.705-.651-.589-.076-1.351-.107-1.75-.133-.27-.015-1.094-.08-1.08-.838.01-.452.3-.6.3-.6l-.043.155s.13-.136.248-.194c.138-.06.293-.076.293-.076s.159-.47.55-.467c.312.007.494-.029.62-.154.193-.187.422-.075.422-.075s-.148.038-.26.26c-.13.258-.365.258-.365.258s.114.147.414-.057c.445-.225.676.17.676.17s-.177-.071-.352.004c-.148.064-.185.232-.315.309-.204.117-.364.096-.364.096s.027.115.364.05c.41-.088.54.141.54.141s-.134-.045-.261-.013c-.124.026-.238.125-.381.193-.537.236-1.501-.375-1.583.05-.026.145.09.334.612.406.62.083.955.039 1.839.15.304.04.714.202.936.41.613.597.096.974.096.974s.09-.186.01-.284c0 0 .019.25-.272.394-.533.264-1.793-.296-1.793-.296s-.247.724 1.755.911c.828.078 1.242-.075 1.56.042.248.091.228.428.228.428s-.133-.222-.06.04m-6.527 1.396q-.014.012-.022.015c-.103.112-.077.243-.077.243a.29.29 0 0 1-.075-.322c.01-.02.014-.042.029-.064l.052-.053c.022-.014.052-.026.08-.014.054.01.09.053.082.109-.01.041-.036.061-.068.086m-.492-.51q-.013.001-.025.003c-.153.024-.202.145-.202.145-.01-.069-.025-.204.118-.3q.026-.015.043-.028a.24.24 0 0 1 .095-.022c.026 0 .06.01.073.031.043.04.043.105 0 .14-.025.03-.057.03-.102.03m.236-.675a.1.1 0 0 0-.033-.023c-.126-.082-.244-.035-.244-.035.048-.056.133-.163.302-.13.016.008.038.008.056.02a.13.13 0 0 1 .075.045.1.1 0 0 1 .033.068c0 .056-.042.105-.095.105-.04 0-.068-.03-.094-.05m3.65.416c-.145.033-1.034.11-1.029.745a.37.37 0 0 1-.194-.296c-.192-.013-.273.083-.368.18-.143.145-.233.156-.233.156s.085-.253-.085-.253c-.128 0-.224.258-.224.258s-.164-.089-.125-.249c-.185-.074-.304.191-.304.191s-.128-.17.012-.304c0 0-.207-.08-.414.176-.102.128-.23.259-.382.21a1 1 0 0 1-.072-.028c.01-.001.014-.01.022-.016.031-.024.061-.044.068-.086.01-.056-.027-.099-.08-.109-.03-.012-.06 0-.082.014l-.052.054c-.06-.155.087-.327.087-.327s-.022.014-.102.034c-.17.058-.295.012-.356-.087q.015-.001.025-.003c.046-.001.078-.001.103-.032.043-.035.043-.098 0-.139-.014-.022-.047-.031-.073-.031a.3.3 0 0 0-.095.022c.01-.14.09-.208.365-.267-.06-.036-.145-.126-.095-.252.01.003.017.008.032.023.026.02.053.05.094.05.053 0 .095-.05.095-.106a.1.1 0 0 0-.033-.068.13.13 0 0 0-.074-.044c.089-.058.19-.032.255-.003.194.065.467.314.467.314s.26-.046.5-.029c.205.001.571.065.571.065-.963-.414-.84-.847-.84-.847s.74.703 2.993.743c0 0-.01.27-.377.34m-5.673-3.35c.099-.237-.02-.68-.02-.68s-.2.313-.367.143c-.157-.155.01-.406.01-.406-.19-.066-.353.195-.586.068-.166-.087.031-.387.031-.387s-.22-.007-.386.075c-.17.083-.242.148-.36.148-.157-.003-.105-.27-.105-.27s-.182-.002-.294.193c-.115.193-.238.24-.238.24-.05-.086-.162-.086-.248-.107a.7.7 0 0 1-.161-.068s-.18.33-.094.616c-.137.034-.17.18-.191.254-.154.557-.382.31-.382.325.043.488.327.48.298.591-.03.157-.291-.052-.291-.052 0 .346.156.362.224.569.056.182-.06.298.036.575.092.292.02.39.02.39a.46.46 0 0 0 .321-.135c-.04.365.135.531.135.531s.103-.218.15-.077c.12.403.318.542.318.542s.18-.001.498-.339c.22-.229.121.075.121.075s.158.006.471-.578c.107-.192.282-.306.343.004.368-.39.237-.819.237-.973 0-.132.07-.143.074-.09.036.366.42.248.42.248s-.154-.158 0-.721c.079-.279-.074-.548-.074-.548s.07-.113.09-.156m-1.968-5.291c-.01-.005-.053-.032-.053-.105 0-.028.01-.053.014-.085a.3.3 0 0 0 .033-.11h-.038a.4.4 0 0 1-.216-.056l-.01-.007c-.162-.097-.177-.278-.177-.353v-.039l.012-.056.03.021.014.004.407.203c.01 0 .137.058.137.22 0 .016 0 .03-.01.044-.016.149-.117.301-.117.306l-.014.019-.017-.006zm1.227-.32-.01.015c-.013.027-.12.23-.338.24h-.024a.45.45 0 0 1-.238-.083.4.4 0 0 0-.03.118c-.018.113-.097.135-.119.135h-.022l-.01-.025v-.017c0-.048.01-.188.05-.302a.25.25 0 0 1 .233-.162c.01 0 .014.005.014.005l.453.024h.06l-.019.04-.01.011m-1.492 1.315c.038-.08.073-.189.05-.27a.5.5 0 0 0-.083-.153.44.44 0 0 0 .368.03c.065.13.294.157.406.139-.04.04-.292.05-.332.4-.01.07-.04.417-.366.308-.3-.095-.083-.383-.043-.454m.167.59c-.033 0-.066 0-.1-.011-.158-.038-.301-.14-.307-.314v-.004c.01-.156.194-.312.192-.476a.23.23 0 0 0-.051-.14c-.117-.16-.13-.256-.13-.286v-.015l.013-.06.03.05s0 .016.032.041a.3.3 0 0 0 .095.073.45.45 0 0 0 .225.069c.064 0 .112-.02.14-.103v-.016c0-.033-.02-.054-.055-.082q-.034-.022-.072-.053a.2.2 0 0 1-.022-.069c0-.047.02-.077.022-.082l.018-.026.021.031c0-.005.02.022.056.052a.4.4 0 0 0 .15.085.45.45 0 0 0 .217-.01q.048-.019.046-.019l.031-.014.01.034V398c.01.037-.022.102-.118.11-.031.007-.075.007-.102.013-.033.012-.047.026-.059.05v.043c0 .07.035.103.094.129a.6.6 0 0 0 .204.035c.057 0 .111-.008.138-.013.096-.005.138-.019.138-.019l.07-.014-.047.052c-.094.121-.238.13-.382.238-.153.116-.144.313-.186.465a.32.32 0 0 1-.308.223zm10.87.443c.048.186-.118.271-.118.271s.031-.144-.052-.129c-.103.047.061.47-.202.61 0 0 .047-.14-.069-.136-.079.007-.074.164-.148.265-.126.22-.23.181-.23.181s.057-.125-.016-.188c-.065-.054-.222.008-.212.224 0 0-.068-.01-.127-.064-.059-.055-.059-.121-.059-.121s-.099-.047-.146.264c-.034.245-.218.523-.429.515 0-.003.01-.005.01-.011.027-.037.046-.065.039-.103-.01-.056-.059-.089-.117-.077-.022.004-.05.013-.062.037a.2.2 0 0 0-.038.096.16.16 0 0 1-.044-.08c-.031-.09.024-.19.052-.24a.3.3 0 0 1-.14.076c-.087.03-.17 0-.23-.056l.01-.004c.04-.015.073-.027.095-.062.022-.046 0-.104-.045-.132a.08.08 0 0 0-.079-.004.1.1 0 0 0-.059.032c0-.013-.01-.025 0-.035.01-.133.062-.172.164-.223a.21.21 0 0 1-.167-.113c.01 0 .01 0 .01.003.043.013.08.018.111-.004a.094.094 0 0 0 .03-.132.09.09 0 0 0-.067-.048c-.025-.004-.056 0-.092 0v-.018c.104-.288.924.13.966-.156.079-.573-1.756-.323-2.95-.645-1.127-.303-1.266-.594-1.266-.594-1.644.183-1.801 1.51-3.302 2.086-.984.375-1.625.293-2.18.203-.38-.066-.35.224-.683.115.12-.025.163-.138.082-.189-.138-.098-.175.137-.462.13.206-.178.04-.31.04-.31s-.176.41-.523.31c0 0 .118-.039.164-.176.03-.065.01-.102.01-.102s-.295.285-.617.161c0 0 .07-.007.112-.044.056-.052.075-.115.048-.15-.034-.048-.108.008-.187.043-.085.034-.22.068-.306 0 0 0 .348-.102.091-.224-.138-.073-.37-.099-.646.052-.099.06-.44.249-.579.106.01-.008.024-.012.027-.017.04-.018.072-.026.094-.06.023-.05.01-.108-.04-.137a.13.13 0 0 0-.085-.009c-.03.01-.055.035-.086.06-.017-.116.072-.196.158-.251-.176-.004-.403-.026-.448-.22.014 0 .027 0 .043.009.048.009.086.023.121 0 .06-.03.082-.09.056-.147-.016-.03-.044-.058-.072-.064a.4.4 0 0 0-.124-.01c.037-.113.167-.171.322-.13.036.009.089.014.133.02-.034-.047-.152-.15-.086-.259.01.005.014.014.027.017.036.035.062.061.104.061.064 0 .116-.045.116-.107a.12.12 0 0 0-.04-.09c-.01-.015-.023-.019-.034-.028.108-.039.29-.016.519.21.177.158.323.302 1.047.36.346.02.718-.009 1.017-.147-.231-.212-.305.025-.609-.122 0 0 .086-.01.123-.068.026-.034.035-.125-.046-.161-.19-.077-.256.197-.256.197-.144-.197-.026-.364-.026-.364s-.122-.053-.266-.017c-.207.056-.22.184-.22.184-.114-.098-.068-.232-.034-.278 0 0-.186-.09-.294.14 0 0-.118-.209.069-.298.092-.05.072-.128.072-.128-.01.007-.172.134-.483.134-.24 0-.354-.155-.341-.155.265.052.283-.142.283-.142s-.4-.109-.984.059c-.247.07-.333 0-.382-.102h.024c.044-.011.08-.011.102-.046.046-.04.035-.11-.01-.14-.022-.03-.05-.037-.08-.032-.028.001-.06.018-.087.032 0-.177.26-.325.45-.31 0 0-.495-.273-.342-.517.013.005.034.024.05.033.036.03.068.06.108.063a.124.124 0 0 0 .118-.118c0-.036-.016-.062-.043-.089-.021-.016-.045-.036-.081-.047.173-.126.47.074.611.193 0 0-.039-.2.082-.296.01.008.018.015.027.031.022.038.036.076.077.085.051.025.116-.004.137-.056.016-.038.01-.06-.01-.09-.01-.02-.022-.03-.03-.047.153.013.224.13.287.371.144.617 1.294.853 1.643.871.134.393.025.647.025.647.256.042.381.022.381.022s.092.444.37.58c0 0 .039-.15.042-.111.072.316.38.466.38.466s.191-.06.39-.237c.2-.173.086.073.086.073s.447-.093.743-.624c.103-.188.092-.188.124.078.458-.368.629-.814.601-1.015.53.2 2.319-1.052 4.078-1.108 1.113-.04 1.578.279 2.13.477.548.185.876.291.988.103.108-.17.083-.542-.706-.656-.588-.07-1.35-.095-1.75-.134-.269-.01-1.094-.075-1.08-.83.01-.453.301-.594.301-.594l-.044.147s.13-.128.249-.19c.138-.066.293-.08.293-.08s.158-.467.549-.462c.312.007.495-.031.62-.153.193-.188.422-.076.422-.076s-.148.037-.26.259c-.13.258-.364.258-.364.258s.113.142.414-.059a.5.5 0 0 1 .675.168s-.177-.069-.351.003c-.149.063-.185.232-.315.315-.205.119-.365.1-.365.1s.027.115.365.043c.408-.084.539.137.539.137s-.133-.044-.26-.009c-.124.031-.239.133-.382.194-.536.233-1.5-.378-1.583.055-.026.143.09.329.612.403.62.087.955.034 1.84.148.304.04.714.205.935.41.613.593.096.974.096.974s.09-.189.01-.289c0 0 .02.26-.272.398-.532.267-1.792-.291-1.792-.291s-.248.718 1.754.91c.828.077 1.242-.074 1.56.04.248.089.229.426.229.426s-.133-.22-.061.044m-1.8 1.68c0 .007 0 .01-.01.012a.27.27 0 0 0 0 .262c-.068-.036-.183-.095-.176-.283 0-.012.01-.027.01-.038a.25.25 0 0 1 .038-.096c.013-.023.04-.032.062-.036.059-.012.11.02.117.076.01.038-.012.067-.04.103m-.532-.35s0 .004-.01.004c-.148.068-.162.21-.162.21-.026-.064-.082-.192.023-.322a.16.16 0 0 1 .059-.059.1.1 0 0 1 .059-.03.08.08 0 0 1 .079.003c.048.028.068.086.045.132-.022.035-.055.047-.095.062m-.083-.535c0-.003-.01-.003-.01-.003-.162-.013-.248.104-.248.104.01-.074.025-.207.185-.272q.026-.009.053-.013c.036 0 .068-.004.092 0q.042.006.066.049a.093.093 0 0 1-.029.131c-.03.022-.068.017-.11.004m-12.544-.21a.1.1 0 0 0-.043-.01c-.168-.03-.262.087-.262.087.017-.083.048-.24.245-.285q.025-.012.042-.013a.3.3 0 0 1 .124.01.13.13 0 0 1 .072.063c.026.057 0 .117-.056.148-.035.023-.073.008-.121 0m.377-.573c-.013-.003-.017-.012-.027-.017-.147-.098-.291-.04-.291-.04.055-.063.15-.184.35-.155a.3.3 0 0 1 .114.048c.011.009.025.013.034.027.023.022.04.05.04.091 0 .061-.052.107-.116.107-.042 0-.068-.026-.104-.061m-.013 1.18c0 .005-.018.01-.027.017-.136.067-.148.204-.148.204-.031-.07-.086-.193.027-.334a.1.1 0 0 1 .031-.033c.031-.024.056-.05.086-.06a.13.13 0 0 1 .085.01.104.104 0 0 1 .04.136c-.022.034-.053.042-.094.06m.279-3.285a.1.1 0 0 0-.027-.031c-.09-.127-.232-.123-.232-.123.072-.041.196-.113.355-.022.031.02.056.04.078.068.01.015.024.026.031.047.017.03.023.052.01.09-.02.052-.086.08-.137.056-.04-.01-.055-.047-.077-.085m-.822.263c-.016-.01-.036-.029-.05-.034-.134-.08-.26-.022-.26-.022.048-.068.148-.187.34-.159.023.01.049.017.07.024.036.01.06.03.082.047.027.027.043.053.043.088 0 .06-.055.118-.118.118-.04-.003-.072-.033-.108-.062m-.085.979h-.024c-.16.037-.21.18-.21.18-.013-.078-.04-.22.104-.338a.13.13 0 0 1 .057-.027.2.2 0 0 1 .086-.033c.03-.005.059.001.08.033.045.03.056.1.01.139-.021.035-.058.035-.102.046m8.697 2.244a.1.1 0 0 0-.022.02c-.103.103-.077.239-.077.239-.049-.058-.136-.151-.075-.318.01-.025.014-.042.03-.066a.2.2 0 0 1 .051-.049.1.1 0 0 1 .081-.027c.053.012.09.061.081.117-.01.037-.036.059-.068.084m-.492-.512h-.025c-.152.027-.201.152-.201.152-.01-.071-.025-.208.118-.306l.043-.024a.3.3 0 0 1 .095-.022.1.1 0 0 1 .073.028c.043.04.043.104 0 .14-.025.032-.057.032-.103.032m.237-.68a.1.1 0 0 1-.033-.023c-.126-.08-.245-.03-.245-.03.048-.056.133-.165.302-.133.016.007.038.012.056.021.03.01.057.022.075.045.018.015.033.049.033.07 0 .057-.042.103-.095.103-.04 0-.068-.02-.094-.052m3.65.423c-.144.024-1.033.108-1.028.743a.36.36 0 0 1-.194-.3c-.193-.008-.273.094-.368.183-.144.148-.233.162-.233.162s.085-.253-.085-.253c-.128 0-.224.26-.224.26s-.164-.093-.125-.257c-.185-.076-.305.19-.305.19s-.127-.165.012-.301c0 0-.207-.081-.414.17-.101.13-.229.258-.38.214q-.04-.013-.073-.023l.022-.02c.031-.025.061-.047.068-.084a.1.1 0 0 0-.08-.117.1.1 0 0 0-.082.027.2.2 0 0 0-.052.049c-.06-.16.087-.328.087-.328s-.022.013-.103.039c-.17.054-.294.005-.355-.098h.025c.046 0 .078 0 .103-.031.043-.037.043-.1 0-.14a.1.1 0 0 0-.073-.03.3.3 0 0 0-.095.023c.01-.137.09-.205.364-.266-.059-.032-.144-.131-.095-.259a.1.1 0 0 0 .033.024c.026.032.053.052.094.052.053 0 .095-.046.095-.103a.1.1 0 0 0-.033-.07.2.2 0 0 0-.075-.045c.09-.058.19-.027.255 0 .194.063.468.317.468.317s.26-.047.5-.032c.205.007.57.067.57.067-.962-.413-.84-.842-.84-.842s.74.701 2.994.744c0 0-.01.263-.378.335m-5.672-3.352c.099-.244-.02-.686-.02-.686s-.2.315-.367.147c-.158-.156.01-.4.01-.4-.19-.06-.353.19-.586.07-.167-.093.031-.398.031-.398s-.22 0-.387.073c-.17.089-.242.158-.359.151-.157-.005-.105-.267-.105-.267s-.183-.003-.295.196c-.114.186-.238.238-.238.238-.049-.08-.161-.08-.247-.108-.094-.025-.161-.07-.161-.07s-.18.34-.094.613c-.137.039-.17.184-.192.261-.153.552-.381.313-.381.322.043.492.327.475.298.599-.031.153-.292-.06-.292-.06 0 .34.157.368.224.57.056.182-.059.303.036.578.092.28.02.39.02.39.196.005.322-.137.322-.137-.04.364.135.537.135.537s.103-.218.15-.074c.12.394.317.534.317.534s.181-.007.499-.34c.22-.235.121.068.121.068s.158.012.471-.572c.107-.193.281-.3.343.003.368-.393.236-.814.236-.969 0-.135.07-.147.074-.09.036.366.42.245.42.245s-.153-.161 0-.72c.08-.282-.073-.542-.073-.542s.07-.112.09-.162" style="fill:#5f6a70;fill-opacity:1;fill-rule:nonzero;stroke:none" transform="matrix(4.60467 0 0 4.60467 -5397.509 -1700.02)"></path><path d="M1200.234 391.507a.147.147 0 0 1-.15.146.143.143 0 0 1-.147-.146c0-.084.062-.148.146-.148.085 0 .151.064.151.148M1199.237 391.255c0 .081-.063.146-.144.146a.144.144 0 0 1-.148-.146c0-.083.062-.157.148-.157.081 0 .143.074.143.157M1200.254 397.379a.14.14 0 0 1-.145.146.15.15 0 0 1-.149-.146c0-.078.072-.146.149-.146.085 0 .145.068.145.146M1199.313 397.143c0 .081-.068.154-.15.154-.078 0-.144-.073-.144-.154 0-.08.065-.145.145-.145.082 0 .15.065.15.145M1200.252 403.357c0 .08-.068.15-.146.15a.153.153 0 0 1-.151-.15.149.149 0 0 1 .297 0M1199.309 403.123c0 .076-.068.154-.15.154-.079 0-.147-.078-.147-.154a.15.15 0 0 1 .147-.146.15.15 0 0 1 .15.146M1180.212 389.755l5.435 2.278M1193.181 376.817l2.278 5.417" style="fill:#5f6a70;fill-opacity:1;fill-rule:nonzero;stroke:none" transform="matrix(4.60467 0 0 4.60467 -5397.509 -1700.02)"></path><path d="M1220.551 399.062c0 10.026-8.13 18.156-18.151 18.156-10.03 0-18.154-8.13-18.154-18.156 0-10.03 8.123-18.154 18.154-18.154 10.021 0 18.151 8.125 18.151 18.154z" style="fill:none;stroke:#5f6a70;stroke-width:.06638288;stroke-linecap:butt;stroke-linejoin:miter;stroke-miterlimit:10;stroke-dasharray:none;stroke-opacity:1" transform="matrix(4.60467 0 0 4.60467 -5397.509 -1700.02)"></path><path d="m1185.59 405.943-5.19 2.185-.202-.05.108-.16 5.205-2.182z" style="fill:#5f6a70;fill-opacity:1;fill-rule:nonzero;stroke:none" transform="matrix(4.60467 0 0 4.60467 -5397.509 -1700.02)"></path><path d="M1198.608 413.839a1 1 0 0 1-.037-.117m-5.744-3.165a.35.35 0 0 1-.209.072.37.37 0 0 1-.376-.362.367.367 0 0 1 .736-.018c.01.059-.01.104-.021.164l-.302.83c1.463 1.383 3.692 2.42 5.615 2.856l.48-.582c.091-.114.254-.272.396-.276a.37.37 0 0 1 .377.364.367.367 0 0 1-.364.376.37.37 0 0 1-.376-.365l.01-.15m-6.615-3.61a.6.6 0 0 1 .424-.189c.326-.012.591.198.595.52 0 .08 0 .21-.027.278l-.247.725c1.395 1.259 3.613 2.247 5.278 2.685l.484-.622a.6.6 0 0 1 .46-.24m-7.124-2.746v-.023m7.725 3.354a.596.596 0 0 1-.582.607.6.6 0 0 1-.554-.366m-6.59-3.595a.587.587 0 0 0 .715.593l.094-.033m.328-.305.262-.268c1.16.947 3.349 2.28 5.113 2.73l.029.446m.22-.262-.036-.377c-1.797-.42-4.09-1.797-5.254-2.773l-.08-.066-.186.19-.027.028m-.247.29-.125.124m5.785 3.278c.083.2.276.343.505.36a.6.6 0 0 0 .432-.147.6.6 0 0 0 .195-.411v-.025a.594.594 0 0 0-.553-.604.7.7 0 0 0-.296.059M1187.562 402.12a1 1 0 0 1-.109-.037m.375-.174-.15.003a.37.37 0 0 1-.355-.386.373.373 0 0 1 .392-.35.36.36 0 0 1 .35.384c-.01.144-.172.3-.29.395l-.604.455c.276 1.814 1.24 4.03 2.655 5.837l.836-.275c.062-.015.105-.015.164-.015a.37.37 0 0 1 .348.386.368.368 0 0 1-.737-.04.43.43 0 0 1 .079-.206m.635.705a.6.6 0 0 1-.377.117m-2.485-7.35a.58.58 0 0 1-.251.458l-.642.463c.224 1.696 1.307 3.822 2.483 5.49l.738-.22a.7.7 0 0 1 .274-.015c.332.01.52.292.507.616 0 .032-.012.069-.018.105m-3.927-6.383a.6.6 0 0 1-.343-.567.59.59 0 0 1 .623-.56m2.533 7.133-.035.093a.596.596 0 0 0 .598.737m-2.947-6.775.444.051c.264 1.67 1.449 4.035 2.536 5.325l-.276.247m.35-.02.03-.03.196-.177-.064-.079c-1.033-1.35-2.341-3.708-2.572-5.483l-.378-.045m2.36 6.169.132-.124m-2.413-6.16a.6.6 0 0 0 .068-.292.594.594 0 0 0-.59-.57h-.022a.57.57 0 0 0-.41.183c-.11.12-.169.27-.162.42a.6.6 0 0 0 .343.524" style="fill:none;stroke:#5f6a70;stroke-width:.11454302;stroke-linecap:butt;stroke-linejoin:miter;stroke-miterlimit:10;stroke-dasharray:none;stroke-opacity:1" transform="matrix(4.60467 0 0 4.60467 -5397.509 -1700.02)"></path><path d="M1192.342 409.424a.724.724 0 0 0-.687-.777.755.755 0 0 0-.79.703.74.74 0 0 0 .697.783c.408.013.758-.3.78-.709z" style="fill:none;stroke:#5f6a70;stroke-width:.11454302;stroke-linecap:butt;stroke-linejoin:miter;stroke-miterlimit:10;stroke-dasharray:none;stroke-opacity:1" transform="matrix(4.60467 0 0 4.60467 -5397.509 -1700.02)"></path><path d="M1192.513 409.656a1 1 0 0 0 .04-.22.96.96 0 0 0-.902-1.002c-.185-.004-.42.04-.584.144M1190.774 408.92a.95.95 0 0 0 .777 1.417c.288.015.598-.128.783-.316M1205.807 413.868l-.034.112m-.18-.368.01.148a.37.37 0 0 1-.38.365.37.37 0 0 1-.366-.38.377.377 0 0 1 .38-.365c.141.007.31.163.395.284l.48.583c1.928-.445 4.153-1.48 5.618-2.858l-.302-.83a.5.5 0 0 1-.02-.163c0-.206.169-.364.37-.36a.37.37 0 0 1 .36.37c0 .203-.17.37-.371.358a.4.4 0 0 1-.211-.064m-6.313 2.458a.59.59 0 0 1 .458.238l.484.623c1.664-.437 3.887-1.431 5.279-2.688l-.25-.725a1 1 0 0 1-.026-.278c.01-.324.27-.529.596-.523a.6.6 0 0 1 .428.196m.154.376v.034m-6.588 3.57a.6.6 0 0 1-.56.357.59.59 0 0 1-.579-.599m6.917-2.794.096.031c.05.01.104.02.163.01a.58.58 0 0 0 .55-.609m-6.539 3.174.033-.45c1.764-.446 3.947-1.777 5.106-2.732l.266.27m-.04-.352-.031-.024-.182-.189-.08.066c-1.162.978-3.458 2.352-5.255 2.769l-.036.38m5.953-2.586-.126-.127m-5.946 2.643a.5.5 0 0 0-.29-.061.595.595 0 0 0-.557.602v.025a.595.595 0 0 0 .631.553.58.58 0 0 0 .505-.358M1216.928 402.222a.3.3 0 0 1-.111.034m-2.953 5.985a.33.33 0 0 1 .078.204.37.37 0 0 1-.35.387.37.37 0 0 1-.382-.346.36.36 0 0 1 .345-.384.6.6 0 0 1 .166.01l.835.275c1.412-1.8 2.376-4.026 2.65-5.84l-.603-.452c-.116-.088-.284-.25-.292-.39a.38.38 0 0 1 .353-.394c.205-.012.38.15.393.36.01.2-.148.378-.355.383h-.15m-2.947 7.007a.6.6 0 0 1-.376-.115m-.231-.34c0-.042-.016-.071-.016-.109-.016-.33.175-.596.503-.615a1 1 0 0 1 .276.02l.737.227c1.18-1.671 2.267-3.802 2.485-5.498l-.645-.462a.58.58 0 0 1-.25-.455m.56-.618a.59.59 0 0 1 .622.562.6.6 0 0 1-.343.564m-3.374 6.839c.327.01.603-.25.612-.575a.7.7 0 0 0-.021-.16l-.033-.097m-.315-.316-.281-.245c1.092-1.303 2.271-3.667 2.538-5.331l.445-.049m-.27-.212-.374.046c-.23 1.771-1.543 4.133-2.572 5.484l-.064.074.188.174.035.028m.296.244.127.121m3.06-6.025a.59.59 0 0 0 .347-.517c0-.16-.055-.31-.163-.425a.63.63 0 0 0-.415-.184h-.03a.59.59 0 0 0-.578.574c-.01.103.022.2.065.29" style="fill:none;stroke:#5f6a70;stroke-width:.11454302;stroke-linecap:butt;stroke-linejoin:miter;stroke-miterlimit:10;stroke-dasharray:none;stroke-opacity:1" transform="matrix(4.60467 0 0 4.60467 -5397.509 -1700.02)"></path><path d="M1212.039 409.564a.73.73 0 0 1 .683-.774.754.754 0 0 1 .793.703.73.73 0 0 1-.699.774.74.74 0 0 1-.777-.703z" style="fill:none;stroke:#5f6a70;stroke-width:.11454302;stroke-linecap:butt;stroke-linejoin:miter;stroke-miterlimit:10;stroke-dasharray:none;stroke-opacity:1" transform="matrix(4.60467 0 0 4.60467 -5397.509 -1700.02)"></path><path d="M1211.868 409.804a1 1 0 0 1-.04-.222.96.96 0 0 1 .902-1.004c.185-.014.418.037.582.14M1213.603 409.06a.83.83 0 0 1 .123.427.954.954 0 0 1-.9.996 1.09 1.09 0 0 1-.778-.321M1206.007 383.925c.012.038.025.076.03.112m5.744 3.175a.36.36 0 0 1 .214-.077.373.373 0 0 1 .372.363.36.36 0 0 1-.362.37.36.36 0 0 1-.372-.36c0-.06 0-.097.022-.156l.298-.833c-1.462-1.38-3.688-2.412-5.615-2.86l-.482.589c-.086.114-.251.27-.394.272a.373.373 0 0 1-.378-.36c0-.201.162-.377.363-.378a.37.37 0 0 1 .382.36l-.01.149m6.615 3.614a.6.6 0 0 1-.429.194c-.325.001-.584-.2-.593-.525 0-.076 0-.205.027-.272l.252-.733c-1.397-1.251-3.615-2.248-5.28-2.68l-.484.624a.57.57 0 0 1-.46.237m7.124 2.739v.031m-7.728-3.35c0-.33.257-.598.58-.61a.62.62 0 0 1 .562.365m6.586 3.595a.593.593 0 0 0-.716-.593l-.094.03m-.33.301-.26.275c-1.163-.955-3.349-2.287-5.108-2.73l-.031-.44m-.223.25.034.386c1.798.415 4.091 1.79 5.263 2.77l.076.062.182-.185.029-.03m.247-.288.124-.123m-5.778-3.28a.61.61 0 0 0-.513-.362.6.6 0 0 0-.424.153.59.59 0 0 0-.202.403v.022a.594.594 0 0 0 .556.61.6.6 0 0 0 .291-.06M1217.053 395.643a.3.3 0 0 1 .103.04m-.372.167.15-.005a.38.38 0 0 1 .354.395.37.37 0 0 1-.392.348.363.363 0 0 1-.35-.387c0-.139.173-.304.287-.382l.607-.464c-.278-1.814-1.24-4.036-2.655-5.836l-.836.275c-.064.013-.104.016-.163.013a.366.366 0 0 1-.347-.387.36.36 0 0 1 .385-.344c.2.01.36.184.349.38a.37.37 0 0 1-.081.211m-.634-.705a.58.58 0 0 1 .377-.112m2.484 7.336a.58.58 0 0 1 .254-.45l.639-.461c-.22-1.694-1.304-3.822-2.482-5.495l-.737.224c-.069.019-.2.019-.275.013-.326-.013-.52-.276-.507-.61.01-.034.01-.073.02-.104m3.925 6.38a.58.58 0 0 1 .344.57.587.587 0 0 1-.618.555m-2.542-7.13.04-.103a.4.4 0 0 0 .018-.155.596.596 0 0 0-.612-.57m2.95 6.768-.448-.05c-.267-1.667-1.446-4.026-2.533-5.326l.273-.252m-.345.027-.03.028-.196.18.06.08c1.033 1.342 2.343 3.702 2.572 5.477l.38.044m-2.366-6.163-.128.119m2.41 6.168a.588.588 0 0 0 .524.858h.025a.6.6 0 0 0 .415-.186.6.6 0 0 0 .155-.425.6.6 0 0 0-.343-.514" style="fill:none;stroke:#5f6a70;stroke-width:.11454302;stroke-linecap:butt;stroke-linejoin:miter;stroke-miterlimit:10;stroke-dasharray:none;stroke-opacity:1" transform="matrix(4.60467 0 0 4.60467 -5397.509 -1700.02)"></path><path d="M1212.272 388.335a.72.72 0 0 0 .684.78.76.76 0 0 0 .795-.702.74.74 0 0 0-.705-.772.73.73 0 0 0-.774.694z" style="fill:none;stroke:#5f6a70;stroke-width:.11454302;stroke-linecap:butt;stroke-linejoin:miter;stroke-miterlimit:10;stroke-dasharray:none;stroke-opacity:1" transform="matrix(4.60467 0 0 4.60467 -5397.509 -1700.02)"></path><path d="M1212.098 388.1a.95.95 0 0 0 .863 1.222c.186.013.418-.021.582-.134M1213.836 388.85a.95.95 0 0 0 .122-.43.94.94 0 0 0-.904-.99 1.06 1.06 0 0 0-.779.314M1198.534 383.876c.01-.037.016-.07.033-.108m.184.368-.01-.146c.01-.207.176-.376.383-.364a.37.37 0 0 1-.015.738c-.141 0-.31-.163-.398-.27l-.481-.596c-1.923.453-4.147 1.483-5.616 2.872l.301.82c.02.062.025.11.025.168a.38.38 0 0 1-.374.359.37.37 0 0 1 .012-.742c.075.008.15.036.214.076m6.31-2.462a.59.59 0 0 1-.458-.225l-.484-.64c-1.667.446-3.884 1.431-5.279 2.685l.246.733c.024.07.031.195.027.274 0 .328-.265.529-.593.526a.59.59 0 0 1-.426-.194m-.157-.384v-.03m6.589-3.566a.6.6 0 0 1 .557-.365c.325.01.588.279.579.607m-6.914 2.795-.096-.04c-.05-.011-.106-.011-.163-.011a.593.593 0 0 0-.552.61m6.54-3.165-.032.449c-1.76.445-3.949 1.775-5.111 2.725l-.257-.265m.033.346.033.034.185.184.08-.056c1.164-.98 3.46-2.366 5.258-2.774l.034-.383m-5.956 2.592.123.115m5.951-2.63a.6.6 0 0 0 .293.053.59.59 0 0 0 .552-.605v-.022a.59.59 0 0 0-.2-.408.57.57 0 0 0-.422-.145.59.59 0 0 0-.51.359M1187.413 395.522a.5.5 0 0 1 .108-.037m2.956-5.973a.368.368 0 0 1 .27-.595c.198-.01.377.14.383.346a.375.375 0 0 1-.504.37l-.841-.27c-1.415 1.805-2.377 4.02-2.65 5.835l.604.46c.116.081.28.245.29.384a.37.37 0 0 1-.35.39.38.38 0 0 1-.396-.347.385.385 0 0 1 .35-.398h.155m2.95-6.992c.139-.01.27.036.373.109m.232.334q.013.054.016.118c.018.317-.176.59-.504.604a.8.8 0 0 1-.273-.016l-.742-.217c-1.177 1.664-2.265 3.796-2.48 5.49l.64.455a.59.59 0 0 1 .253.457m-.56.62a.59.59 0 0 1-.28-1.127m3.375-6.827a.58.58 0 0 0-.61.568c0 .051 0 .112.013.16l.04.096m.313.316.281.254c-1.092 1.296-2.274 3.65-2.538 5.318l-.447.053m.27.215.38-.048c.228-1.773 1.538-4.135 2.573-5.481l.06-.08-.195-.17-.035-.04m-.29-.224-.128-.134m-3.06 6.024a.6.6 0 0 0-.34.52.58.58 0 0 0 .154.427c.115.11.258.176.415.18.01.007.013 0 .027 0a.584.584 0 0 0 .583-.57.5.5 0 0 0-.065-.288" style="fill:none;stroke:#5f6a70;stroke-width:.11454302;stroke-linecap:butt;stroke-linejoin:miter;stroke-miterlimit:10;stroke-dasharray:none;stroke-opacity:1" transform="matrix(4.60467 0 0 4.60467 -5397.509 -1700.02)"></path><path d="M1192.3 388.178a.734.734 0 0 1-.685.783c-.407.018-.774-.3-.79-.705a.74.74 0 0 1 .702-.777.735.735 0 0 1 .772.699z" style="fill:none;stroke:#5f6a70;stroke-width:.11454302;stroke-linecap:butt;stroke-linejoin:miter;stroke-miterlimit:10;stroke-dasharray:none;stroke-opacity:1" transform="matrix(4.60467 0 0 4.60467 -5397.509 -1700.02)"></path><path d="M1192.472 387.944a.956.956 0 0 1-.862 1.226c-.184.005-.417-.034-.58-.146M1190.738 388.694a.95.95 0 0 1 .777-1.423c.284-.017.594.127.777.316" style="fill:none;stroke:#5f6a70;stroke-width:.11454302;stroke-linecap:butt;stroke-linejoin:miter;stroke-miterlimit:10;stroke-dasharray:none;stroke-opacity:1" transform="matrix(4.60467 0 0 4.60467 -5397.509 -1700.02)"></path><path d="m1209.005 382.126 2.273-5.087.161-.174.02.165-2.317 5.148z" style="fill:#5f6a70;fill-opacity:1;fill-rule:nonzero;stroke:none" transform="matrix(4.60467 0 0 4.60467 -5397.509 -1700.02)"></path></g><!-- source: https://football-logos.cc --></svg>