<svg xmlns="http://www.w3.org/2000/svg" viewBox="-0.01 -0.02 187.89 200.52"><!-- Source: https://football-logos.cc --><path d="M494.42 412.25c-7.57 1.07-14.17 5.2-20.6 9a55 55 0 0 1-10.43 5.48c-1.51.14-2.94.8-4.46.79s-3-.84-4.54-.68-3.24-.74-4.92-.7a4.9 4.9 0 0 0-1.22 1.05q-14.89 14.92-29.76 29.81a1.15 1.15 0 0 0 0 1.74c2.36 3.14 4.9 6.14 7.23 9.3a43.7 43.7 0 0 1 8.89 17.09 35 35 0 0 0 .67 3.49c.18 2.33.12 4.66.08 7 .07 1.78-.65 3.46-.76 5.23a83 83 0 0 1-3.33 10.07 102 102 0 0 1-10.63 17.8 38 38 0 0 0-2.49 3.6 16.4 16.4 0 0 0 .63 5.24 68.7 68.7 0 0 0 3.05 11.85A56.65 56.65 0 0 0 435 570.59a63.6 63.6 0 0 0 13.87 10.27 131 131 0 0 0 20.56 8.86c11.14 4 22.63 7.78 32.27 14.86 3.51 2.5 6.68 5.49 10.42 7.66 5.13-3.69 9.82-8 15.32-11.13 5.63-3.41 11.8-5.78 17.92-8.16 12.6-4.56 25.73-8.57 36.66-16.59a54.66 54.66 0 0 0 20.22-27.94l.16.62c.41-3 1.73-5.88 2.17-8.92.4-1.92.67-3.86 1.15-5.76.13-.74.52-1.62-.08-2.25A151 151 0 0 1 595 515.83a65.7 65.7 0 0 1-5-12.07 60 60 0 0 1-1.5-7.09c0-3.28-.4-6.64.44-9.85a33.8 33.8 0 0 1 3.36-10c3.12-6 7.69-11.13 11.8-16.5.59-.91 1.72-1.67 1.62-2.86a20 20 0 0 0-1.84-1.92l-27.63-27.62a12 12 0 0 0-1.91-1.75c-1.68-.06-3.24.78-4.92.7a9.7 9.7 0 0 0-3.16.54 9.4 9.4 0 0 1-4.55-.43c-2.19-.22-4.08-1.43-6-2.31-7.45-4.17-14.46-9.46-22.8-11.74-4.05-.91-8.25-1.59-12.39-.94a33 33 0 0 0-7.08 1.66c-1.5.77-3.08-.19-4.55-.55a31.2 31.2 0 0 0-14.47-.85" style="fill:#f3f3f3" transform="translate(-418.08 -411.75)" data-source="https://football-logos.cc"></path><path d="M491.23 419.24a23.4 23.4 0 0 1 5.45-1.15c2.33 0 4.67-.09 7 .07a43.5 43.5 0 0 1 8.4 2.56 38 38 0 0 0 3.56-1.6c2-.27 3.84-1.13 5.87-1 3 0 6.09-.33 9 .61 10.45 2.49 18.27 10.67 28.39 14a7.5 7.5 0 0 0 2.11.53c2.8.13 5.61.09 8.42 0a6.2 6.2 0 0 0 2.49-.7c4.69 4.44 9.17 9.1 13.77 13.63 4 4.06 8.09 8 12 12.06-.31 1.16-1.3 1.95-2 2.88a104 104 0 0 0-6.51 8.91 34.3 34.3 0 0 0-3.65 7.08l-.13-.62c-.12 1.59-1 3-1.4 4.5s-1.17 3.19-1.22 4.89c-.13 1.88-.75 3.7-.64 5.6a45 45 0 0 0 .12 4.75c.5 2.22.37 4.54 1.16 6.7.62 2.56 1.51 5 2.27 7.56a97 97 0 0 0 11.16 20 29 29 0 0 1 2.48 3.62c.18 2.3-1 4.42-1.14 6.68a20 20 0 0 1-1 3.53A49.9 49.9 0 0 1 580 570.2c-9.85 7.81-22 11.72-33.65 15.91-8.4 3-16.76 6.31-24.32 11.09-3.48 2.24-6.67 4.88-10 7.38a42.4 42.4 0 0 1-4.88-3.44c-9.41-7.57-20.87-11.85-32.12-15.85a177 177 0 0 1-19.39-7.71 57.7 57.7 0 0 1-16.2-11.15 47.7 47.7 0 0 1-10.17-14.65 43.8 43.8 0 0 1-2.9-8.3c-.08.48-.15 1-.23 1.44.35-1.65-.45-3.16-.66-4.77-.34-2-1.22-4-1.1-6.09a6 6 0 0 1 .86-1.42 101.9 101.9 0 0 0 12.58-21.69c1.52-4.87 3.51-9.77 3.38-15 .09.34.19.69.29 1 .06-2.45.11-4.9 0-7.35-.49-2.37-.46-4.84-1.34-7.12-2.16-8.52-7.44-15.76-12.94-22.43-.45-.6-1.12-1.14-1.17-1.93a4.2 4.2 0 0 1 .75-.95c8.45-8.13 16.55-16.63 25-24.76a6.2 6.2 0 0 0 2.5.71 75 75 0 0 0 9.08-.06c10.2-2.76 17.91-10.61 27.86-13.82m-.54 9.84a107 107 0 0 0-11.35 6.49c-2.42 1.51-5 2.72-7.57 4a36.8 36.8 0 0 1-7.78 2.58c-3.08.35-6.19.08-9.27.15a10.2 10.2 0 0 0-2.1 1.92q-6 5.93-11.89 11.87a27 27 0 0 0-2.9 3.08 34 34 0 0 1 3.73 5.24 55.4 55.4 0 0 1 8.3 19.83 59 59 0 0 1 .26 14.53c-.26 3.94-1.46 7.73-2.51 11.52-2.07 6.5-5.46 12.46-8.85 18.35-1.44 2.62-3.33 5-4.83 7.55a33.4 33.4 0 0 0 1.8 7.33 41.5 41.5 0 0 0 13.89 20.1 64 64 0 0 0 7.84 4.84 139 139 0 0 0 14.23 6.23c7.42 2.5 14.85 5 22 8.22 2.18 1 4.32 2.15 6.49 3.2 3.63 1.75 6.9 4.13 10.35 6.2.74.4 1.62 1.09 2.38.35a112 112 0 0 1 15.49-9c5.56-2.51 11.26-4.7 17-6.72a173 173 0 0 0 18.6-7.29 56 56 0 0 0 6.56-3.65c5.4-3.53 10.37-8 13.61-13.63a52.8 52.8 0 0 0 5.53-15c.09-.58.3-1.23-.11-1.74-1.58-2.6-3.48-5-5-7.66-4.15-7.23-8.07-14.74-9.86-22.94-1.09-3.52-1.08-7.22-1.59-10.85-.32-3.05.53-6.06.63-9.1a51.5 51.5 0 0 1 4.34-13.69 92 92 0 0 1 7.15-11.39c.25-.44.86-1.06.25-1.47-5.17-5.2-10.39-10.36-15.56-15.57-.36-.3-.7-.78-1.23-.71-2.79 0-5.59.15-8.37-.06-5.56-.89-10.54-3.64-15.36-6.41q-4.14-2.5-8.29-5a37 37 0 0 0-10.64-3.89 19.83 19.83 0 0 0-12.41 3.11c-.51.23-1 .69-1.56.68-2-.64-3.72-1.89-5.7-2.55q-1.89-.63-3.81-1.14a19.9 19.9 0 0 0-11.89 2.09" style="fill:#f3f3f3" transform="translate(-418.08 -411.75)"></path><path d="M536.68 441.05c.6-.85 1.78-2.42 2.78-1.17 4.44 4.3 8.78 8.72 13.16 13.09a8.3 8.3 0 0 1-2.05 2.09c-1.68-1.71-3.4-3.38-5.07-5.11-.47-.41-.9-1-1.6-1-1.63-.06-3.27 0-4.91 0a9.8 9.8 0 0 0 2.28 2.73c2.19 2.12 4.29 4.33 6.45 6.48a26 26 0 0 1-2.1 1.73c-3.6-3.5-7.11-7.09-10.67-10.63a15.5 15.5 0 0 1-3-3.16c3.12-.09 6.23.07 9.35-.08-1.3-1.89-3.25-3.16-4.62-4.97M514.15 500.83q26.22-26.24 52.45-52.46c3.49 3.62 7.11 7.11 10.65 10.7a1.13 1.13 0 0 1 .19 1.61 68.8 68.8 0 0 0-6.16 12.42 70 70 0 0 0-3.76 14.79c-.15 1.41-.07 2.82-.17 4.23-.35 2.73.11 5.46.15 8.19a90.7 90.7 0 0 0 3.68 15.62c1.45 3.46 3.11 6.82 4.77 10.19 1.29 2.7 3.15 5.06 4.66 7.63.77 1.35 1.91 2.45 2.63 3.82a17 17 0 0 1-.81 3.5 43.4 43.4 0 0 1-3.95 8.64 36.8 36.8 0 0 1-5.59 7.07 28.7 28.7 0 0 1-4.35 3.35c-5.2 3.85-11.33 6.08-17.29 8.44q-5.57 1.76-11 3.85c-3.53 1.59-7.3 2.57-10.8 4.22a102 102 0 0 0-17.32 9.28c-3-1.24-5.41-3.38-8.29-4.75-4.94-2.33-9.83-4.75-14.93-6.7-8.25-2.89-16.49-5.83-24.56-9.19-3-1.84-6.51-3-9.25-5.35 10.23-10.4 20.63-20.63 30.92-31q9.09-9.09 18.19-18.17a54.5 54.5 0 0 1 6-6.24 39 39 0 0 0 3.94-3.69m12.76 9.64v13.78a1.43 1.43 0 0 0 1.1 1.48 10.2 10.2 0 0 0 7.11-.46c.73-.21.49-1.1.56-1.68-.06-5.19 0-10.38 0-15.58-3.07.12-6.25.65-8.77 2.46m11.15-2.24c-.56 3.48.13 7 0 10.45.06 1.86-.47 3.73-.07 5.57.06 1.23 1.57 1.32 2.5 1.56 2 .09 4.21.43 6.08-.56a42.6 42.6 0 0 0 .23-6.57 64 64 0 0 0-.25-8.25 10.3 10.3 0 0 0-3.23-1.59 13 13 0 0 0-5.26-.62Zm-21.46 10.41c-2.67 3.87-4.59 8.48-4.46 13.24 1-.1 2.19.2 3.1-.26 1-1.52 1.73-3.3 3.16-4.51a13 13 0 0 1 6.06-2.41c.09-4.32 0-8.65 0-13a23.86 23.86 0 0 0-7.86 6.94m32.4-4.86c.07 3.49-.12 7 .08 10.46 1.5.94 3.46.8 4.92 1.86a14.4 14.4 0 0 1 4.41 5.72 4.68 4.68 0 0 0 3.09-.11 19.2 19.2 0 0 0-1.56-7.81 20 20 0 0 0-4.13-6.64c-1.85-1.82-3.61-3.87-6-5-1.04-.44-.75.95-.81 1.52m-27.28 13.49c-1.91.9-4.07 2.46-3.94 4.83h37.89c0-.7.16-1.54-.4-2.09a9 9 0 0 0-3.94-3 10.73 10.73 0 0 0-6.28.57c-2.64 1-5.31-.21-7.89-.71-2.82.13-5.63 1.75-8.46.75a9.8 9.8 0 0 0-6.99-.35Zm-9.52 6.91c-.3 4.12 1.28 8.08 3.19 11.64a26.3 26.3 0 0 0 3.37 4.28 17 17 0 0 0 5.73 4.56v-13c-2.42-.55-5.08-1.1-6.85-3-1.09-1.12-1.46-2.7-2.39-3.92-.86-.74-2.06-.38-3.07-.56Zm5.56 0a4.18 4.18 0 0 0 1.44 3.22c1.57 1.7 4 2.13 6.17 2.34 1.87-.45 3.61-1.53 5.59-1.4 2.05-.1 3.93.92 5.94 1.08 2-.13 3.89-1.16 5.94-1.07 1.8-.1 3.38.84 5 1.38a7.56 7.56 0 0 0 4.59-1c1.63-1 3.49-2.4 3.27-4.52-12.63.05-25.3.11-37.96 0Zm40.29 1a13.7 13.7 0 0 1-3.52 4.57 14.6 14.6 0 0 1-5.54 1.86v13.05a9 9 0 0 0 2.73-1.61 43.5 43.5 0 0 0 5.3-5.53 23.5 23.5 0 0 0 3.94-8.21 40 40 0 0 0 .65-4.88c-1.18-.19-2.97-.61-3.61.77Zm-31.14 5.94V555a1.35 1.35 0 0 0 .9 1.37c2.43 1.21 5.19 1.35 7.84 1.63.07-5.52 0-11 .06-16.55a9.45 9.45 0 0 0-8.82-.31Zm10.9.46c.05 5.36 0 10.71 0 16.07a17.1 17.1 0 0 0 8.15-1.34 1.24 1.24 0 0 0 .87-1.31v-12.89a1.37 1.37 0 0 0-1.09-1.43 9.65 9.65 0 0 0-7.95.92ZM527.44 450.15c.44-.42.88-1.09 1.59-.89a16.5 16.5 0 0 1 1.46 1.58c-1.1 1.3-2.44 2.38-3.52 3.69-.41.56.36 1 .64 1.4.71.6 1.28 1.61 2.23 1.79 1.45-.87 2.37-2.43 3.74-3.44 0 1.25.06 2.5 0 3.75q-.945.915-1.8 1.92c1.3 1.45 2.68 2.82 4.07 4.18.34.34.94.86 1.37.34 1.22-1.09 2.31-2.3 3.5-3.42a10.6 10.6 0 0 1 1.68 1.74c0 .7-.64 1.13-1 1.61-1.33 1.24-2.55 2.58-3.86 3.84a.89.89 0 0 1-1.32.12q-6.64-6.71-13.37-13.36c1.38-1.72 3.06-3.22 4.59-4.85M519.75 457.83a.82.82 0 0 1 1.32.4c3.26 5.39 6.89 10.53 10.35 15.79-.16.82-1 1.37-1.58 1.87-1.71-.82-3.14-2.11-4.77-3.05q-5.35-3.59-10.76-7.08a16 16 0 0 0-1.54-.8 17.7 17.7 0 0 1 2.07-2.09c2.64 1.62 5.28 3.23 7.79 5a20 20 0 0 0 2.35 1.42c-2-3.2-4.27-6.17-6.28-9.34-.7-.86.46-1.59 1.05-2.12M508.77 468.95a4.61 4.61 0 0 1 4.68.42 45 45 0 0 1 4.91 4.57c1.69 1.73 3.66 3.34 4.61 5.62.65 2-.67 4-2.15 5.21-1.14.85-2.68 1.57-4.08 1-2.31-.75-3.58-3-5.33-4.48a26.5 26.5 0 0 1-5.38-5.51 4.53 4.53 0 0 1 .35-4.73 6.7 6.7 0 0 1 2.39-2.1m1 2.61a2.16 2.16 0 0 0-1.17 3c.95 1.41 2.55 2.16 3.64 3.43a35 35 0 0 0 4.7 4.73 2.27 2.27 0 0 0 3.37-2.08c.05-.63-.49-1-.86-1.47-2.23-2.2-4.43-4.43-6.65-6.64-.8-.77-1.97-1.69-3.05-.97ZM498.87 478.77c.13-.91 1.11-1.35 1.67-2 3.28 3 6.25 6.27 9.48 9.3a40 40 0 0 1 4.85 4.62c-.64.53-1.14 1.57-2 1.65-2.47-1.94-4.67-4.18-6.95-6.33-1.41-.33-1.87 1.53-2.87 2.14 1.81 1.45 3.32 3.24 5 4.82.76.81 1.89 1.51 1.86 2.76a9 9 0 0 0-1.72 1.34c-5-4.37-9.27-9.45-14.17-13.89.73-.59 1.26-1.72 2.26-1.78 1.83 1.24 3 3.25 4.73 4.61.89.15 1.41-.73 2-1.26.24-.34.83-.73.49-1.2-1.43-1.71-3.32-2.98-4.63-4.78M489.82 488.13a4.92 4.92 0 0 1 4.73 1.24 107 107 0 0 1 7.72 8 4.45 4.45 0 0 1 .8 4.12c-.79 1.81-2.43 3-3.73 4.47a.87.87 0 0 1-1.4-.09c-4-4-8-8.06-12.08-12-.34-.45-1.13-.88-.84-1.54a27 27 0 0 1 2.05-2.13 6.9 6.9 0 0 1 2.75-2.07m-1.15 4.32c3.34 3.43 6.76 6.78 10.14 10.17.83-.81 2.11-1.82 1.49-3.13-1-1.6-2.52-2.72-3.79-4.07a61 61 0 0 0-4.59-4.46c-1.37-.6-2.48.49-3.25 1.49M479.63 497.39c.77-.53 1.35-1.48 2.31-1.66a9.5 9.5 0 0 1 1.45 1.28c3.92 4 7.94 7.91 11.87 11.9.79.92-.23 1.95-.94 2.52s-1.26-.18-1.65-.62c-1.67-1.89-3.2-4-5.26-5.49-1.92-.14-3.84 0-5.76-.06 1.05 1.44 2.53 2.48 3.63 3.88 1.61 2.09 3.68 3.77 5.44 5.72a12 12 0 0 1-2 1.85c-2.51-2.67-5.33-5.07-7.61-8-2-2-3.94-4-6-5.91 3.08-.72 6.29-.16 9.42-.38-1.53-1.79-3.29-3.32-4.9-5.03M469.83 507.46c.64-.55 1.12-1.55 2-1.63a26 26 0 0 1 3.47 3.47 61 61 0 0 0 4.59 4.81c1.92 1.89 3.78 3.84 5.74 5.68a10.7 10.7 0 0 1-1.91 1.92c-3.48-3.13-6.6-6.61-10-9.85-1.42-1.32-2.55-2.96-3.89-4.4M460.84 516.9c1.76-2 3.68-3.89 5.58-5.76 1-.14 1.57.92 2.13 1.56-1.08 1.54-2.69 2.62-3.79 4.15.88.82 1.61 1.78 2.51 2.58a.77.77 0 0 0 1.09-.06 26.6 26.6 0 0 1 3.25-3 17 17 0 0 1 0 3.31 10 10 0 0 1-1.88 2.08c1.43 1.5 2.87 3 4.38 4.42a.84.84 0 0 0 1.23.14c1.16-1.11 2.23-2.32 3.47-3.35a24 24 0 0 0 2 1.78c-1.7 1.72-3.47 3.36-5.14 5.1-.41.5-1.22 1-1.72.3-2.3-2.26-4.58-4.53-6.79-6.87-2.16-2.04-4.31-4.13-6.32-6.38M454.52 523.11c.71 0 1.62 1.06 1.77 1.8-.74 1.48-2.66 2.21-3.14 3.91a9.7 9.7 0 0 0 2.43 3c1.94 1.91 3.8 3.89 5.76 5.78a2.08 2.08 0 0 0 2.89 0c.84-.64 1.51-1.48 2.38-2.08a2.24 2.24 0 0 1 1.71 1.64c-1.49 1.69-3.17 3.69-5.55 4-2.27-.11-3.94-1.9-5.42-3.44-1.77-1.85-3.62-3.6-5.41-5.43a4.84 4.84 0 0 1-.78-5.62 18.5 18.5 0 0 1 3.36-3.56M444 533.47a14.6 14.6 0 0 1 2.14-2.1 20 20 0 0 0 1.92 2c-1.31 1.33-2.83 2.44-4.07 3.82a15.3 15.3 0 0 0 3.06 3c1.7-.5 2.49-2.51 4-3.4v3.48c-.63.67-1.58 1.19-1.82 2.14a10.7 10.7 0 0 0 2 2.15c1.59 1.65 3.25 3.23 4.8 4.92-.61.62-1.1 1.47-2 1.71a34 34 0 0 1-3-2.92c-3.63-3.55-7.14-7.22-10.82-10.71 1.15-1.5 2.62-2.67 3.79-4.09" style="fill:#f3f3f3" transform="translate(-418.08 -411.75)"></path><path d="M494.42 412.25a31.2 31.2 0 0 1 14.4.85c1.47.36 3 1.33 4.55.55a33 33 0 0 1 7.08-1.66c4.15-.65 8.34 0 12.39.94 8.35 2.28 15.35 7.57 22.8 11.74 2 .87 3.86 2.09 6 2.31a9.4 9.4 0 0 0 4.55.43 9.7 9.7 0 0 1 3.16-.54c1.68.09 3.24-.76 4.92-.7a12 12 0 0 1 1.91 1.75l27.63 27.62a20 20 0 0 1 1.84 1.92c.1 1.19-1 2-1.62 2.86-4.11 5.36-8.68 10.46-11.8 16.5a33.8 33.8 0 0 0-3.36 10c-.84 3.21-.44 6.57-.44 9.85a60 60 0 0 0 1.5 7.09 65.7 65.7 0 0 0 5 12.07 151 151 0 0 0 10.65 16.3c.6.63.2 1.51.08 2.25-.48 1.9-.75 3.84-1.15 5.76-.44 3-1.76 5.88-2.17 8.92l-.16-.62A54.66 54.66 0 0 1 582 576.37c-10.93 8-24.06 12-36.66 16.59-6.12 2.38-12.28 4.75-17.92 8.16-5.5 3.15-10.2 7.44-15.32 11.13-3.74-2.17-6.91-5.16-10.42-7.66-9.64-7.09-21.13-10.86-32.27-14.86a131 131 0 0 1-20.56-8.86A63.6 63.6 0 0 1 435 570.59a56.65 56.65 0 0 1-13.15-21.21 68.7 68.7 0 0 1-3.05-11.85 16.4 16.4 0 0 1-.63-5.24 38 38 0 0 1 2.49-3.6 102 102 0 0 0 10.63-17.8 83 83 0 0 0 3.33-10.07c.1-1.77.82-3.45.76-5.23 0-2.33.1-4.67-.08-7a35 35 0 0 1-.67-3.49 43.7 43.7 0 0 0-8.93-17.1c-2.34-3.16-4.87-6.16-7.23-9.3a1.15 1.15 0 0 1 0-1.74q14.9-14.86 29.76-29.74a4.9 4.9 0 0 1 1.22-1.05c1.67 0 3.24.78 4.92.7s3 .77 4.54.68 3-.65 4.46-.79a55 55 0 0 0 10.43-5.48c6.46-3.83 13.06-7.96 20.62-9.03m-3.19 7c-9.95 3.21-17.66 11.06-27.78 13.87a75 75 0 0 1-9.08.06 6.2 6.2 0 0 1-2.5-.71c-8.45 8.13-16.54 16.64-25 24.76a4.2 4.2 0 0 0-.75.95c.06.79.73 1.34 1.17 1.93 5.5 6.67 10.78 13.92 12.94 22.43.88 2.28.86 4.75 1.34 7.12.09 2.45 0 4.9 0 7.35-.1-.34-.2-.69-.29-1 .13 5.19-1.86 10.09-3.38 15a101.9 101.9 0 0 1-12.58 21.69 6 6 0 0 0-.86 1.42c-.13 2.09.76 4.06 1.1 6.09.21 1.6 1 3.12.66 4.77.08-.48.15-1 .23-1.44a43.8 43.8 0 0 0 2.9 8.3 47.7 47.7 0 0 0 10.17 14.65 57.7 57.7 0 0 0 16.2 11.15 177 177 0 0 0 19.39 7.71c11.25 4 22.71 8.28 32.12 15.85a42.4 42.4 0 0 0 4.88 3.44c3.29-2.5 6.48-5.14 10-7.38 7.56-4.78 15.92-8.1 24.32-11.09 11.66-4.2 23.8-8.1 33.65-15.91a49.9 49.9 0 0 0 17.16-25.94 20 20 0 0 0 1-3.53c.14-2.27 1.32-4.38 1.14-6.68a29 29 0 0 0-2.48-3.62 97 97 0 0 1-11.16-20c-.76-2.52-1.66-5-2.27-7.56-.79-2.15-.66-4.48-1.16-6.7a45 45 0 0 1-.12-4.75c-.1-1.9.51-3.72.64-5.6 0-1.71.85-3.25 1.22-4.89s1.28-2.91 1.4-4.5l.13.62a34.3 34.3 0 0 1 3.65-7.08 104 104 0 0 1 6.47-9.03c.69-.93 1.68-1.72 2-2.88-3.91-4.1-8-8-12-12.06-4.6-4.53-9.09-9.19-13.77-13.63a6.2 6.2 0 0 1-2.49.7c-2.8.11-5.62.15-8.42 0a7.5 7.5 0 0 1-2.11-.53c-10.12-3.3-17.94-11.48-28.39-14-2.91-.93-6-.57-9-.61-2-.09-3.89.77-5.87 1a38 38 0 0 1-3.56 1.6 43.5 43.5 0 0 0-8.4-2.56c-2.33-.15-4.66-.11-7-.07a23.4 23.4 0 0 0-5.46 1.28Z" style="fill:#0a0a0a" transform="translate(-418.08 -411.75)"></path><path d="M490.69 429.08a19.9 19.9 0 0 1 11.89-2c1.28.33 2.55.72 3.81 1.14 2 .66 3.71 1.91 5.7 2.55.58 0 1-.45 1.56-.68a19.83 19.83 0 0 1 12.42-3.12 37 37 0 0 1 10.64 3.89q4.15 2.48 8.29 5c4.81 2.77 9.8 5.52 15.36 6.41 2.79.2 5.58.06 8.37.06.53-.07.87.41 1.23.71 5.16 5.21 10.38 10.37 15.56 15.57.61.41 0 1-.25 1.47a92 92 0 0 0-7.11 11.42 51.5 51.5 0 0 0-4.34 13.69c-.1 3-1 6-.63 9.1.51 3.62.5 7.32 1.59 10.85 1.79 8.2 5.71 15.71 9.86 22.94 1.48 2.66 3.38 5.06 5 7.66.41.51.2 1.16.11 1.74a52.8 52.8 0 0 1-5.53 15c-3.24 5.64-8.21 10.09-13.61 13.63a56 56 0 0 1-6.56 3.65 173 173 0 0 1-18.59 7.29c-5.75 2-11.45 4.21-17 6.72a112 112 0 0 0-15.49 9c-.76.75-1.65.05-2.38-.35-3.45-2.07-6.71-4.45-10.35-6.2-2.17-1.06-4.31-2.17-6.49-3.2-7.15-3.21-14.58-5.72-22-8.22a139 139 0 0 1-14.23-6.23 64 64 0 0 1-7.84-4.84 41.5 41.5 0 0 1-13.89-20.1 33.4 33.4 0 0 1-1.8-7.33c1.5-2.58 3.39-4.93 4.83-7.55 3.39-5.89 6.79-11.85 8.85-18.35 1-3.79 2.24-7.58 2.51-11.52a59 59 0 0 0-.26-14.53 55.4 55.4 0 0 0-8.3-19.83 34 34 0 0 0-3.73-5.24 27 27 0 0 1 2.9-3.08q5.93-5.95 11.89-11.87a10.2 10.2 0 0 1 2.1-1.92c3.08-.08 6.2.2 9.27-.15a36.8 36.8 0 0 0 7.78-2.58c2.55-1.27 5.15-2.47 7.57-4a107 107 0 0 1 11.29-6.6m46 12c1.37 1.8 3.34 3.08 4.6 5-3.12.15-6.23 0-9.35.08a15.5 15.5 0 0 0 3 3.16c3.56 3.54 7.07 7.13 10.67 10.63a26 26 0 0 0 2.1-1.73c-2.16-2.15-4.27-4.36-6.45-6.48A9.8 9.8 0 0 1 539 449c1.63-.07 3.27-.1 4.91 0 .71 0 1.13.6 1.6 1 1.66 1.72 3.38 3.4 5.07 5.11a8.3 8.3 0 0 0 2.05-2.09c-4.38-4.37-8.71-8.78-13.16-13.09-1.01-1.3-2.19.27-2.79 1.12Zm-22.52 59.78a39 39 0 0 1-4 3.72 54.5 54.5 0 0 0-6 6.24Q495.09 519.88 486 529c-10.29 10.35-20.69 20.57-30.92 31 2.75 2.32 6.21 3.5 9.25 5.35 8.07 3.36 16.31 6.3 24.56 9.19 5.1 1.95 10 4.38 14.93 6.7 2.89 1.37 5.34 3.51 8.29 4.75a102 102 0 0 1 17.32-9.28c3.5-1.65 7.27-2.64 10.8-4.22q5.45-2.1 11-3.85c6-2.36 12.09-4.6 17.29-8.44a28.7 28.7 0 0 0 4.35-3.35 36.8 36.8 0 0 0 5.59-7.07 43.4 43.4 0 0 0 3.95-8.64 17 17 0 0 0 .81-3.5c-.72-1.38-1.86-2.48-2.63-3.82-1.51-2.57-3.37-4.93-4.66-7.63-1.65-3.37-3.32-6.73-4.77-10.19a90.7 90.7 0 0 1-3.68-15.62c0-2.73-.5-5.46-.15-8.19.1-1.41 0-2.82.17-4.23a70 70 0 0 1 3.76-14.79 68.8 68.8 0 0 1 6.16-12.42 1.13 1.13 0 0 0-.19-1.61c-3.53-3.58-7.16-7.08-10.65-10.7q-26.16 26.2-52.43 52.39Zm13.29-50.69c-1.53 1.63-3.21 3.13-4.64 4.86q6.71 6.66 13.37 13.36a.89.89 0 0 0 1.32-.12c1.31-1.26 2.53-2.6 3.86-3.84.41-.48 1.07-.91 1-1.61a10.6 10.6 0 0 0-1.68-1.74c-1.19 1.12-2.29 2.33-3.5 3.42-.43.52-1 0-1.37-.34-1.39-1.36-2.77-2.73-4.07-4.18.57-.66 1.17-1.31 1.8-1.92.05-1.25 0-2.5 0-3.75-1.37 1-2.29 2.57-3.74 3.44-1-.18-1.52-1.19-2.23-1.79-.28-.4-1.06-.84-.64-1.4 1.08-1.31 2.42-2.39 3.52-3.69a16.5 16.5 0 0 0-1.46-1.58c-.68-.23-1.11.44-1.56.86Zm-7.69 7.68c-.59.53-1.74 1.27-1.06 2.16 2 3.17 4.32 6.14 6.28 9.34a20 20 0 0 1-2.35-1.42c-2.5-1.82-5.15-3.43-7.79-5a17.7 17.7 0 0 0-2.07 2.09 16 16 0 0 1 1.54.8q5.41 3.5 10.76 7.08c1.64.94 3.07 2.23 4.77 3.05.61-.51 1.42-1.06 1.58-1.87-3.45-5.26-7.09-10.4-10.35-15.79a.82.82 0 0 0-1.33-.46Zm-11 11.12a6.7 6.7 0 0 0-2.4 2.06 4.53 4.53 0 0 0-.35 4.73 26.5 26.5 0 0 0 5.38 5.51c1.75 1.51 3 3.73 5.33 4.48 1.41.62 2.95-.1 4.08-1 1.48-1.23 2.8-3.22 2.15-5.21-1-2.28-2.92-3.89-4.61-5.62a45 45 0 0 0-4.91-4.57 4.61 4.61 0 0 0-4.67-.4Zm-9.9 9.82c1.31 1.8 3.2 3.08 4.59 4.8.34.47-.25.85-.49 1.2-.56.52-1.08 1.41-2 1.26-1.73-1.36-2.91-3.37-4.73-4.61-1 .06-1.53 1.19-2.26 1.78 4.91 4.44 9.21 9.52 14.17 13.89a9 9 0 0 1 1.72-1.34c0-1.25-1.1-2-1.86-2.76-1.69-1.59-3.2-3.37-5-4.82 1-.61 1.46-2.46 2.87-2.14 2.27 2.15 4.48 4.39 6.95 6.33.88-.08 1.38-1.11 2-1.65a40 40 0 0 0-4.85-4.62c-3.23-3-6.2-6.34-9.48-9.3-.5.61-1.5 1.05-1.63 1.96Zm-9.06 9.36a6.9 6.9 0 0 0-2.76 2.05 27 27 0 0 0-2.05 2.13c-.29.66.5 1.09.84 1.54 4.06 4 8 8 12.08 12a.87.87 0 0 0 1.4.09c1.3-1.43 2.94-2.66 3.73-4.47a4.45 4.45 0 0 0-.8-4.12 107 107 0 0 0-7.72-8 4.92 4.92 0 0 0-4.71-1.24Zm-10.18 9.26c1.6 1.71 3.41 3.24 4.88 5.07-3.13.22-6.34-.34-9.42.38 2 1.92 4 3.9 6 5.91 2.28 2.88 5.09 5.28 7.61 8a12 12 0 0 0 2-1.85c-1.77-2-3.84-3.63-5.44-5.72-1.1-1.4-2.57-2.44-3.63-3.88 1.92.07 3.84-.08 5.76.06 2.06 1.49 3.59 3.6 5.26 5.49.4.44 1 1.08 1.65.62s1.73-1.6.94-2.52c-3.93-4-7.94-7.9-11.87-11.9a9.5 9.5 0 0 0-1.45-1.28c-.92.12-1.51 1.06-2.29 1.6Zm-9.8 10.07c1.34 1.44 2.46 3.08 3.94 4.4 3.38 3.23 6.51 6.72 10 9.85a10.7 10.7 0 0 0 1.91-1.92c-2-1.85-3.82-3.79-5.74-5.68a61 61 0 0 1-4.59-4.81 26 26 0 0 0-3.47-3.47c-.88.06-1.4 1.06-2.05 1.61Zm-9 9.44c2 2.25 4.18 4.34 6.37 6.41 2.21 2.34 4.49 4.62 6.79 6.87.5.65 1.31.2 1.72-.3 1.67-1.74 3.45-3.38 5.14-5.1a24 24 0 0 1-2-1.78c-1.24 1-2.31 2.24-3.47 3.35a.84.84 0 0 1-1.23-.14c-1.51-1.42-2.95-2.92-4.38-4.42a10 10 0 0 0 1.88-2.08 17 17 0 0 0 0-3.31 26.6 26.6 0 0 0-3.25 3 .77.77 0 0 1-1.09.06c-.91-.79-1.63-1.76-2.51-2.58 1.1-1.53 2.71-2.6 3.79-4.15-.55-.64-1.15-1.7-2.13-1.56-1.94 1.81-3.86 3.7-5.62 5.71Zm-6.31 6.21a18.5 18.5 0 0 0-3.37 3.57 4.84 4.84 0 0 0 .78 5.62c1.79 1.82 3.64 3.58 5.41 5.43 1.48 1.54 3.15 3.33 5.42 3.44 2.38-.31 4.05-2.31 5.55-4a2.24 2.24 0 0 0-1.71-1.64c-.87.6-1.54 1.44-2.38 2.08a2.08 2.08 0 0 1-2.89 0c-2-1.89-3.82-3.88-5.76-5.78a9.7 9.7 0 0 1-2.43-3c.48-1.7 2.39-2.43 3.14-3.91-.14-.78-1.05-1.84-1.76-1.83ZM444 533.47c-1.19 1.43-2.66 2.59-3.81 4.06 3.69 3.49 7.2 7.16 10.82 10.71a34 34 0 0 0 3 2.92c.89-.23 1.38-1.09 2-1.71-1.55-1.69-3.2-3.28-4.8-4.92a10.7 10.7 0 0 1-2-2.15c.24-.94 1.19-1.46 1.82-2.14v-3.48c-1.53.89-2.33 2.91-4 3.4a15.3 15.3 0 0 1-3.06-3c1.25-1.38 2.77-2.5 4.07-3.82a20 20 0 0 1-1.92-2 14.6 14.6 0 0 0-2.12 2.13" style="fill:#27579c" transform="translate(-418.08 -411.75)" data-source="https://football-logos.cc"></path><path d="M509.75 471.56c1.08-.71 2.26.21 3 .94 2.21 2.21 4.42 4.44 6.65 6.64.37.42.91.84.86 1.47a2.27 2.27 0 0 1-3.37 2.08 35 35 0 0 1-4.7-4.73c-1.09-1.27-2.7-2-3.64-3.43a2.16 2.16 0 0 1 1.2-2.97M488.67 492.45c.77-1 1.88-2.09 3.25-1.49a61 61 0 0 1 4.59 4.46c1.27 1.35 2.83 2.46 3.79 4.07.62 1.31-.66 2.32-1.49 3.13-3.38-3.39-6.81-6.74-10.14-10.17" style="fill:#27579c" transform="translate(-418.08 -411.75)"></path><path d="M526.91 510.47c2.51-1.81 5.7-2.34 8.72-2.45.08 5.19 0 10.38 0 15.58-.07.57.17 1.47-.56 1.68a10.2 10.2 0 0 1-7.11.46 1.43 1.43 0 0 1-1.1-1.48c.03-4.6.03-9.2.05-13.79M538.06 508.22a13 13 0 0 1 5.25.62 10.3 10.3 0 0 1 3.23 1.59 64 64 0 0 1 .25 8.25 42.6 42.6 0 0 1-.23 6.57c-1.87 1-4.06.65-6.08.56-.93-.24-2.44-.34-2.5-1.56-.39-1.85.13-3.71.07-5.57.14-3.49-.55-6.98.01-10.46M516.6 518.64a23.86 23.86 0 0 1 7.89-6.92c0 4.33.06 8.66 0 13a13 13 0 0 0-6.06 2.41c-1.43 1.21-2.15 3-3.16 4.51-.91.46-2.09.15-3.1.26-.17-4.79 1.76-9.39 4.43-13.26M549 513.78c.07-.57-.22-2 .8-1.51 2.39 1.12 4.15 3.17 6 5a20 20 0 0 1 4.13 6.64 19.2 19.2 0 0 1 1.56 7.81 4.68 4.68 0 0 1-3.09.11 14.4 14.4 0 0 0-4.4-5.73c-1.46-1.06-3.42-.92-4.92-1.86-.21-3.48-.03-6.97-.08-10.46" style="fill:#ba9f31" transform="translate(-418.08 -411.75)"></path><path d="M521.71 527.27a9.8 9.8 0 0 1 7 .37c2.84 1 5.65-.62 8.46-.75 2.58.49 5.25 1.67 7.89.71a10.73 10.73 0 0 1 6.28-.57 9 9 0 0 1 3.94 3c.56.55.37 1.39.4 2.09h-37.89c-.16-2.38 2.01-3.95 3.92-4.85M512.18 534.18c1 .18 2.21-.16 3.07.53.93 1.22 1.3 2.8 2.39 3.92 1.77 1.87 4.44 2.42 6.85 3v13a17 17 0 0 1-5.73-4.56 26.3 26.3 0 0 1-3.37-4.28c-1.93-3.54-3.51-7.49-3.21-11.61M517.74 534.21c12.66.11 25.33 0 38 0 .21 2.13-1.64 3.56-3.27 4.52a7.56 7.56 0 0 1-4.59 1c-1.65-.54-3.24-1.48-5-1.38-2-.09-3.93.94-5.94 1.07-2-.16-3.89-1.19-5.94-1.08-2-.13-3.73 1-5.59 1.4-2.19-.22-4.6-.65-6.17-2.34a4.18 4.18 0 0 1-1.5-3.19" style="fill:#ba9f31" transform="translate(-418.08 -411.75)"></path><path d="M558 535.2c.6-1.37 2.39-1 3.57-.76a40 40 0 0 1-.65 4.88 23.5 23.5 0 0 1-3.94 8.21 43.5 43.5 0 0 1-5.3 5.53 9 9 0 0 1-2.73 1.61v-13.05a14.6 14.6 0 0 0 5.54-1.86 13.7 13.7 0 0 0 3.51-4.56M526.89 541.14a9.45 9.45 0 0 1 8.81.33c-.09 5.52 0 11-.06 16.55-2.65-.29-5.41-.42-7.84-1.63a1.35 1.35 0 0 1-.9-1.37c-.02-4.63.01-9.26-.01-13.88M537.79 541.6a9.65 9.65 0 0 1 7.94-.91 1.37 1.37 0 0 1 1.09 1.43v12.89a1.24 1.24 0 0 1-.87 1.31 17.1 17.1 0 0 1-8.15 1.34c.01-5.35.04-10.66-.01-16.06" style="fill:#ba9f31" transform="translate(-418.08 -411.75)" data-source="https://football-logos.cc"></path><!-- source: https://football-logos.cc --></svg>