<svg xmlns="http://www.w3.org/2000/svg" fill="none" viewBox="0 0 120 120"><!-- Source: https://football-logos.cc --><path fill="#fff" d="M60 119.519c32.872 0 59.519-26.648 59.519-59.519S92.872.481 60 .481.481 27.13.481 60s26.648 59.519 59.52 59.519" data-source="https://football-logos.cc"></path><path fill="#0093D0" d="M60 120c-8.1 0-15.958-1.587-23.355-4.715a60 60 0 0 1-19.071-12.859 60.4 60.4 0 0 1-7.327-8.88 60 60 0 0 1-5.532-10.192C1.586 75.958 0 68.1 0 60c0-8.1 1.587-15.958 4.715-23.355a60 60 0 0 1 5.533-10.192 60.4 60.4 0 0 1 7.326-8.88 60.4 60.4 0 0 1 8.88-7.325 60 60 0 0 1 10.191-5.533C44.042 1.586 51.9 0 60 0s15.957 1.587 23.355 4.715a60 60 0 0 1 10.192 5.533 60.343 60.343 0 0 1 16.205 16.206 60 60 0 0 1 5.533 10.191C118.414 44.042 120 51.9 120 60s-1.587 15.957-4.715 23.355a60 60 0 0 1-5.533 10.192 60.4 60.4 0 0 1-16.205 16.206 60 60 0 0 1-10.192 5.532C75.957 118.414 68.1 120 60 120M60 .963c-7.97 0-15.702 1.561-22.98 4.64a59 59 0 0 0-10.027 5.443 59.4 59.4 0 0 0-15.947 15.946A59 59 0 0 0 5.603 37.02C2.524 44.298.963 52.03.963 60S2.524 75.7 5.603 82.98a59 59 0 0 0 5.443 10.027 59.5 59.5 0 0 0 7.21 8.738 59.5 59.5 0 0 0 8.737 7.209 59 59 0 0 0 10.027 5.443c7.278 3.079 15.01 4.64 22.98 4.64s15.702-1.561 22.98-4.64a59 59 0 0 0 10.027-5.443 59.4 59.4 0 0 0 8.738-7.209 59.5 59.5 0 0 0 7.209-8.738 59 59 0 0 0 5.443-10.028c3.079-7.278 4.64-15.01 4.64-22.98s-1.561-15.7-4.64-22.979a59 59 0 0 0-5.443-10.028 59.4 59.4 0 0 0-15.947-15.946A59 59 0 0 0 82.98 5.603C75.702 2.524 67.97.963 60 .963"></path><path fill="#0093D0" d="M60 103.318c23.924 0 43.319-19.394 43.319-43.318S83.924 16.682 60 16.682 16.682 36.076 16.682 60 36.076 103.318 60 103.318"></path><path fill="#fff" fill-rule="evenodd" d="M68.305 72.535a64 64 0 0 0 2.368-4.45c-4.294 2.116-8.47 4.582-11.854 7.38-5.969 4.935-1.591 10.926 5.076 3.349 1.521-1.728 3.022-3.906 4.41-6.279m11.24-13.377c3.244-1.146 6.228-2.172 8.678-3.08l2.515 4.175c-3.163 1.009-7.867 2.566-12.942 4.64a72 72 0 0 1-1.64 4.229q-.712 1.68-1.49 3.33c-3.544 7.496-9.18 16.198-17.93 16.16-3.88-.016-7.635-2.148-7.5-7.913.209-8.843 13.056-14.925 19.992-17.7a206 206 0 0 1 4.254-1.643c.61-1.745 1.084-3.39 1.384-4.836-3.764 2.873-14.849 8.088-24.736 7.809-9.424-.264-15.597-5.575-15.5-12.265.179-12.235 17.193-18.95 27.815-18.45 8.483.4 19.178 5.438 18.877 15.422a63 63 0 0 1-1.777 10.121zm-17.84-19.527c-13.315.147-21.396 6.871-21.137 12.702.165 3.688 4.217 6.876 12.148 6.909 3.119.013 8.758-1.384 13.515-3.764 4.466-2.236 8.153-5.338 8.236-8.952.088-3.912-4.62-6.986-12.763-6.896" clip-rule="evenodd" data-source="https://football-logos.cc"></path><g fill="#0093D0"><path d="m12.853 91.315 8.184-6.328 2.18 2.82q.737.953 1.008 1.547.382.828.342 1.653a4.2 4.2 0 0 1-.649 2.05q-.603.978-1.697 1.825-.932.72-1.82 1.06-.89.338-1.624.363t-1.319-.171q-.583-.195-1.165-.66a7 7 0 0 1-1.156-1.207zm1.803.336 1.35 1.747q.627.81 1.133 1.153.507.345.992.406.683.088 1.5-.2.816-.288 1.743-1.004 1.284-.993 1.647-1.947t.132-1.739q-.17-.565-.916-1.53l-1.33-1.72zM23.633 96.685q1.63-1.994 3.623-2.247 1.992-.252 3.686 1.132 1.11.908 1.566 2.165.458 1.258.15 2.588t-1.29 2.531q-.998 1.218-2.274 1.777-1.278.56-2.584.317a5.14 5.14 0 0 1-2.348-1.095q-1.132-.925-1.575-2.199a4.54 4.54 0 0 1-.13-2.595 5.8 5.8 0 0 1 1.177-2.374zm1.079.91q-1.184 1.447-1.087 2.917.098 1.469 1.272 2.429 1.196.978 2.657.769 1.46-.209 2.725-1.755.8-.978 1.066-1.977a3.3 3.3 0 0 0-.043-1.922 3.4 3.4 0 0 0-1.1-1.569 3.5 3.5 0 0 0-2.568-.81q-1.443.11-2.922 1.917M31.294 108.747l4.644-9.243 6.683 3.357-.548 1.091-5.46-2.743-1.422 2.831 5.113 2.569-.544 1.084-5.114-2.569-1.58 3.147 5.674 2.85-.548 1.091zM44.134 114.163l2.465-8.784-3.282-.921.33-1.176 7.894 2.216-.33 1.175-3.294-.925-2.465 8.784zM51.75 115.838l1.4-10.249 1.356.185-1.4 10.249zM56.977 116.513l-.205-10.341 1.403-.028 5.594 8.012-.162-8.12 1.312-.026.206 10.342-1.404.028-5.594-8.02.162 8.127zM75.617 110.541l1.412.012q-.02 1.74-.895 2.865-.877 1.125-2.447 1.508-1.625.397-2.804-.017-1.18-.413-2.016-1.538a7 7 0 0 1-1.189-2.565q-.383-1.57-.068-2.885a4.23 4.23 0 0 1 1.275-2.191 5.1 5.1 0 0 1 2.288-1.201q1.509-.367 2.724.149 1.215.517 1.959 1.81l-1.234.628q-.617-1.011-1.404-1.35-.787-.338-1.795-.092-1.16.282-1.801 1.027a3 3 0 0 0-.73 1.758 6.2 6.2 0 0 0 .155 2.007q.313 1.281.92 2.147.606.865 1.51 1.146.903.28 1.822.057 1.117-.273 1.735-1.106t.583-2.168zM81.199 112.442l-4.56-9.285 1.23-.604 1.872 3.813 4.826-2.37-1.872-3.813 1.228-.603 4.56 9.285-1.23.603-2.148-4.376-4.827 2.369 2.15 4.377zM91.98 106.622l-6.389-8.135 5.883-4.62.754.96-4.806 3.775 1.956 2.492 4.5-3.535.75.955-4.5 3.534 2.175 2.769 4.994-3.921.754.96-6.071 4.767zM100.842 99.246l-8.057-6.487 1.292-1.605 7.24 2.686q1.01.377 1.502.575a75 75 0 0 1-.946-1.469l-4.053-6.442 1.155-1.435 8.057 6.488-.827 1.028-6.744-5.43 4.858 7.771-.774.962-8.736-3.192 6.859 5.523-.828 1.027z"></path></g><g fill="#0093D0" data-source="https://football-logos.cc"><path d="m15.42 47.697-9.674-3.66 1.266-3.35q.43-1.133.794-1.677a3.5 3.5 0 0 1 1.232-1.164 4.2 4.2 0 0 1 2.089-.525q1.15 0 2.444.489 1.102.417 1.855.997.754.581 1.158 1.196.405.615.543 1.218.138.6.046 1.344a7 7 0 0 1-.426 1.624zm-.655-1.719.785-2.075q.365-.963.393-1.576.03-.615-.171-1.062-.283-.63-.955-1.176-.673-.546-1.768-.96-1.518-.574-2.523-.382t-1.552.803q-.395.443-.828 1.59l-.772 2.042zM19.376 38.04l-8.653-5.667 4.117-6.288 1.021.669-3.363 5.136 2.65 1.736 3.15-4.81 1.016.665-3.15 4.81 2.945 1.93 3.496-5.339 1.021.669zM28.972 20.809l-.754-.951 3.446-2.74 2.384 3.008a7.8 7.8 0 0 1-.887 2.247 6.2 6.2 0 0 1-1.482 1.692q-1.2.952-2.586 1.218a4.32 4.32 0 0 1-2.653-.306q-1.267-.571-2.214-1.766a6.4 6.4 0 0 1-1.254-2.603q-.315-1.42.223-2.657.54-1.238 1.756-2.202.885-.7 1.823-.982.94-.28 1.749-.094.809.188 1.668.839l-.762 1.036q-.674-.474-1.227-.612-.552-.139-1.227.05-.675.186-1.29.676-.74.586-1.101 1.237-.36.651-.403 1.278-.041.627.122 1.21.285.998.981 1.877.86 1.084 1.813 1.517a3.05 3.05 0 0 0 1.95.218 4.3 4.3 0 0 0 1.804-.853q.7-.555 1.154-1.351.454-.798.557-1.374l-1.196-1.51zM36.648 20.288l-4.38-9.37 4.174-1.952q1.258-.59 2.032-.643a2.3 2.3 0 0 1 1.464.402q.69.456 1.052 1.23.465.996.137 1.984-.33.988-1.597 1.806.604.005.97.116.778.243 1.616.762l2.83 1.785-1.567.733-2.157-1.367a20 20 0 0 0-1.503-.871q-.563-.283-.925-.33a2.1 2.1 0 0 0-.685.016q-.234.055-.715.28l-1.445.675 1.946 4.161zm-1.202-5.818 2.678-1.252q.855-.4 1.254-.8.4-.402.47-.905a1.67 1.67 0 0 0-.143-.958 1.54 1.54 0 0 0-.996-.866q-.685-.201-1.732.288l-2.98 1.393zM45.064 16.39l1.62-10.969 1.446-.325 6.423 9.156-1.528.345-1.871-2.79-4.24.954-.426 3.308zm1.992-4.803 3.437-.774-1.688-2.556q-.77-1.164-1.19-1.931.025 1.015-.113 2.05z"></path><path d="m54.48 14.26 3.858-10.395 1.482-.018 4.386 10.288-1.567.02-1.252-3.117-4.346.056-1.101 3.148zm2.944-4.286 3.524-.045-1.122-2.85a28 28 0 0 1-.765-2.136 13 13 0 0 1-.534 1.983zM65.335 14.398l1.929-10.163 6.889 1.307-.228 1.2-5.537-1.051-.597 3.147 4.792.909-.227 1.2-4.793-.91-.875 4.617-1.352-.256M74.735 12.956l1.245.382q-.206.754-.08 1.341t.668 1.138 1.364.883q.73.295 1.375.305.646.01 1.071-.255.425-.266.605-.71.183-.453.056-.895-.126-.443-.638-.917-.327-.307-1.526-1.162t-1.618-1.35q-.544-.64-.667-1.31a2.35 2.35 0 0 1 .144-1.33q.294-.727.964-1.19.67-.465 1.597-.469a5 5 0 0 1 1.9.388q1.072.435 1.75 1.108.68.674.85 1.52a3.1 3.1 0 0 1-.138 1.702l-1.26-.403q.27-.948-.11-1.643-.382-.695-1.492-1.145-1.157-.467-1.856-.26-.7.209-.941.803-.21.518.03 1.002.233.483 1.646 1.462 1.412.978 1.886 1.474.685.727.846 1.48a2.56 2.56 0 0 1-.15 1.527q-.31.765-1.025 1.264t-1.691.54q-.976.043-2.009-.375-1.308-.528-2.038-1.266a3.3 3.3 0 0 1-.925-1.702 3.48 3.48 0 0 1 .169-1.937zM90.936 21.192l.94 1.062q-1.31 1.148-2.738 1.243t-2.767-.821q-1.387-.95-1.87-2.106t-.208-2.532a7 7 0 0 1 1.113-2.599q.913-1.333 2.104-1.975a4.24 4.24 0 0 1 2.49-.511 5.2 5.2 0 0 1 2.432.909q1.287.88 1.718 2.133.43 1.254-.033 2.671l-1.297-.503q.339-1.136.063-1.949t-1.136-1.402q-.99-.677-1.976-.66a3 3 0 0 0-1.8.628 6.2 6.2 0 0 0-1.39 1.454q-.747 1.088-.984 2.12-.236 1.03.16 1.893a3.4 3.4 0 0 0 1.182 1.399q.954.652 1.99.558t2.007-1.012M91.235 26.1l7.604-7.014.933 1.012-3.122 2.879 3.662 3.972 3.123-2.88.932 1.011-7.604 7.013-.932-1.011 3.584-3.305-3.663-3.972-3.584 3.305zM97.483 32.925l10.944-1.774.748 1.28-6.784 8.892-.791-1.353 2.093-2.627-2.193-3.753-3.28.595zm5.181.445 1.777 3.042 1.926-2.382a29 29 0 0 1 1.48-1.719q-.96.33-1.988.514l-3.196.545zM102.723 42.34l9.815-3.266 1.238 3.72q.326.982.405 1.531.121.767-.053 1.37-.175.604-.685 1.106a3.15 3.15 0 0 1-1.239.745q-1.252.416-2.386-.096-1.133-.512-1.829-2.604l-.842-2.53-3.99 1.328zm5.582-.408.849 2.55q.42 1.263 1.066 1.64.645.375 1.496.092.615-.205.95-.664a1.54 1.54 0 0 0 .305-1.017q-.023-.358-.318-1.246l-.839-2.523z"></path></g><!-- source: https://football-logos.cc --></svg>