<svg xmlns="http://www.w3.org/2000/svg" fill="none" class="logo logo--size-sm" viewBox="3.67 1.35 309.07 516.94"><!-- Source: https://football-logos.cc --><path fill="#fff" d="m112.827 1.352-2.512 1.708-.488 36.004-40.91 6.433-48.485 11.657a436 436 0 0 0-5.308 17.01c-3.175 10.954-6.525 22.512-8.671 36.298-1.47 9.446-1.753 16.224-2.319 29.78a541 541 0 0 0-.169 40.319c.862 12.882 1.62 24.99 1.415 24.994-.018 0-.264-.09-.264-.09 2.27 15.561 6.255 33.077 13.092 51.642 22.906 62.191 64.894 101.034 90.155 120.639l2.368 3.605-36.518 2.719-20.2 8.547-.39 123.698 17.482-6.765 21.367-4.857 13.893-.97 8.944.388 10.378 2.525 16.315 1.814 38.655 7.865 17.87 1.975h21.366l27.387-5.051 13.791-4.789V382.711l-4.661 1.749a56 56 0 0 1-14.893 8.229 56 56 0 0 1-18.711 3.424l-24.862.195-24.669-4.718 19.619-7.13 29.912-19.23 21.949-21.367 23.892-31.467 24.28-44.675 17.106-61.962 2.706-44.093-2.706-39.041-8.947-47.979-4.469-17.48-39.819-10.101-51.279-8.353-.194-35.545-43.295-.389h-31.789z" data-source="https://football-logos.cc"></path><path fill="#231F20" d="M245.156 401.04c-27.953 10.365-55.6 4.919-84.769-1.26v8.186c26.84 5.669 54.469 10.858 82.157 2.404v85.226c-27.796 9.367-55.367 3.508-84.502-2.679-17.95-3.81-36.265-7.698-54.731-7.698-10.44 0-20.932 1.241-31.429 4.447v-85.228c13.773-4.639 27.491-5.536 41.373-4.512v-7.981c-15.501-1.071-31.135.103-46.767 5.911l-2.611.969v102.171l5.394-2.002c28.687-10.658 57.056-4.623 87.109 1.757 17.95 3.81 36.264 7.698 54.736 7.698 12.227 0 24.528-1.704 36.823-6.271l2.611-.969v-102.17z"></path><path fill="#231F20" d="M121.47 458.42c.004.855-.311 1.549-.907 2.083-.648.53-1.37.752-2.158.674-.848-.084-1.549-.46-2.189-1.118-.604-.657-.912-1.412-.907-2.267v-30.24q-.006-1.282.907-2.111c.602-.553 1.332-.779 2.189-.696.833.088 1.555.467 2.158 1.14.603.676.908 1.44.907 2.295zm-3.065-42.65c-3.335-.342-6.171.652-8.505 2.914-2.349 2.225-3.54 5.046-3.533 8.379q-.003 15.12 0 30.241c-.007 3.32 1.182 6.168 3.533 8.633 2.32 2.467 5.139 3.837 8.505 4.184 3.315.336 6.15-.46 8.506-2.475 2.361-2.035 3.536-4.673 3.534-7.966v-30.24c.002-3.312-1.183-6.344-3.534-9.045-2.375-2.722-5.214-4.284-8.506-4.625M150.198 424.608c-2.127 1.85-3.189 4.491-3.189 7.908v7.537c0 1.875.938 4.075 2.814 6.617q2.564 3.441 7.317 7.61c.329.324.71.701 1.157 1.138q.659.65 1.127 1.349c.333.528.5 1.436.5 2.732v5.973c-.002 1.208-.158 2.034-.469 2.466-.23.308-.613.402-1.158.286a2.7 2.7 0 0 1-1.626-1.033c-.484-.666-.719-1.516-.719-2.562v-5.754q-.985-.21-1.97-.417-2.517-.533-5.035-1.057-.969-.201-1.938-.398v5.754c0 3.397 1.062 6.467 3.189 9.227 2.17 2.763 4.871 4.496 8.099 5.183 3.168.671 5.732.067 7.694-1.822 1.913-1.792 2.87-4.47 2.877-8.011v-7.568c.001-2.192-.758-4.433-2.283-6.751-1.402-2.125-3.445-4.329-6.13-6.63-1.252-.994-2.464-2.181-3.627-3.554q-.845-.993-.876-2.406v-6.036c-.009-1.019.241-1.772.719-2.254.37-.377.923-.495 1.626-.343q.84.178 1.158.777.469.883.469 2.663v5.723l1.938.411q2.533.533 5.067 1.055l1.939.395v-5.723q0-5.25-2.877-9.219c-1.958-2.7-4.522-4.383-7.694-5.057q-4.877-1.04-8.099 1.791M196.747 483.826c3.168.313 5.733-.674 7.691-2.868 1.92-2.097 2.881-4.946 2.877-8.487v-7.568c.009-2.187-.772-4.301-2.283-6.371-1.398-1.895-3.446-3.792-6.128-5.749q-1.876-1.254-3.627-3.132-.843-.905-.876-2.316V441.3c.002-1.021.237-1.796.719-2.329q.568-.629 1.627-.521.84.082 1.156.641c.308.549.469 1.419.469 2.607v5.7219999999999995q.97.086 1.939.161 2.53.193 5.065.303.968.041 1.939.069v-5.723c.001-3.503-.957-6.4-2.877-8.742-1.956-2.394-4.525-3.701-7.691-4.013-3.256-.316-5.957.495-8.1 2.533-2.127 1.989-3.19 4.678-3.19 8.097v7.536c-.002 1.876.944 4.037 2.814 6.453 1.709 2.18 4.151 4.535 7.318 6.972.338.289.723.621 1.158 1.011q.656.58 1.125 1.215c.332.493.502 1.383.5 2.672v5.974q.009 1.81-.469 2.522c-.236.334-.614.474-1.156.423a2.33 2.33 0 0 1-1.627-.857q-.73-.922-.719-2.485v-5.754q-.986-.111-1.97-.23a212 212 0 0 1-5.035-.675q-.969-.14-1.939-.29v5.754c.002 3.395 1.062 6.428 3.19 9.038 2.174 2.614 4.873 4.127 8.1 4.442"></path><path fill="#D51920" d="M27.193 65.49s-14.211 43.406-14.211 96.944c0 48.033 11.447 93.729 34.975 133.471V59.929C34.8 63.028 27.193 65.49 27.193 65.49M287.957 65.49s14.21 43.406 14.21 96.944c0 48.033-11.446 93.729-34.974 133.471V59.929c13.156 3.099 20.764 5.562 20.764 5.562M89.33 200.978c0-20.547 9.12-38.927 23.48-51.444V49.422a487 487 0 0 0-34.974 4.529v282.156c10.373 11.214 22.008 21.687 34.974 31.272V252.421c-14.36-12.517-23.48-30.897-23.48-51.443M202.339 49.422v100.052c14.401 12.518 23.546 30.924 23.546 51.504 0 20.578-9.145 38.986-23.546 51.504v114.897c12.968-9.585 24.602-20.058 34.975-31.272V53.951a487 487 0 0 0-34.975-4.53"></path><path fill="#231F20" d="M146.014 32.204h-24.369V12.839h70.685v19.365h-24.37v93.604h-21.946zM148.597 297.691v40.346h14.368q8.87-7.258 8.872-21.303-.002-5.965-2.341-11.295-2.337-5.327-5.566-7.748zm-21.783 104.404V278.324h43.736q10.968 4.845 17.346 14.849c4.247 6.675 6.373 14.443 6.373 23.322 0 8.872-2.208 17.081-6.612 24.609-4.418 7.534-10.923 12.859-19.53 15.977h-19.53v48.072zM157.601 259.566a58.75 58.75 0 0 1-27.736-6.93l.081.002c47.284 0 59.363-28.422 61.267-33.976 1.389-.986 5.326-3.252 9.474-.855 6.425 3.724 8.034 9.586 8.411 11.628-10.155 17.967-29.428 30.131-51.497 30.131m-46.742-22.983c.46.028.925.055 1.417.055 3.279 0 7.224-.714 11.317-3.061 4.714-2.702 6.197-6.934 6.577-10.193 4.37 1.544 11.711 2.737 19.808-1.907 9.244-5.304 10.891-14.493 10.43-19.848 2.469-1.643 8.998-4.974 16.584-.584 9.062 5.25 9.367 14.094 9.349 15.645-.977 3.369-11.393 34.148-65.044 30.366a59.7 59.7 0 0 1-10.438-10.473m15.499-86.302c-23.754 40.955-5.229 65.67-1.376 70.102.162 1.655.2 6.225-4.001 8.635-6.442 3.692-12.324 2.148-14.28 1.453a58.75 58.75 0 0 1-8.223-30.029c0-21.134 11.155-39.705 27.88-50.161m90.314 48.036c-23.719-41.018-54.391-37.23-60.141-36.093-1.519-.682-5.499-2.925-5.499-7.767 0-7.505 4.331-11.82 5.867-13.121.235-.003.467-.018.702-.018 31.889 0 57.946 25.38 59.071 56.999m-69.309 18.603c-9.097 5.207-16.904 1.032-18.228.242-2.436-2.546-23.822-27.035 6.353-71.537a58.6 58.6 0 0 1 14.038-3.741c-1.957 2.951-3.75 7.125-3.75 12.573 0 5.433 2.934 8.824 5.572 10.778-3.51 3.017-8.199 8.797-8.199 18.127 0 10.656 7.148 16.658 12.025 18.922.196 2.984-.189 10.262-7.811 14.636m43.84-4.24c-.852-4.552-3.503-11.506-11.579-16.182-9.217-5.34-18.004-2.161-22.407.925-2.682-1.312-8.812-5.266-8.812-14.061 0-10.454 7.469-15.149 8.843-15.926 2.98-.704 35.399-7.043 58.91 41.102a58.6 58.6 0 0 1-3.839 14.269c-1.573-3.173-4.285-6.815-8.999-9.547-4.701-2.725-9.107-1.888-12.117-.58" data-source="https://football-logos.cc"></path><mask id="a" width="315" height="522" x="0" y="0" maskUnits="userSpaceOnUse" style="mask-type:luminance"><path fill="#fff" d="M.2 521.23H315V.102H.2z"></path></mask><g mask="url(#a)"><mask id="b" width="315" height="522" x="0" y="0" maskUnits="userSpaceOnUse" style="mask-type:luminance"><path fill="#fff" d="M207.22.056h-99.31l.001 4.917.001 32.113c-44.998 4.17-84.07 16.062-84.473 16.186l-3.913 1.202-2.445.751-.788 2.435-1.26 3.894C14.427 63.424.2 108.004.2 162.433c0 57.327 15.043 108.64 44.713 152.512a256.4 256.4 0 0 0 60.007 62.493q.912.75 1.816 1.477a104 104 0 0 0-3.068-.046c-27.146 0-44.521 8.055-45.247 8.398l-4.508 2.128-2.818 1.33v130.023l6.93-3.112 11.088-4.98c.124-.054 15.823-6.83 35.058-6.83 14.495 0 30.649 3.443 47.751 7.088 19.182 4.089 39.014 8.316 59.194 8.316 26.615 0 44.147-8.111 44.88-8.457l4.514-2.126 2.822-1.328V378.657l-7.057 3.413-11.291 5.462c-.095.045-14.457 6.646-34.401 6.646-8.75 0-18.632-1.223-27.596-2.761 8.99-3.117 18.463-7.523 26.921-13.738 66.745-48.293 105.041-126.754 105.041-215.246 0-53.494-14.204-98.9-14.809-100.806l-1.232-3.886-.769-2.428-2.428-.771-3.884-1.234c-24.239-7.7-52.684-13.242-84.608-16.49l.001-31.845zm-4.916 4.917-.002 36.304c25.878 2.435 57.856 7.129 88.036 16.716l3.885 1.235 1.231 3.884c.595 1.878 14.579 46.589 14.579 99.321 0 86.896-37.571 163.919-103.036 211.284-14.934 10.974-33.391 16.012-45.457 18.27 12.211 2.946 32.404 7.107 49.043 7.107 21.315 0 36.413-7.074 36.542-7.136l11.291-5.462V506.2l-4.515 2.126c-.692.326-17.257 7.988-42.785 7.988-19.661 0-39.237-4.172-58.167-8.207-17.364-3.701-33.764-7.197-48.778-7.197-20.492 0-36.922 7.195-37.071 7.261l-11.09 4.98v-119.31l4.509-2.129c.686-.324 17.09-7.927 43.149-7.927 5.392 0 10.835.472 15.224.998v-2.692c-2.735-2.032-6.826-5.141-10.938-8.522-8.916-6.662-35.43-26.57-58.969-61.377-29.11-43.045-43.87-93.431-43.87-149.759 0-53.659 13.999-97.524 14.594-99.365l1.261-3.895 3.913-1.202c1.69-.52 42.545-12.74 87.946-16.376l-.002-36.622z"></path></mask><g mask="url(#b)"><path fill="url(#c)" d="M206.124 521.23v-.101h-2.831v-.101h-1.415v-.101h-1.415v-.101h-1.415v-.101h-1.416v-.101h-1.415v-.101h-1.011v-.101h-.91v-.101h-.91v-.101h-.909v-.102h-.91v-.101h-.91v-.101h-.91v-.101h-.91v-.101h-.707v-.101h-.708v-.101h-.708v-.101h-.707v-.101h-.708v-.101h-.708v-.101h-.707v-.102h-.708v-.101h-.707v-.101h-.708v-.101h-.708v-.101h-.606v-.101h-.506v-.101h-.606v-.101h-.607v-.101h-.606v-.101h-.607v-.101h-.607v-.102h-.606v-.101h-.506v-.101h-.606v-.101h-.607v-.101h-.606v-.101h-.506v-.101h-.606v-.101h-.506v-.101h-.505v-.101h-.506v-.101h-.606v-.102h-.506v-.101h-.505v-.101h-.505v-.101h-.506v-.101h-.606v-.101h-.506v-.101h-.505v-.101h-.506v-.101h-.505v-.101h-.506v-.101h-.505v-.102h-.506v-.101h-.505v-.101h-.506v-.101h-.505v-.101h-.506v-.101h-.404v-.101h-.505v-.101h-.506v-.101h-.505v-.101h-.506v-.102h-.505v-.101h-.506v-.101h-.404v-.101h-.505v-.101h-.506v-.101h-.505v-.101h-.405v-.101h-.505v-.101h-.506v-.101h-.404v-.101h-.506v-.102h-.505v-.101h-.505v-.101h-.405v-.101h-.505v-.101h-.506v-.101h-.404v-.101h-.506v-.101h-.505v-.101h-.505v-.101h-.405v-.101h-.505v-.102h-.506v-.101h-.404v-.101h-.506v-.101h-.505v-.101h-.506v-.101h-.404v-.101h-.505v-.101h-.506v-.101h-.404v-.101h-.506v-.101h-.505v-.102h-.506v-.101h-.505v-.101h-.505v-.101h-.506v-.101h-.404v-.101h-.506v-.101h-.505v-.101h-.506v-.101h-.505v-.101h-.506v-.101h-.505v-.102h-.505v-.101h-.506v-.101h-.505v-.101h-.506v-.101h-.505v-.101h-.506v-.101h-.606v-.101h-.506v-.101h-.505v-.101h-.506v-.101h-.505v-.102h-.607v-.101h-.505v-.101h-.607v-.101h-.606v-.101h-.506v-.101h-.606v-.101h-.607v-.101h-.505v-.101h-.607v-.101h-.606v-.101h-.607v-.102h-.607v-.101h-.707v-.101h-.607v-.101h-.707v-.101h-.708v-.101h-.607v-.101h-.707v-.101h-.708v-.101h-.707v-.101h-.809v-.101h-.91v-.102h-.809v-.101h-.809v-.101h-.909v-.101h-.809v-.101h-1.112v-.101h-1.314v-.101h-1.314v-.101h-1.315v-.101h-1.516v-.101h-2.628v-.101h-4.55v.101h-2.325v.101h-1.617v.101h-1.314v.101h-1.011v.101H94.72v.101H93.71v.101h-.708v.101h-.808v.101h-.708v.101h-.809v.102h-.606v.101h-.607v.101h-.606v.101h-.506v.101h-.606v.101h-.607v.101h-.505v.101h-.506v.101h-.505v.101h-.506v.101h-.505v.102h-.405v.101h-.404v.101h-.506v.101h-.404v.101h-.505v.101h-.405v.101h-.404v.101h-.404v.101h-.405v.101h-.404v.101h-.405v.102h-.404v.101h-.303v.101h-.405v.101h-.303v.101h-.404v.101h-.303v.101h-.405v.101h-.303v.101h-.404v.101h-.304v.101h-.303v.102h-.404v.101h-.304v.101h-.303v.101h-.303v.101h-.303v.101h-.304v.101h-.303v.101h-.303v.101h-.304v.101h-.303v.101h-.303v.102h-.304v.101h-.303v.101h-.202v.101h-.303v.101h-.303v.101h-.304v.101h-.202v.101h-.303v.101h-.202v.101h-.304v.101h-.303v.102h-.202v.101h-.202v.101h-.304v.101h-.202v.101h-.202v.101h-.202v.101h-.303v.101h-.203v.101h-.202v.101h-.202v.101h-.202v.102h-.303v.101h-.203v.101h-.202v.101h-.202v.101h-.303v.101h-.202v.101h-.203v.101h-.202v.101h-.202v.101h-.303v.101h-.203v.102h-.202v.101h-.202v.101h-.303v.101h-.202v.101h-.203v.101h-.202v.101h-.303v.101h-.202v.101h-.202v.101h-.203v.102h-.202v.101h-.303v.101h-.202v.101h-.202v.101h-.203v.101h-.303v.101h-.202v.101h-.202v.101h-.202v.101h-.203v.101h-.303v.102h-.202v.101h-.202v.101h-.202v.101h-.304v.101h-.202v.101h-.202v.101h-.202v.101h-.303v.101h-.203v.101h-.202v.101h-.202v.102h-.202v.101h-.303v.101h-.203v.101h-.202v.101h-.202v.101h-.303v.101h-.202v.101h-.203v.101h-.202v.101h-.202v.101h-.303v.102h-.203v.101h-.202v.101h-.202v.101h-.303v.101h-.202v.101h-.203v.101h-.202v.101h-.303v.101h-.202v.101h-.202v.101h-.203v.102h-.202v.101h-.303v.101h-.202v.101h-.202v.101h-.203v.101h-.303v.101h-.1V390.62h.201v-.101h.203v-.101h.202v-.101h.303v-.102h.202v-.101h.202v-.101h.203v-.101h.202v-.101h.202v-.101h.202v-.101h.202v-.101h.202v-.101h.304v-.101h.202v-.101h.202v-.102h.202v-.101h.203v-.101h.202v-.101h.202v-.101h.202v-.101h.303v-.101h.203v-.101h.202v-.101h.202v-.101h.202v-.101h.202v-.102h.202v-.101h.203v-.101h.202v-.101h.303v-.101h.202v-.101h.202v-.101h.203v-.101h.202v-.101h.202v-.101h.202v-.102h.303v-.101h.203v-.101h.202v-.101h.303v-.101h.202v-.101h.303v-.101h.203v-.101h.303v-.101h.202v-.101h.303v-.101h.304v-.102h.202v-.101h.303v-.101h.303v-.101h.203v-.101h.303v-.101h.303v-.101h.303v-.101h.304v-.101h.303v-.101h.303v-.101h.303v-.102H65v-.101h.303v-.101h.303v-.101h.304v-.101h.303v-.101h.303v-.101h.303v-.101h.405v-.101h.303v-.101h.303v-.101h.405v-.102h.303v-.101h.404v-.101h.304v-.101h.404v-.101h.303v-.101h.405v-.101h.404v-.101h.303v-.101h.405v-.101h.404v-.101h.404v-.102h.405v-.101h.404v-.101h.506v-.101h.404v-.101h.404v-.101h.405v-.101h.505v-.101h.506v-.101h.404v-.101h.505v-.101h.405v-.102h.505v-.101h.506v-.101h.606v-.101h.506v-.101h.505v-.101h.607v-.101h.505v-.101h.607v-.101h.606v-.101h.708v-.101h.606v-.102h.708v-.101h.607v-.101h.707v-.101h.81v-.101h.808v-.101h.809v-.101h.91v-.101h.808v-.101h1.112v-.101h1.213v-.101h1.112v-.102h1.315v-.101h1.82v-.101h1.92v-.101h3.336v-.101h4.347v.101h.809v-.101h-.102v-.101h-.202v-.101h-.101v-.101h-.101v-.101h-.101v-.101h-.202v-.101h-.101v-.102h-.101v-.101h-.101v-.101h-.102v-.101h-.202v-.101h-.101v-.101h-.101v-.101h-.101v-.101h-.202v-.101h-.101v-.101h-.101v-.102h-.203v-.101h-.101v-.101h-.101v-.101h-.202v-.101h-.101v-.101h-.101v-.101h-.202v-.101h-.101v-.101h-.101v-.101h-.203v-.101h-.101v-.102h-.101v-.101h-.202v-.101h-.101v-.101h-.101v-.101h-.202v-.101h-.101v-.101h-.102v-.101h-.202v-.101h-.101v-.101h-.101v-.101h-.202v-.102h-.101v-.101h-.101v-.101h-.101v-.101h-.203v-.101h-.101v-.101h-.101v-.101h-.202v-.101h-.101v-.101h-.101v-.101h-.202v-.101h-.101v-.102h-.102v-.101h-.1v-.101h-.203v-.101h-.1v-.101h-.102v-.101h-.202v-.101h-.101v-.101h-.101v-.101h-.101v-.101h-.203v-.101h-.1v-.102h-.102v-.101h-.202v-.101h-.101v-.101h-.101v-.101h-.101v-.101h-.202v-.101h-.102v-.101h-.1v-.101h-.102v-.101h-.202v-.101h-.101v-.102h-.101v-.101h-.101v-.101h-.202v-.101h-.101v-.101h-.102v-.101h-.1v-.101h-.203v-.101h-.1v-.101h-.102v-.101h-.101v-.101h-.202v-.102h-.101v-.101h-.101v-.101h-.102v-.101h-.1v-.101h-.203v-.101h-.1v-.101h-.102v-.101h-.101v-.101h-.202v-.101h-.101v-.101h-.101v-.102h-.102v-.101h-.1v-.101h-.203v-.101h-.1v-.101h-.102v-.101h-.101v-.101h-.101v-.101h-.202v-.101h-.102v-.101h-.1v-.101h-.102v-.102h-.1v-.101H92.8v-.101H92.7v-.101h-.101v-.101h-.101v-.101h-.202v-.101h-.102v-.101h-.1v-.101h-.102v-.101h-.1v-.102h-.203v-.101h-.101v-.101h-.101v-.101h-.101v-.101h-.101v-.101h-.101v-.101h-.203v-.101h-.1v-.101h-.102v-.101h-.1v-.101h-.102v-.102h-.101v-.101h-.101v-.101h-.202v-.101h-.101v-.101h-.102v-.101h-.1v-.101h-.102v-.101h-.1v-.101h-.203v-.101h-.101v-.101h-.101v-.102h-.101v-.101h-.101v-.101h-.101v-.101h-.203v-.101h-.1v-.101h-.102v-.101h-.1v-.101h-.102v-.101h-.101v-.101h-.202v-.101h-.101v-.102h-.101v-.101h-.101v-.101h-.102v-.101h-.1v-.101h-.102v-.101h-.1v-.101h-.102v-.101h-.202v-.101h-.101v-.101h-.101v-.101h-.101v-.102h-.102v-.101h-.1v-.101h-.102v-.101h-.1v-.101h-.203v-.101h-.101v-.101h-.101v-.101h-.101v-.101h-.101v-.101h-.101v-.101h-.102v-.102h-.1v-.101h-.203v-.101h-.1v-.101h-.102v-.101h-.101v-.101h-.101V361h-.101v-.101h-.101v-.101h-.101v-.101h-.102v-.101h-.1v-.102h-.203v-.101h-.1v-.101h-.102v-.101h-.101v-.101h-.101v-.101H83.6v-.101H83.5v-.101h-.102v-.101h-.1v-.101h-.102v-.101h-.1v-.102h-.102v-.101h-.1v-.101h-.203v-.101h-.101v-.101h-.101v-.101h-.101v-.101h-.102v-.101h-.1v-.101h-.102v-.101h-.1v-.101h-.102v-.102h-.1v-.101h-.102v-.101h-.101v-.101h-.101v-.101h-.202v-.101h-.102v-.101h-.1v-.101h-.102v-.101h-.1v-.101h-.102v-.102h-.1v-.101h-.102v-.101h-.101v-.101h-.101v-.101h-.101v-.101h-.101v-.101h-.102v-.101h-.1v-.101h-.102v-.101h-.1v-.101h-.102v-.102h-.1v-.101h-.102v-.101h-.101v-.101h-.101v-.101h-.101v-.101h-.101v-.101h-.102v-.101h-.202v-.101h-.1v-.101h-.102v-.101h-.101v-.102h-.101v-.101h-.101v-.101h-.101v-.101h-.101v-.101h-.101v-.101h-.102v-.101h-.1v-.101h-.102v-.101h-.1v-.101h-.102v-.101h-.101v-.102h-.101v-.101h-.101v-.101h-.101v-.101h-.101v-.101h-.101v-.101h-.102v-.101h-.1v-.101h-.102v-.101h-.1v-.101h-.102v-.101h-.101v-.102h-.101v-.101h-.101v-.101h-.101v-.101h-.101v-.101h-.101v-.101h-.101v-.101h-.102v-.101h-.1v-.101h-.102v-.101h-.1v-.101h-.102v-.102h-.101v-.101h-.101v-.101h-.101v-.101h-.101v-.101h-.101v-.101h-.102v-.101h-.1v-.101H74.3v-.101h-.1v-.101h-.102v-.101h-.101v-.102h-.101v-.101h-.101v-.101h-.101v-.101h-.101v-.101h-.102v-.101h-.1v-.101h-.102v-.101h-.1v-.101h-.102v-.101h-.1v-.101h-.102v-.102h-.101v-.101h-.101v-.202h-.101v-.101h-.101v-.101h-.102v-.101h-.1v-.101h-.102v-.101h-.1v-.101h-.102v-.101h-.1v-.102h-.102v-.101h-.101v-.101h-.101v-.101h-.101v-.101h-.101v-.101h-.102v-.101h-.1v-.101h-.102v-.101h-.1v-.101h-.102v-.102h-.1v-.202h-.102v-.101h-.101v-.101h-.101v-.101h-.101v-.101h-.101v-.101h-.102v-.101h-.1v-.101h-.102v-.101h-.1v-.102h-.102v-.101h-.101v-.101h-.101v-.101h-.101v-.101h-.101v-.202h-.101v-.101h-.101v-.101h-.102v-.101h-.1v-.101h-.102v-.102h-.1v-.101h-.102v-.101h-.101v-.101h-.101v-.101h-.101v-.101h-.101v-.101h-.101v-.101h-.101v-.101h-.102v-.202h-.1v-.102h-.102v-.101h-.1v-.101h-.102v-.101h-.101v-.101h-.101v-.101h-.101v-.101h-.101v-.101h-.101v-.202h-.101v-.101h-.102v-.102h-.1v-.101h-.102v-.101h-.1v-.101h-.102v-.101h-.101v-.101h-.101v-.202h-.101v-.101h-.101v-.101h-.101v-.101h-.101v-.102h-.102v-.101h-.1v-.101h-.102v-.101h-.1v-.202h-.102v-.101h-.101v-.101h-.101v-.101H65v-.101h-.101v-.101h-.101v-.102h-.102v-.101h-.1v-.202h-.102v-.101h-.1v-.101h-.102v-.101h-.1v-.101h-.102v-.101h-.101v-.101h-.101v-.101h-.101v-.203h-.101v-.101h-.102v-.101h-.1v-.101h-.102v-.101h-.1v-.101h-.102v-.101h-.1v-.101h-.102v-.202h-.101v-.102h-.101v-.101h-.101v-.101h-.101v-.101h-.102v-.202h-.1v-.101h-.102v-.101h-.1v-.101h-.102v-.101h-.1v-.203h-.102v-.101h-.101v-.101h-.101v-.101h-.101v-.101h-.101v-.202h-.102v-.101h-.1v-.101h-.102v-.101h-.1v-.102h-.102v-.101h-.1v-.202h-.102v-.101h-.101v-.101h-.101v-.101h-.101v-.101h-.101v-.202h-.102v-.101h-.1v-.102h-.102v-.101h-.1v-.101h-.102v-.202h-.101v-.101h-.101v-.101h-.101v-.101h-.101v-.101h-.101v-.202h-.101v-.102h-.102v-.101h-.1v-.101h-.102v-.101h-.1v-.101h-.102v-.202h-.101v-.101h-.101v-.101h-.101v-.101h-.101v-.203h-.101v-.101h-.101v-.101h-.101v-.101h-.102v-.202h-.1v-.101h-.102v-.101h-.1v-.101h-.102v-.202h-.101v-.102h-.101v-.101h-.101v-.101h-.101v-.202h-.101v-.101h-.102v-.101h-.1v-.202h-.102v-.101h-.1v-.101h-.102v-.102h-.101v-.202h-.101v-.101h-.101v-.101h-.101v-.101h-.101v-.202h-.101v-.101H55.8v-.101h-.1v-.101h-.102v-.203h-.1v-.101h-.102v-.101h-.101v-.101h-.101v-.202h-.101v-.101h-.101v-.101h-.101v-.101h-.102v-.203h-.1v-.101h-.102v-.101h-.1v-.202h-.102v-.101h-.1v-.101h-.102v-.101h-.101v-.202h-.101v-.102h-.101v-.101h-.101v-.202h-.102v-.101h-.1v-.101h-.102v-.202h-.1v-.101h-.102v-.101h-.1v-.203h-.102v-.101h-.101v-.101h-.101v-.202h-.101v-.101h-.101v-.101h-.102v-.202h-.1v-.101h-.102v-.101h-.1v-.203h-.102v-.101h-.1v-.101h-.102v-.202h-.101v-.101h-.101v-.101h-.101v-.202h-.101v-.101h-.102v-.102h-.1V324h-.102v-.101h-.1v-.101h-.102v-.202h-.1v-.101h-.102v-.101h-.101v-.202h-.101v-.102h-.101v-.101h-.101v-.202h-.101v-.101h-.102v-.101h-.1v-.202h-.102v-.101h-.1v-.101h-.102v-.203h-.101v-.101h-.101v-.101h-.101v-.202h-.101v-.101h-.101v-.202h-.102v-.101h-.1v-.101h-.102v-.203h-.1v-.101h-.102v-.202h-.101v-.101h-.101v-.101h-.101v-.202h-.101v-.101h-.101v-.202h-.101v-.102h-.102v-.202h-.1v-.101h-.102v-.101h-.1v-.202h-.102v-.101h-.101v-.202h-.101v-.102h-.101v-.101h-.101v-.202h-.101v-.101h-.101v-.202h-.102v-.101h-.1v-.202h-.102v-.101h-.1v-.102H46.6v-.202H46.5v-.101h-.101v-.202h-.101v-.101h-.101v-.101h-.101v-.202h-.101v-.101h-.101v-.203h-.102v-.101h-.1v-.202h-.102v-.101h-.1v-.202h-.102v-.101h-.101v-.202h-.101v-.102h-.101v-.202h-.101v-.101h-.102v-.202h-.1v-.101h-.102v-.101h-.1v-.202h-.102v-.101h-.1v-.203h-.102v-.101h-.101v-.202h-.101v-.101h-.101v-.202h-.101v-.101h-.102v-.202h-.1v-.102h-.102v-.202h-.1v-.101h-.102v-.202h-.1v-.101h-.102v-.202h-.101v-.202h-.101v-.102h-.101v-.202h-.101v-.101h-.102v-.202h-.1v-.101h-.102v-.202h-.1v-.101h-.102v-.203h-.1v-.202h-.102v-.101h-.101v-.202h-.101v-.101h-.101v-.202h-.101v-.101h-.102v-.203h-.1v-.202h-.102v-.101h-.1v-.202h-.102v-.101h-.1v-.202h-.102v-.101h-.101v-.203h-.101v-.101h-.101v-.202h-.101v-.202h-.102v-.101h-.1v-.202h-.102v-.101h-.1v-.203h-.102v-.101h-.101v-.202h-.101v-.202h-.101v-.101h-.101v-.202h-.101v-.101h-.101v-.203h-.102v-.202h-.1v-.101h-.102v-.202h-.1v-.202h-.102v-.101h-.101v-.203h-.101v-.202h-.101v-.101h-.101v-.202h-.101v-.202h-.101v-.101h-.101v-.202h-.102v-.203h-.1v-.101h-.102v-.202h-.1v-.202h-.102v-.202h-.101v-.101h-.101v-.203h-.101v-.202H37.3v-.101H37.2v-.202h-.102v-.202h-.1v-.101h-.102v-.202h-.1v-.203h-.102v-.101h-.101v-.202h-.101v-.202h-.101v-.101h-.101v-.202h-.101v-.203h-.101v-.101h-.102v-.202h-.1v-.202h-.102v-.101h-.1v-.202h-.102v-.202h-.101v-.102h-.101v-.202h-.101v-.202h-.101v-.202h-.101v-.101h-.102v-.202h-.1v-.203h-.102v-.101h-.1v-.202h-.102v-.202h-.1v-.101h-.102v-.202h-.101v-.203h-.101v-.202h-.101v-.202h-.101v-.101h-.102v-.202h-.1v-.202h-.102v-.203h-.1v-.202h-.102v-.202h-.1v-.202h-.102v-.101h-.101v-.202h-.101v-.203h-.101v-.202h-.101v-.202h-.102v-.202h-.1v-.101h-.102v-.202h-.1v-.203h-.102v-.202h-.1v-.202h-.102v-.202h-.101v-.101h-.101v-.202h-.101v-.203h-.101v-.202h-.101v-.202h-.102v-.202h-.1v-.101h-.102v-.202h-.1v-.203h-.102v-.202h-.101v-.202h-.101v-.202h-.101v-.202h-.101v-.101h-.101v-.203h-.102v-.202h-.1v-.202h-.102v-.202h-.1v-.202h-.102v-.101h-.101v-.203h-.101v-.202h-.101v-.202h-.101v-.202h-.101v-.202h-.101v-.203h-.101v-.202h-.102v-.202h-.1v-.202h-.102v-.202h-.1v-.202h-.102v-.203h-.101v-.202h-.101v-.202h-.101v-.202h-.101v-.202h-.101v-.203h-.102v-.202h-.1v-.202H28.1v-.202h-.1v-.202h-.102v-.202h-.101v-.203h-.101v-.202h-.101v-.202h-.101v-.202h-.101v-.202h-.101v-.203h-.101v-.202h-.102v-.202h-.1v-.303h-.102v-.202h-.1v-.203h-.102v-.202h-.101v-.202h-.101v-.202h-.101v-.202h-.101v-.202h-.101v-.203h-.102v-.202h-.1v-.202h-.102v-.202h-.1v-.202h-.102v-.203h-.101v-.202h-.101v-.202h-.101v-.202h-.101v-.202h-.101v-.202h-.102v-.304h-.1v-.202h-.102v-.202h-.1v-.202h-.102v-.304h-.1v-.202h-.102v-.202h-.101v-.202h-.101v-.303h-.101v-.203h-.101v-.202h-.102v-.202h-.1v-.303h-.102v-.202h-.1v-.203h-.102v-.202h-.1v-.303h-.102v-.202h-.101v-.202h-.101v-.203h-.101v-.202h-.101v-.303h-.102v-.202h-.1v-.202h-.102v-.203h-.1v-.303h-.102v-.202h-.1v-.202h-.102v-.202h-.101v-.304h-.101v-.202h-.101v-.202h-.101v-.202h-.101v-.304h-.102v-.202h-.1v-.202h-.102v-.202h-.1v-.303h-.102v-.203h-.101v-.303h-.101v-.202h-.101v-.303h-.101v-.202h-.101v-.304h-.102v-.202h-.1v-.303h-.102v-.202h-.1v-.304h-.102v-.202h-.101v-.303h-.101v-.202h-.101v-.304h-.101v-.202h-.101v-.303h-.101v-.202h-.101v-.304h-.102v-.202h-.1v-.303h-.102v-.202h-.1v-.303h-.102v-.203h-.101v-.303H18.8v-.202H18.7v-.303h-.101v-.203h-.101v-.303h-.102v-.202h-.1v-.303h-.102v-.202h-.1v-.304h-.102v-.202h-.101v-.303h-.101v-.202h-.101v-.304h-.101v-.202h-.101v-.303h-.101v-.303h-.101v-.304h-.102v-.303h-.1v-.202h-.102v-.303h-.1v-.304h-.102v-.303h-.101v-.303h-.101v-.304h-.101v-.202h-.101v-.303h-.101v-.303h-.102v-.304h-.1v-.303h-.102v-.202h-.1v-.303h-.102v-.304h-.101v-.303h-.101v-.303h-.101v-.202h-.101v-.304h-.101v-.303h-.101v-.303h-.102v-.303h-.1v-.203h-.102v-.303h-.1v-.303h-.102v-.303h-.101v-.304h-.101v-.202h-.101v-.303h-.101v-.404h-.101v-.304h-.101v-.303h-.102v-.303h-.1v-.304h-.102v-.404h-.1v-.303h-.102v-.303h-.101v-.304h-.101v-.303h-.101v-.303h-.101v-.405h-.101v-.303h-.101v-.303h-.102v-.304h-.1v-.303h-.102v-.404h-.1v-.303h-.102v-.304h-.101v-.303h-.101v-.303h-.101v-.304h-.101v-.404h-.101v-.303h-.101v-.303h-.102v-.304h-.1v-.303h-.102v-.404h-.1v-.304h-.102v-.404h-.101v-.303h-.101v-.405h-.101v-.303h-.101v-.404h-.101v-.405h-.101v-.303h-.102v-.404h-.1v-.405h-.102v-.303h-.1v-.404h-.102v-.405h-.101v-.303h-.101v-.404h-.101v-.405h-.101v-.303h-.101v-.404H9.6v-.405h-.1v-.303h-.102v-.404h-.1v-.405h-.102v-.303h-.101v-.404h-.101v-.405h-.101v-.303h-.101v-.404h-.101v-.506H8.59v-.404h-.102v-.405h-.1v-.404h-.102v-.505h-.1v-.405h-.102v-.404h-.101v-.506h-.101v-.404h-.101v-.404H7.68v-.405H7.58v-.505h-.101v-.405h-.102v-.404h-.1v-.505h-.102v-.405h-.1v-.404h-.102v-.506h-.101v-.404h-.101v-.404H6.67v-.405h-.101v-.505h-.101v-.404h-.101v-.607h-.102v-.505h-.1v-.506h-.102v-.505h-.1v-.506H5.86v-.505H5.76v-.607h-.101v-.505h-.101v-.506h-.101v-.505h-.101v-.506h-.101v-.505h-.102v-.506h-.1v-.606H4.95v-.506h-.1v-.505h-.102v-.506h-.101v-.505h-.101v-.607h-.101v-.606h-.101v-.708h-.101v-.606h-.101v-.708H4.04v-.607h-.1v-.606h-.102v-.708h-.1v-.606h-.102v-.607h-.101v-.707h-.101v-.607h-.101v-.708h-.101v-.606h-.101v-.607H3.03v-.707h-.102v-.809h-.1v-.809h-.102v-.809h-.1v-.909h-.102v-.809h-.101v-.809h-.101v-.91h-.101v-.808H2.12v-.809H2.02v-.91h-.101v-.809h-.102v-.808h-.1v-1.112h-.102v-1.214h-.1v-1.213h-.102v-1.112h-.101v-1.213h-.101v-1.213H1.11v-1.213h-.101v-1.213H.908v-1.112H.807v-2.022H.705v-2.022h-.1v-2.022H.502v-2.021h-.1v-2.022H.3v-3.943H.2v-14.961h.101v-3.539h.101v-2.628h.101v-2.224h.101v-1.921h.101v-1.819h.102v-1.517h.1v-1.516h.102v-1.517h.1v-1.314h.102v-1.213h.101v-1.314h.101v-1.213h.101v-1.011h.101v-1.112h.101v-1.112h.101v-1.011h.102v-1.011h.1v-.91h.102v-1.011h.1v-.91h.102v-.909h.101v-.91h.101v-.809h.101v-.91h.101v-.809h.101v-.808h.101v-.809h.102v-.809h.1v-.707h.102v-.809h.1v-.809h.102v-.707h.101v-.708h.101v-.708h.101v-.707h.101v-.708h.101v-.708h.101v-.707h.102v-.708h.1v-.607h.102v-.707h.1v-.607h.102v-.707h.101v-.607h.101v-.606h.101v-.607h.101v-.607h.101v-.606h.101v-.708h.102v-.606h.1v-.506h.102v-.606h.1v-.607h.102v-.606h.101v-.506h.101v-.606h.101v-.607h.101v-.505h.101v-.506h.101v-.606h.102v-.506h.1v-.607h.102v-.505h.1v-.505h.102v-.506h.101v-.606h.101v-.506h.101v-.505h.101v-.506h.101v-.505h.101v-.506h.102v-.505h.1v-.506h.102v-.505h.1v-.404h.102v-.506h.101v-.505h.101v-.506h.101v-.505h.101v-.405h.101v-.505h.101v-.506h.102v-.404h.1v-.505h.102v-.405h.1v-.505h.102v-.405h.101v-.505h.101v-.404h.101v-.506H9.4v-.404H9.5v-.506h.101v-.404h.102v-.404h.1v-.506h.102v-.404h.1v-.405h.102v-.404h.101v-.404h.101v-.506h.101v-.404h.101v-.405h.101v-.404h.101v-.404h.102v-.405h.1v-.404h.102v-.404h.1v-.405h.102v-.404h.101v-.404h.101V74h.101v-.404h.101v-.405h.101v-.404h.101v-.404h.102v-.304h.1v-.404h.102v-.404h.1v-.405h.102v-.404h.101v-.303h.101v-.405h.101v-.404h.101v-.303h.101v-.405h.101v-.404h.102v-.303h.1v-.405h.102v-.303h.1v-.404h.102v-.304h.101v-.404h.101v-.303h.101v-.405h.101v-.303h.101V64.7h.101v-.304h.102v-.404h.1v-.303h.102v-.303h.1v-.304h.102v-.404h.101v-.303h.101v-.304h.101v-.303h.101v-.303h.101v-.405h.101v-.303h.102v-.303h.1v-.303h.102v-.304h.1v-.303h.102v-.303h.101v-.303h.101v-.304h.101v-.303h.101v-.303h.101v-.405h.102v-.303h.1v-.303h.102v-.304h.1v-.303h.102v-.303h.101v-.303h.101V55.5h.101v-.303h.101v-.101h.405v-.101h.303v-.101h.303v-.101h.303v-.101h.405v-.102h.303v-.1h.303v-.102h.304v-.1h.404v-.102h.303v-.101h.304v-.101h.303v-.101h.404v-.101h.304v-.101h.303v-.101h.303v-.102h.404v-.1h.304v-.102h.303v-.1h.404v-.102h.304v-.101h.303v-.101h.404v-.101h.303v-.101h.405v-.101h.303v-.101h.405v-.102h.303v-.1h.404v-.102h.303v-.1h.405v-.102h.303v-.101h.404v-.101h.405v-.101h.303v-.101h.405v-.101h.404v-.101h.303v-.102h.404v-.1h.405v-.102h.303v-.1h.405v-.102h.404v-.101h.404v-.101h.303v-.101h.405v-.101h.404v-.101h.405v-.101h.404v-.102h.303v-.1h.405v-.102h.404v-.1h.404v-.102h.405v-.101h.404v-.101h.404v-.101h.405v-.101h.404v-.101h.405v-.101h.404v-.101h.404v-.102h.405v-.1h.404v-.102h.404v-.1h.405v-.102h.404v-.101h.404v-.101h.405v-.101h.404v-.101h.506v-.102h.404v-.1h.404v-.102h.405v-.1h.404v-.102h.506v-.1h.404v-.102h.404v-.101h.405v-.101h.505v-.101h.405v-.101h.404v-.102h.505v-.1h.405v-.102h.404v-.1h.506v-.102h.404v-.1h.505V46.3h.405V46.2h.505v-.101h.405v-.101h.505v-.101h.404v-.102h.506v-.1h.404v-.102h.506v-.1h.505v-.102h.404v-.1h.506v-.102h.505v-.101h.405v-.101h.505v-.101h.506v-.101h.505v-.101h.405v-.102h.505v-.1h.505v-.102h.506v-.1h.505v-.102h.506v-.101h.505v-.101h.506v-.101h.505v-.101h.506v-.101h.505v-.102h.506v-.1h.505v-.102h.505v-.1h.506v-.102h.505v-.101h.607v-.101h.506v-.101h.505v-.101h.606v-.101h.506v-.101h.505v-.102h.607v-.1h.505v-.102h.607v-.1h.505v-.102h.607v-.101h.505v-.101h.607v-.101h.606v-.101h.607v-.101h.506v-.101h.606v-.102h.607v-.1h.606v-.102h.607v-.1h.606v-.102h.607v-.101h.606v-.101h.607v-.101h.606v-.101h.708v-.101h.607v-.101h.606v-.102h.708v-.1h.606v-.102h.708v-.1h.607v-.102h.707v-.101h.708v-.101h.606v-.101h.708v-.101h.708v-.101h.808v-.102h.708v-.1h.708v-.102h.707v-.1h.708v-.102h.809v-.1h.808v-.102h.81v-.101h.707v-.101h.809v-.101h.91v-.101h.808v-.102h.809v-.1h.91v-.102h.808v-.1h.91v-.102h1.011v-.1h.91v-.102h.91v-.101h1.011v-.101h1.011v-.101h1.011v-.101h1.011V37h.202V.102h99.373v36.696h.809v.101h1.011v.102h1.011v.1h.909v.102h.809v.1h.91v.102h.91v.101h.809v.101h.909v.101h.91v.101h.809v.101h.91v.101h.809v.101h.808v.102h.809v.1h.708v.102h.808v.1h.708v.102h.809v.101h.707v.101h.708v.101h.809v.101h.707v.102h.809v.1h.708v.102h.809v.1h.707v.102h.809v.1h.708v.102h.606v.101h.607v.101h.707v.101h.607v.101h.606v.102h.708v.1h.607v.102h.606v.1h.708v.102h.606v.1h.708v.102h.607v.101h.606v.101h.708v.101h.606v.101h.607v.101h.707v.102h.506v.1h.606v.102h.506v.1h.606v.102h.506v.101h.606v.101h.506v.101h.607v.101h.505v.101h.607v.102h.505v.1h.607v.102h.505v.1h.607v.102h.505v.1h.607v.102h.505v.101h.505v.101h.607v.101h.505v.101h.506v.102h.505v.1h.405v.102h.505v.1h.506v.102h.505v.101h.506v.101h.404v.101h.505v.101h.506v.101h.505v.101h.506v.102h.404v.1h.506v.102h.505v.1h.506v.102h.505v.101h.404v.101h.506v.101h.505v.101h.506v.101h.404v.101h.404v.101h.405v.102h.505v.1h.405v.102h.404v.1h.404v.102h.405v.101h.505v.101h.405v.101h.404v.101h.404v.101h.506v.102h.404v.1h.405v.102h.404v.1h.404v.102h.506v.101h.404v.101h.404v.101h.405v.101h.505v.101h.405v.101h.404v.102h.303v.1h.405v.102h.404v.1h.404v.102h.304v.101h.404v.101h.404v.101h.405v.101h.303v.101h.404v.102h.405v.1h.404v.102h.303v.1h.405v.102h.404v.1h.405v.102h.303v.101h.404v.101h.405v.101h.404v.101h.303v.102h.405v.1h.404v.102h.404v.1h.304v.102h.404v.1h.303v.102h.303v.101h.405v.101h.303v.101h.404v.101h.304v.102h.303v.1h.404v.102h.304v.1h.404v.102h.303v.1h.304v.102h.404v.101h.303v.101h.405v.101h.303v.101h.303v.102h.405v.1h.303v.102h.303v.1h.404v.102h.304v.1h.303v.102h.303v.101h.304v.101h.303v.101h.303v.101h.404v.101h.304v.102h.303v.1h.303v.102h.304v.1h.303v.102h.303v.101h.405v.101h.303v.101h.303v.101h.303v.101h.304v.102h.303v.1h.303v.102h.405v.1h.303v.102h.303v.101h.303v.101h.304v.101h.101v.202h.101v.304h.101v.303h.101v.404h.101v.303h.101v.304h.101v.303h.101v.303h.101v.304h.102v.404h.101v.303h.101v.303h.101v.304h.101v.303h.101v.303h.101v.304h.101v.404h.101v.303h.101v.304h.101v.303h.102v.303h.101v.404h.101v.304h.101v.303h.101v.303h.101v.405h.101v.303h.101v.404h.101v.304h.101v.404h.101v.303h.102v.303h.101v.405h.101v.404h.101v.303h.101v.405h.101v.303h.101v.404h.101v.405h.101v.303h.101v.404h.101v.405h.102v.303h.101v.405h.101v.404h.101v.404h.101v.405h.101v.303h.101v.404h.101v.405h.101v.404h.101v.404h.101v.405h.102V74h.101v.404h.101v.405h.101v.404h.101v.405h.101v.404h.101v.404h.101v.405h.101v.404h.101v.404h.102v.405h.101v.505h.101v.405h.101v.404h.101v.404h.101v.405h.101v.505h.101v.405h.101v.505h.101v.404h.101v.405h.102v.505h.101v.405h.101v.505h.101v.404h.101v.506h.101v.404h.101v.506h.101v.404h.101v.505h.101v.506h.101v.404h.102v.506h.101v.505h.101v.506h.101v.404h.101v.506h.101v.505h.101v.505h.101v.506h.101v.505h.101v.506h.101v.505h.102v.506h.101v.505h.101v.506h.101v.606h.101v.506h.101v.505h.101v.506h.101v.606h.101v.506h.101v.606h.101v.506h.102v.505h.101v.607h.101v.606h.101v.506h.101v.606h.101v.607h.101v.606h.101v.506h.101v.606h.101v.607h.101v.606h.102v.708h.101v.607h.101v.606h.101v.607h.101v.707h.101v.607h.101v.708h.101v.606h.101V111h.101v.606h.101v.708h.102v.708h.101v.707h.101v.708h.101v.708h.101v.707h.101v.809h.101v.809h.101v.707h.101v.809h.101v.809h.101v.808h.102v.809h.101v.809h.101v.91h.101v.809h.101v.909h.101v.91h.101v1.011h.101v.91h.101v.91h.101v1.112h.101v1.011h.102v1.112h.101v1.011h.101v1.213h.101v1.213h.101v1.213h.101v1.213h.101v1.415h.101v1.517h.101v1.516h.101v1.618h.102v1.92h.101v1.921h.101v2.527h.101v2.629h.101v4.246H315v10.311h-.101v4.448h-.101v2.426h-.101v2.527h-.101v2.326h-.101v1.516h-.102v1.516h-.101v1.416h-.101v1.516h-.101v1.516h-.101v1.213h-.101v1.011h-.101v1.112h-.101v1.011h-.101v1.011h-.101v1.112h-.102v1.011h-.101v1.112h-.101v.809h-.101v.809h-.101v.808h-.101v.809h-.101v.809h-.101v.809h-.101v.808h-.101v.809h-.101v.91h-.102v.708h-.101v.707h-.101v.708h-.101v.606h-.101v.708h-.101v.607h-.101v.707h-.101v.607h-.101v.707h-.101v.607h-.101v.708h-.102v.707h-.101v.607h-.101v.505h-.101v.607h-.101v.505h-.101v.607h-.101v.606h-.101v.506h-.101v.606h-.101v.506h-.101v.606h-.102v.506h-.101v.606h-.101v.506h-.101v.606h-.101v.506h-.101v.505h-.101v.506h-.101v.404h-.101v.506h-.101v.505h-.101v.506h-.102v.404h-.101v.505h-.101v.506h-.101v.505h-.101v.405h-.101v.505h-.101v.506h-.101v.505h-.101v.404h-.101v.506h-.101v.404h-.102v.405h-.101v.505h-.101v.404h-.101v.405h-.101v.404h-.101v.404h-.101v.405h-.101v.404h-.101v.506h-.101v.404h-.101v.404h-.102v.405h-.101v.404h-.101v.405h-.101v.505h-.101v.404h-.101v.405h-.101v.404h-.101v.303h-.101v.405h-.101v.404h-.101v.303h-.102v.405h-.101v.404h-.101v.404h-.101v.304h-.101v.404h-.101v.404h-.101v.304h-.101v.404h-.101v.404h-.101v.304h-.101v.404h-.102v.405h-.101v.303h-.101v.404h-.101v.405h-.101v.303h-.101v.404h-.101v.303h-.101v.304h-.101v.404h-.101v.303h-.102v.304h-.101v.404h-.101v.303h-.101v.304h-.101v.404h-.101v.303h-.101v.303h-.101v.304h-.101v.404h-.101v.303h-.101v.304h-.102v.404h-.101v.303h-.101v.304h-.101v.404h-.101v.303h-.101v.303h-.101v.304h-.101v.303h-.101v.303h-.101v.304h-.101v.303h-.102v.303h-.101v.303h-.101v.304h-.101v.303h-.101v.303h-.101v.304h-.101v.303h-.101v.303h-.101v.303h-.101v.304h-.101v.303h-.102v.303h-.101v.303h-.101v.304h-.101v.303h-.101v.303h-.101v.304h-.101v.303h-.101v.303h-.101v.303h-.101v.304h-.101v.202h-.102v.303h-.101v.303h-.101v.304h-.101v.202h-.101v.303h-.101v.303h-.101v.203h-.101v.303h-.101v.303h-.101v.303h-.101v.203h-.102v.303h-.101v.303h-.101v.303h-.101v.203h-.101v.303h-.101v.303h-.101v.303h-.101v.203h-.101v.303h-.101v.303h-.101v.202h-.102v.304h-.101v.303h-.101v.202h-.101v.303h-.101v.203h-.101v.303h-.101v.202h-.101v.303h-.101v.202h-.101v.304h-.101v.202h-.102v.303h-.101v.202h-.101v.304h-.101v.202h-.101v.303h-.101v.202h-.101v.304h-.101v.202h-.101v.303h-.101v.202h-.101v.303h-.102v.203h-.101v.303h-.101v.202h-.101v.303h-.101v.203h-.101v.303h-.101v.202h-.101v.303h-.101v.203h-.101v.202h-.102v.303h-.101v.202h-.101v.202h-.101v.304h-.101v.202h-.101v.202h-.101v.303h-.101v.202h-.101v.203h-.101v.202h-.101v.303h-.102v.202h-.101v.202h-.101v.304h-.101v.202h-.101v.202h-.101v.303h-.101v.203h-.101v.202h-.101v.202h-.101v.303h-.101v.202h-.102v.203h-.101v.303h-.101v.202h-.101v.202h-.101v.303h-.101v.203h-.101v.202h-.101v.202h-.101v.202h-.101v.202h-.101v.304h-.102v.202h-.101v.202h-.101v.202h-.101v.202h-.101v.203h-.101v.202h-.101v.202h-.101v.303h-.101v.202h-.101v.203h-.101v.202h-.102v.202h-.101v.202h-.101v.202h-.101v.304h-.101v.202h-.101v.202h-.101v.202h-.101v.202h-.101v.203h-.101v.202h-.101v.202h-.102v.303h-.101v.202h-.101v.203h-.101v.202h-.101v.202h-.101v.202h-.101v.202h-.101v.202h-.101v.203h-.101v.202h-.101v.202h-.102v.202h-.101v.202h-.101v.203h-.101v.202h-.101v.202h-.101v.202h-.101v.202h-.101v.202h-.101v.203h-.101v.202h-.101v.202h-.102v.202h-.101v.202h-.101v.203h-.101v.202h-.101v.202h-.101v.202h-.101v.202h-.101v.101h-.101v.203h-.101v.202h-.102v.202h-.101v.202h-.101v.202h-.101v.203h-.101v.202h-.101v.202h-.101v.202h-.101v.202h-.101v.202h-.101v.203h-.101v.202h-.102v.202h-.101v.101h-.101v.202h-.101v.202h-.101v.203h-.101v.202h-.101v.202h-.101v.101h-.101v.202h-.101v.202h-.101v.203h-.102v.202h-.101v.202h-.101v.101h-.101v.202h-.101v.202h-.101v.203h-.101v.202h-.101v.202h-.101v.101h-.101v.202h-.101v.202h-.102v.203h-.101v.202h-.101v.202h-.101v.101h-.101v.202h-.101v.202h-.101v.203h-.101v.202h-.101v.202h-.101v.101h-.101v.202h-.102v.202h-.101v.203h-.101v.101h-.101v.202h-.101v.202h-.101v.202h-.101v.101h-.101v.203h-.101v.202h-.101v.101h-.101v.202h-.102v.202h-.101v.101h-.101v.203h-.101v.202h-.101v.202h-.101v.101h-.101v.202h-.101v.202h-.101v.101h-.101v.203h-.101v.202h-.102v.202H278v.101h-.101v.202h-.101v.202h-.101v.102h-.101v.202h-.101v.202h-.101v.202h-.101v.101h-.101v.202h-.101v.203h-.102v.101h-.101v.202h-.101v.202h-.101v.202h-.101v.101h-.101v.202h-.101v.102h-.101v.202h-.101v.202h-.101v.101h-.101v.202h-.102v.101h-.101v.202h-.101v.203h-.101v.101h-.101v.202h-.101v.101h-.101v.202h-.101v.202h-.101v.101h-.101v.203h-.102v.101h-.101v.202h-.101v.202h-.101v.101h-.101v.202h-.101v.101h-.101v.203h-.101v.202h-.101v.101h-.101v.202h-.101v.101h-.102v.202h-.101v.203h-.101v.101h-.101v.202h-.101v.101h-.101v.202h-.101v.202h-.101v.101h-.101v.203h-.101v.101h-.101v.202h-.102v.202h-.101v.101h-.101v.202h-.101v.101h-.101v.203h-.101v.101h-.101v.202h-.101v.101h-.101v.202h-.101v.101h-.101v.202h-.102v.102h-.101v.202h-.101v.101h-.101v.202h-.101v.101h-.101v.202h-.101v.101h-.101v.203h-.101v.101h-.101v.202h-.101v.101h-.102v.202h-.101v.101h-.101v.202h-.101v.101h-.101v.203h-.101v.101h-.101v.202h-.101v.101h-.101v.202h-.101v.101h-.101v.202h-.102v.102h-.101v.202h-.101v.101h-.101v.202h-.101v.101h-.101v.202h-.101v.101h-.101v.203h-.101v.101h-.101v.202h-.101v.101h-.102v.101h-.101v.202h-.101v.101h-.101v.202h-.101v.102h-.101v.101h-.101v.202h-.101v.101h-.101v.202h-.101v.101h-.101v.101h-.102v.203h-.101v.101h-.101v.202h-.101v.101h-.101v.101h-.101v.202h-.101v.101h-.101v.202h-.101v.102h-.101v.101h-.101v.202h-.102v.101h-.101v.202h-.101v.101h-.101v.101h-.101v.202h-.101v.102h-.101v.202h-.101v.101h-.101v.101h-.101v.202h-.102v.101h-.101v.202h-.101v.101h-.101v.102h-.101v.202h-.101v.101h-.101v.202h-.101v.101h-.101v.101h-.101v.202h-.101v.101h-.102v.203h-.101v.101h-.101v.101h-.101v.202h-.101v.101h-.101v.101h-.101v.101h-.101v.202h-.101v.102h-.101v.101h-.101v.202h-.102v.101h-.101v.101h-.101v.202h-.101v.101h-.101v.101h-.101v.203h-.101v.101h-.101v.101h-.101v.202h-.101v.101h-.101v.101h-.102v.202h-.101v.101h-.101v.101h-.101v.102h-.101v.202h-.101v.101h-.101v.101h-.101v.202h-.101v.101h-.101v.101h-.101v.203h-.102v.101h-.101v.101h-.101v.202h-.101v.101h-.101v.101h-.101v.202h-.101v.101h-.101v.101h-.101v.203h-.101v.101h-.101v.101h-.102v.101h-.101v.202h-.101v.101h-.101v.101h-.101v.101h-.101v.203h-.101v.101h-.101v.101h-.101v.101h-.101v.202h-.101v.101h-.102v.101h-.101v.101h-.101v.202h-.101v.102h-.101v.101h-.101v.101h-.101v.101h-.101v.202h-.101v.101h-.101v.101h-.101v.101h-.102v.202h-.101v.102h-.101v.101h-.101v.101h-.101v.202h-.101v.101h-.101v.101h-.101v.101h-.101v.202h-.101v.101h-.101v.102h-.102v.101h-.101v.101h-.101v.202h-.101v.101h-.101v.101h-.101v.101h-.101v.202h-.101v.101h-.101v.102h-.101v.101h-.102v.202h-.101v.101h-.101v.101h-.101v.101h-.101v.202h-.101v.101h-.101v.101h-.101v.102h-.101v.101h-.101v.101h-.101v.202h-.102v.101h-.101v.101h-.101v.101h-.101v.101h-.101v.101h-.101v.101h-.101v.203h-.101v.101h-.101v.101h-.101v.101h-.101v.101h-.102v.101h-.101v.202h-.101v.101h-.101v.102h-.101v.101h-.101v.101h-.101v.101h-.101v.202h-.101v.101h-.101v.101h-.101v.101h-.102v.101h-.101v.101h-.101v.203h-.101v.101h-.101v.101h-.101v.101h-.101v.101h-.101v.101h-.101v.101h-.101v.202h-.101v.101h-.102v.102h-.101v.101h-.101v.101h-.101v.101h-.101v.202h-.101v.101h-.101v.101h-.101v.101h-.101v.101h-.101v.101h-.101v.203h-.102v.101h-.101v.101h-.101v.101h-.101v.101h-.101v.101h-.101v.101h-.101v.101h-.101v.101h-.101v.101h-.101v.102h-.101v.202h-.102v.101h-.101v.101h-.101v.101h-.101v.101h-.101v.101h-.101v.101h-.101v.101h-.101v.101h-.101v.102h-.101v.101h-.101v.202h-.102v.101h-.101v.101h-.101v.101h-.101v.101h-.101v.101h-.101v.101h-.101v.101h-.101v.102h-.101v.101h-.101v.101h-.101v.202h-.102v.101h-.101v.101h-.101v.101h-.101v.101h-.101v.101h-.101v.101h-.101v.102h-.101v.101h-.101v.101h-.101v.101h-.102v.202h-.101v.101h-.101v.101h-.101v.101h-.101v.101h-.101v.101h-.101v.102h-.101v.101h-.101v.101h-.101v.101h-.101v.101h-.102v.101h-.101v.101h-.101v.101h-.101v.101h-.101v.101h-.101v.102h-.101v.101h-.101v.101h-.101v.101h-.101v.101h-.101v.101h-.102v.101h-.101v.202h-.101v.101h-.101v.101h-.101v.102h-.101v.101h-.101v.101h-.101v.101h-.101v.101h-.101v.101h-.101v.101h-.102v.101h-.101v.101h-.101v.101h-.101v.101h-.101v.102h-.101v.101h-.101v.101h-.101v.101h-.101v.101h-.101v.101h-.101v.101h-.102v.101h-.101v.101h-.101v.101h-.101v.101h-.101v.102h-.101v.101h-.101v.101h-.101v.101h-.101v.101h-.101v.101h-.101v.101h-.102v.101h-.101v.101h-.101v.101h-.101v.101h-.101v.102h-.101v.101h-.101v.101h-.101v.101h-.101v.101h-.101v.101h-.101v.101h-.102v.101h-.101v.101h-.101v.101h-.101v.101h-.101v.102h-.101v.101h-.101v.101h-.101v.101h-.101v.101h-.101v.101h-.101v.101h-.102v.101h-.101v.101h-.101v.101h-.101v.101h-.101v.102h-.101v.101h-.101v.101h-.202v.101h-.101v.101h-.101v.101h-.102v.101h-.101v.101h-.101v.101h-.101v.101h-.101v.101h-.101v.102h-.101v.101h-.101v.101h-.101v.101h-.101v.101h-.102v.101h-.101v.101h-.101v.101h-.101v.101h-.101v.101h-.101v.101h-.101v.102h-.101v.101h-.101v.101h-.101v.101h-.101v.101h-.102v.101h-.101v.101h-.202v.101h-.101v.101h-.101v.101h-.101v.102h-.101v.101h-.101v.101h-.101v.101h-.101v.101h-.102v.101h-.101v.101h-.101v.101h-.202v.101h-.101v.101h-.101v.101h-.101v.102h-.101v.101h-.101v.101h-.101v.101h-.102v.101h-.101v.101h-.101v.101h-.202v.101h-.101v.101h-.101v.101h-.101v.101h-.101v.102h-.101v.101h-.101v.101h-.102v.101h-.101V361h-.202v.101h-.101v.101h-.101v.101h-.101v.101h-.101v.101h-.101v.101h-.101v.102h-.101v.101h-.102v.101h-.101v.101h-.202v.101h-.101v.101h-.101v.101h-.101v.101h-.101v.101h-.101v.101h-.101v.101h-.101v.102h-.102v.101h-.202v.101h-.101v.101h-.101v.101h-.101v.101h-.101v.101h-.101v.101h-.101v.101h-.101v.101h-.203v.101h-.101v.102h-.101v.101h-.101v.101h-.101v.101h-.202v.101h-.101v.101h-.101v.101h-.101v.101h-.101v.101h-.102v.101h-.202v.101h-.101v.102h-.101v.101h-.101v.101h-.101v.101h-.202v.101h-.101v.101h-.102v.101h-.101v.101h-.101v.101h-.101v.101h-.202v.101h-.101v.102h-.101v.101h-.101v.101h-.101v.101h-.101v.101h-.203v.101h-.101v.101h-.101v.101h-.101v.101h-.101v.101h-.202v.101h-.101v.102h-.101v.101h-.101v.101h-.102v.101h-.101v.101h-.202v.101h-.101v.101h-.101v.101h-.101v.101h-.101v.101h-.101v.102h-.202v.101h-.102v.101h-.101v.101h-.101v.101h-.202v.101h-.101v.101h-.101v.101h-.101v.101h-.202v.101h-.101v.101h-.102v.102h-.101v.101h-.202v.101h-.101v.101h-.101v.101h-.101v.101h-.202v.101h-.101v.101h-.101v.101h-.102v.101h-.202v.101h-.101v.102h-.101v.101h-.101v.101h-.202v.101h-.101v.101h-.101v.101h-.203v.101h-.101v.101h-.101v.101h-.101v.101h-.202v.101h-.101v.102h-.101v.101h-.101v.101h-.202v.101h-.102v.101h-.101v.101h-.101v.101h-.202v.101h-.101v.101h-.101v.101h-.101v.101h-.202v.102h-.101v.101h-.102v.101h-.101v.101h-.202v.101h-.101v.101h-.101v.101h-.202v.101h-.101v.101h-.101v.101h-.203v.101h-.101v.102h-.101v.101h-.101v.101h-.202v.101h-.101v.101h-.101v.101h-.202v.101h-.102v.101h-.101v.101h-.202v.101h-.101v.101h-.101v.102h-.202v.101h-.101v.101h-.101v.101h-.203v.101h-.101v.101h-.101v.101h-.202v.101h-.101v.101h-.101v.101h-.202v.101h-.101v.102h-.101v.101h-.203v.101h-.101v.101h-.101v.101h-.202v.101h-.101v.101h-.101v.101h-.202v.101h-.101v.101h-.102v.101h-.202v.102h-.101v.101h-.202v.101h-.101v.101h-.101v.101h-.202v.101h-.101v.101h-.102v.101h-.202v.101h-.101v.101h-.202v.102h-.101v.101h-.101v.101h-.202v.101h-.101v.101h-.203v.101h-.101v.101h-.202v.101h-.101v.101h-.101v.101h-.202v.101h-.101v.102h-.203v.101h-.101v.101h-.202v.101h-.101v.101h-.202v.101h-.101v.101h-.202v.101h-.101v.101h-.203v.101h-.101v.101h-.202v.102h-.101v.101h-.202v.101h-.202v.101h-.102v.101h-.202v.101h-.101v.101h-.202v.101h-.202v.101h-.101v.101h-.202v.101h-.102v.102h-.202v.101h-.101v.101h-.202v.101h-.202v.101h-.101v.101h-.202v.101h-.203v.101h-.101v.101h-.202v.101h-.202v.101h-.101v.102h-.202v.101h-.203v.101h-.202v.101h-.101v.101h-.202v.101h-.202v.101h-.202v.101h-.101v.101h-.203v.101h-.202v.101h-.202v.102h-.101v.101h-.202v.101h-.202v.101h-.203v.101h-.202v.101h-.202v.101h-.202v.101h-.101v.101h-.202v.101h-.203v.101h-.202v.102h-.202v.101h-.202v.101h-.202v.101h-.203v.101h-.202v.101h-.202v.101h-.202v.101h-.202v.101h-.101v.101h-.203v.101h-.303v.102h-.202v.101h-.202v.101h-.202v.101h-.203v.101h-.202v.101h-.202v.101h-.202v.101h-.202v.101h-.203v.101h-.303v.101h-.202v.102h-.202v.101h-.202v.101h-.203v.101h-.202v.101h-.202v.101h-.303v.101h-.202v.101h-.203v.101h-.303v.101h-.202v.102h-.202v.101h-.303v.101h-.203v.101h-.202v.101h-.202v.101h-.303v.101h-.202v.101h-.203v.101h-.303v.101h-.202v.101h-.303v.102h-.203v.101h-.303v.101h-.202v.101h-.303v.101h-.202v.101h-.304v.101h-.202v.101h-.303v.101h-.303v.101h-.203v.101h-.303v.102h-.202v.101h-.303v.101h-.304v.101h-.202v.101h-.303v.101h-.303v.101h-.304v.101h-.202v.101h-.303v.101h-.303v.101h-.304v.102h.405v.101h.606v.101h.607v.101h.606v.101h.708v.101h.607v.101h.707v.101h.607v.101h.707v.101h.708v.101h.708v.102h.707v.101h.809v.101h.708v.101h.808v.101h.809v.101h.91v.101h.809v.101h.91v.101h1.01v.101h1.011v.101h1.112v.102h1.112v.101h1.416v.101h1.415v.101h2.123v.101h2.932v.101h3.336v-.101h2.83v-.101h1.719v-.101h1.415v-.101h1.011v-.101h1.112v-.102h.91v-.101h.808v-.101h.809v-.101h.708v-.101h.809v-.101h.606v-.101h.607v-.101h.606v-.101h.607v-.101h.606v-.101h.506v-.102h.505v-.101h.506v-.101h.505v-.101h.506v-.101h.505v-.101h.404v-.101h.506v-.101h.404v-.101h.506v-.101h.404v-.101h.404v-.102h.405v-.101h.404v-.101h.405v-.101h.404v-.101h.303v-.101h.405v-.101h.404v-.101h.303v-.101h.405v-.101h.303v-.101h.404v-.102h.304v-.101h.303v-.101h.303v-.101h.404v-.101h.304v-.101h.303v-.101h.303v-.101h.304v-.101h.303v-.101h.303v-.101h.303v-.102h.304v-.101h.303v-.101h.303v-.101h.202v-.101h.304v-.101h.303v-.101h.202v-.101h.303v-.101h.304v-.101h.202v-.101h.303v-.102h.202v-.101h.304v-.101h.202v-.101h.202v-.101h.303v-.101h.202v-.101h.203v-.101h.202v-.101h.202v-.101h.202v-.102h.202v-.101h.203v-.101h.202v-.101h.202v-.101h.202v-.101h.303v-.101h.203v-.101h.202v-.101h.202v-.101h.202v-.101h.202v-.102h.202v-.101h.203v-.101h.202v-.101h.202v-.101h.202v-.101h.202v-.101h.203v-.101h.202v-.101h.202v-.101h.303v-.101h.202v-.102h.203v-.101h.202v-.101h.202v-.101h.202v-.101h.202v-.101h.202v-.101h.203v-.101h.202v-.101h.202v-.101h.202v-.101h.202v-.102h.203v-.101h.202v-.101h.303v-.101h.202v-.101h.202v-.101h.203v-.101h.202v-.101h.202v-.101h.202v-.101h.202v-.101h.202v-.102h.203v-.101h.202v-.101h.202v-.101h.202v-.101h.202v-.101h.203v-.101h.303v-.101h.202v-.101h.202v-.101h.202v-.101h.203v-.102h.202v-.101h.202v-.101h.202v-.101h.202v-.101h.203v-.101h.202v-.101h.202v-.101h.202v-.101h.202v-.101h.202v-.101h.304v-.102h.202v-.101h.202v-.101h.202v-.101h.202v-.101h.203v-.101h.202v-.101h.202v-.101h.202v-.101h.202v-.101h.203v-.101h.202v-.102h.202v-.101h.202v-.101h.202v-.101h.304v-.101h.202v-.101h.202v-.101h.101v130.813h-.101v.101h-.202v.101h-.304v.101h-.202v.101h-.202v.101h-.202v.101h-.202v.101h-.202v.101h-.203v.102h-.202v.101h-.303v.101h-.202v.101h-.202v.101h-.203v.101h-.202v.101h-.202v.101h-.202v.101h-.202v.101h-.304v.101h-.202v.102h-.202v.101h-.202v.101h-.202v.101h-.203v.101h-.202v.101h-.202v.101h-.303v.101h-.202v.101h-.203v.101h-.202v.101h-.202v.102h-.202v.101h-.202v.101h-.202v.101h-.304v.101h-.202v.101h-.202v.101h-.202v.101h-.304v.101h-.202v.101h-.303v.101h-.202v.102h-.202v.101h-.304v.101h-.303v.101h-.202v.101h-.303v.101h-.203v.101h-.303v.101h-.303v.101h-.303v.101h-.203v.101h-.303v.102h-.303v.101h-.303v.101h-.304v.101h-.303v.101h-.303v.101h-.304v.101h-.202v.101h-.303v.101h-.303v.101h-.405v.102h-.303v.101h-.303v.101h-.303v.101h-.405v.101h-.303v.101h-.303v.101h-.304v.101h-.404v.101h-.404v.101h-.304v.101h-.404v.102h-.303v.101h-.405v.101h-.404v.101h-.303v.101h-.405v.101h-.404v.101h-.404v.101h-.405v.101h-.404v.101h-.405v.101h-.404v.102h-.505v.101h-.405v.101h-.505v.101h-.405v.101h-.505v.101h-.404v.101h-.506v.101h-.505v.101h-.506v.101h-.505v.101h-.607v.102h-.505v.101h-.506v.101h-.505v.101h-.607v.101h-.707v.101h-.607v.101h-.606v.101h-.708v.101h-.607v.101h-.707v.101h-.809v.102h-.809v.101h-.808v.101h-.809v.101h-1.011v.101h-1.112v.101H222.4v.101h-1.112v.101h-1.415v.101h-1.82v.101h-1.82v.101zm2.123-5.054v.101h5.56v-.101h2.932v-.101h1.819v-.101h1.82v-.101h1.112v-.101h1.112v-.102h1.112v-.101h1.011v-.101h.809v-.101h.808v-.101h.809v-.101h.809v-.101h.809v-.101h.606v-.101h.607v-.101h.707v-.102h.607v-.101h.708v-.101h.505v-.101h.607v-.101h.505v-.101h.505v-.101h.506v-.101h.606v-.101h.506v-.101h.505v-.101h.405v-.102h.505v-.101h.405v-.101h.505v-.101h.404v-.101h.506v-.101h.404v-.101h.405v-.101h.404v-.101h.404v-.101h.405v-.101h.404v-.102h.404v-.101h.304v-.101h.404v-.101h.404v-.101h.304v-.101h.404v-.101h.303v-.101h.405v-.101h.303v-.101h.404v-.101h.304v-.102h.303v-.101h.303v-.101h.405v-.101h.303v-.101h.303v-.101h.303v-.101h.304v-.101h.303v-.101h.303v-.101h.304v-.101h.303v-.102h.303v-.101h.303v-.101h.203v-.101h.303v-.101h.303v-.101h.303v-.101h.203v-.101h.303v-.101h.303v-.101h.202v-.101h.304v-.102h.202v-.101h.303v-.101h.202v-.101h.303v-.101h.203v-.101h.202v-.101h.202v-.101h.303v-.101h.202v-.101h.203v-.101h.202v-.102h.202v-.101h.202v-.101h.202v-.101h.304v-.101h.202v-.101h.202v-.101h.202v-.101h.202v-.101h.203v-.101h.202v-.101h.202v-.102h.303v-.101h.202v-.101h.203v-.101h.202v-.101h.202v-.101h.202v-.101h.202v-.101h.203V386.576h-.102v.101h-.202v.101h-.202v.101h-.202v.101h-.202v.102h-.202v.101h-.203v.101h-.202v.101h-.202v.101h-.202v.101h-.303v.101h-.203v.101h-.202v.101h-.202v.101h-.202v.102h-.202v.101h-.203v.101h-.202v.101h-.202v.101h-.202v.101h-.202v.101h-.203v.101h-.202v.101h-.202v.101h-.202v.101h-.303v.102h-.203v.101h-.202v.101h-.202v.101h-.202v.101h-.202v.101h-.202v.101h-.203v.101h-.202v.101h-.202v.101h-.202v.101h-.202v.102h-.203v.101h-.202v.101h-.202v.101h-.303v.101h-.202v.101h-.203v.101h-.202v.101h-.202v.101h-.202v.101h-.202v.101h-.202v.102h-.203v.101h-.202v.101h-.202v.101h-.202v.101h-.202v.101h-.203v.101h-.303v.101h-.202v.101h-.202v.101h-.303v.101h-.203v.102h-.202v.101h-.303v.101h-.202v.101h-.304v.101h-.202v.101h-.303v.101h-.303v.101h-.203v.101h-.303v.101h-.303v.101h-.202v.102h-.304v.101h-.303v.101h-.303v.101h-.303v.101h-.304v.101h-.303v.101h-.303v.101h-.303v.101h-.304v.101h-.303v.101h-.303v.102h-.405v.101h-.303v.101h-.303v.101h-.405v.101h-.303v.101h-.404v.101h-.303v.101h-.304v.101h-.404v.101h-.404v.101h-.405v.102h-.303v.101h-.405v.101h-.404v.101h-.404v.101h-.405v.101h-.505v.101h-.404v.101h-.405v.101h-.505v.101h-.405v.101h-.404v.102h-.505v.101h-.506v.101h-.505v.101h-.506v.101h-.505v.101h-.607v.101h-.606v.101h-.607v.101h-.606v.101h-.607V398h-.607v.101h-.707v.101h-.809v.101h-.809v.101h-.707v.101h-.91v.101h-1.112v.101h-1.011v.101h-1.112v.101h-1.719v.101h-1.718v.102h-8.088v-.102h-2.426v-.101h-1.516v-.101h-1.517v-.101h-1.112v-.101h-1.213v-.101h-1.112v-.101h-.909v-.101h-1.011v-.101h-.91v-.101h-.91V398h-.809v-.102h-.809v-.101h-.808v-.101h-.708v-.101h-.708v-.101h-.707v-.101h-.708v-.101h-.809v-.101h-.606v-.101h-.708v-.101h-.606v-.102h-.607v-.101h-.708v-.101h-.606v-.101h-.607v-.101h-.606v-.101h-.607v-.101h-.606v-.101h-.506v-.101h-.606v-.101h-.506v-.101h-.606v-.102h-.506v-.101h-.606v-.101h-.506v-.101h-.606v-.101h-.506v-.101h-.505v-.101h-.506v-.101h-.505v-.101h-.506v-.101h-.505v-.101h-.506v-.102h-.505v-.101h-.505v-.101h-.506v-.101h-.505v-.101h-.405v-.101h-.505v-.101h-.506v-.101h-.505v-.101h-.404v-.101h-.506v-.101h-.404v-.102h-.506v-.101h-.404v-.101h-.506v-.101h-.404v-.101h-.505v-.101h-.405v-.101h-.404v-.101h-.506v-.101h-.404v-.101h-.404v-.101h-.506v-.102h-.404v-.101h-.405v-.101h-.404v-.101h-.505v-.101h-.203v-.101h.304v-.101h.505v-.101h.607v-.101h.505v-.101h.506v-.101h.404v-.102h.505v-.101h.506v-.101h.404v-.101h.506v-.101h.404v-.101h.506v-.101h.404v-.101h.404v-.101h.506v-.101h.404v-.101h.405v-.102h.404v-.101h.404v-.101h.405v-.101h.404v-.101h.404v-.101h.405v-.101h.303v-.101h.404v-.101h.405v-.101h.303v-.101h.404v-.102h.405v-.101h.303v-.101h.404v-.101h.304v-.101h.404v-.101h.303v-.101h.304v-.101h.404v-.101h.303v-.101h.303v-.101h.405v-.102h.303v-.101h.303v-.101h.304v-.101h.303v-.101h.303v-.101h.304v-.101h.303v-.101h.404v-.101h.303v-.101h.304v-.102h.202v-.101h.303v-.101h.303v-.101h.304v-.101h.303v-.101h.303v-.101h.304v-.101h.202v-.101h.303v-.101h.303v-.101h.304v-.102h.202v-.101h.303v-.101h.202v-.101h.303v-.101h.304v-.101h.202v-.101h.303v-.101h.303v-.101h.203v-.101h.303v-.101h.202v-.102h.303v-.101h.203v-.101h.303v-.101h.202v-.101h.202v-.101h.304v-.101h.202v-.101h.303v-.101h.202v-.101h.303v-.101h.203v-.102h.202v-.101h.202v-.101h.303v-.101h.202v-.101h.203v-.101h.202v-.101h.303v-.101h.202v-.101h.202v-.101h.203v-.101h.202v-.102h.303v-.101h.202v-.101h.202v-.101h.203v-.101h.202v-.101h.202v-.101h.202v-.101h.202v-.101h.203v-.101h.202v-.101h.202v-.102h.202v-.101h.303v-.101h.203v-.101h.202v-.101h.202v-.101h.202v-.101h.202v-.101h.202v-.101h.102v-.101h.202v-.101h.202v-.102h.202v-.101h.202v-.101h.203v-.101h.202v-.101h.202v-.101h.101v-.101h.202v-.101h.202v-.101h.203v-.101h.202v-.101h.202v-.102h.202v-.101h.101v-.101h.202v-.101h.203v-.101h.101v-.101h.202v-.101h.202v-.101h.202v-.101h.101v-.101h.202v-.101h.203v-.102h.101v-.101h.202v-.101h.202v-.101h.202v-.101h.101v-.101h.203v-.101h.202v-.101h.101v-.101h.202v-.101h.101v-.102h.202v-.101h.101v-.101h.203v-.101h.202v-.101h.101v-.101h.202v-.101h.101v-.101h.202v-.101h.101v-.101h.203v-.101h.202v-.102h.101v-.101h.202v-.101h.101v-.101h.202v-.101h.101v-.101h.203v-.101h.101v-.101h.202v-.101h.101v-.101h.101v-.101h.202v-.102h.101v-.101h.202v-.101h.102v-.101h.202v-.101h.101v-.101h.202v-.101h.101v-.101h.101v-.101h.202v-.101h.102v-.101h.202v-.102h.101v-.101h.101v-.101h.202v-.101h.101v-.101h.101v-.101h.202v-.101h.102v-.101h.202v-.101h.101v-.101h.101v-.101h.202v-.102h.101v-.101h.101v-.101h.202v-.101h.102v-.101h.101v-.101h.202v-.101h.101v-.101h.101v-.101h.202v-.101h.101v-.101h.101v-.102h.203v-.101h.101v-.101h.101v-.101h.202v-.101h.101v-.101h.101v-.101h.202v-.101h.101v-.101h.101v-.101h.203v-.101h.101v-.102h.101v-.101h.202v-.101h.101v-.101h.101v-.101h.101v-.101h.202v-.101h.102v-.101h.101v-.101h.202v-.101h.101v-.101h.101v-.102h.202v-.101h.101v-.101h.101v-.101h.203v-.101h.101v-.101h.101v-.101h.101v-.101h.202v-.101h.101v-.101h.101v-.101h.101v-.102h.202v-.101h.102v-.101h.101v-.101h.101v-.101h.202v-.101h.101v-.101h.101v-.101h.101v-.101h.202v-.101h.101v-.102h.102v-.101h.101v-.101h.202v-.101h.101v-.101h.101v-.101h.101v-.101h.202v-.101h.101v-.101h.102v-.101h.101v-.101h.202v-.102h.101v-.101h.101v-.101h.101v-.101h.202v-.101h.101v-.101h.101v-.101h.102v-.101h.202v-.101h.101v-.101h.101v-.101h.101v-.102h.202v-.101h.101v-.101h.101v-.101h.203v-.101h.101v-.101h.101v-.101h.101v-.101h.101v-.101h.101v-.101h.202v-.101h.101v-.102h.101v-.101h.101v-.101h.102v-.101h.202v-.101h.101v-.101h.101v-.101h.101v-.101h.101v-.101h.101v-.101h.202v-.101h.101v-.102h.102v-.101h.101v-.101h.101v-.101h.202v-.101h.101v-.101h.101v-.101h.101v-.101h.101v-.101h.101v-.101h.203v-.101h.101v-.102h.101v-.101h.101v-.101h.101v-.101h.101v-.101h.202v-.101h.101V361h.101v-.101h.101v-.101h.102v-.101h.202v-.101h.101v-.102h.101v-.101h.101v-.101h.101v-.101h.101v-.101h.202v-.101h.101v-.101h.102v-.101h.101v-.101h.101v-.101h.101v-.101h.202v-.102h.101v-.101h.101v-.101h.101v-.101h.101v-.101h.101v-.101h.102v-.101h.101v-.101h.101v-.101h.101v-.101h.202v-.101h.101v-.102h.101v-.101h.101v-.101h.101v-.101h.102v-.101h.101v-.101h.101v-.101h.101v-.101h.202v-.101h.101v-.101h.101v-.102h.101v-.101h.101v-.101h.101v-.101h.102v-.101h.101v-.101h.101v-.101h.101v-.101h.202v-.101h.101v-.101h.101v-.101h.101v-.102h.101v-.101h.101v-.101h.102v-.101h.101v-.101h.101v-.101h.202v-.101h.101v-.101h.101v-.101h.101v-.101h.101v-.101h.101v-.102h.101v-.101h.102v-.101h.101v-.101h.101v-.101h.202v-.101h.101v-.101h.101v-.101h.101v-.101h.101v-.101h.101v-.101h.101v-.102h.102v-.101h.101v-.101h.101v-.101h.101v-.101h.101v-.101h.101v-.101h.101v-.101h.101v-.101h.101v-.101h.101v-.101h.101v-.102h.102v-.101h.101v-.101h.101v-.101h.101v-.101h.101v-.101h.101v-.101h.101v-.101h.202v-.101h.101v-.101h.101v-.101h.102v-.102h.101v-.101h.101v-.101h.101v-.101h.101v-.101h.101v-.101h.101v-.101h.101v-.101h.101v-.101h.101v-.101h.101v-.101h.102v-.102h.101v-.101h.101v-.101h.101v-.101h.101v-.101h.101v-.101h.101v-.101h.101v-.101h.101v-.101h.101v-.101h.101v-.101h.102v-.102h.202v-.101h.101v-.101h.101v-.202h.101v-.101h.101v-.101h.101v-.101h.101v-.101h.101v-.101h.102v-.101h.101v-.102h.101v-.101h.101v-.101h.101v-.101h.101v-.101h.101v-.101h.101v-.101h.101v-.101h.101v-.101h.101v-.101h.102v-.102h.101v-.101h.101v-.101h.101v-.101h.101v-.101h.101v-.101h.101v-.101h.101v-.101h.101v-.101h.101v-.101h.101v-.101h.102v-.102h.101v-.101h.101v-.101h.101v-.101h.101v-.101h.101v-.101h.101v-.101h.101v-.101h.101v-.101h.101v-.101h.101v-.101h.102v-.102h.101v-.202h.101v-.101h.101v-.101h.101v-.101h.101v-.101h.101v-.101h.101v-.101h.101v-.101h.101v-.101h.101v-.102h.102v-.101h.101v-.101h.101v-.101h.101v-.101h.101v-.101h.101v-.101h.101v-.101h.101v-.101h.101v-.202h.101v-.102h.101v-.101h.102v-.101h.101v-.101h.101v-.101h.101v-.101h.101v-.101h.101v-.101h.101v-.101h.101v-.101h.101v-.203h.101v-.101h.101v-.101h.102v-.101h.101v-.101h.101v-.101h.101v-.101h.101v-.101h.101v-.101h.101v-.101h.101v-.101h.101v-.203h.101v-.101h.101v-.101h.102v-.101h.101v-.101h.101v-.101h.101v-.101h.101v-.101h.101v-.101h.101v-.101h.101v-.102h.101v-.202h.101v-.101h.101v-.101h.102v-.101h.101v-.101h.101v-.101h.101v-.101h.101v-.101h.101v-.101h.101v-.102h.101v-.202h.101v-.101h.101v-.101h.102v-.101h.101v-.101h.101v-.101h.101v-.202h.101v-.102h.101v-.101h.101v-.101h.101v-.101h.101v-.101h.101v-.101h.101v-.202h.102v-.101h.101v-.101h.101v-.101h.101v-.102h.101v-.101h.101v-.202h.101v-.101h.101v-.101h.101v-.101h.101v-.101h.101v-.101h.102v-.202h.101v-.102h.101v-.101h.101v-.101h.101v-.101h.101v-.101h.101v-.202h.101v-.101h.101v-.101h.101v-.101h.101v-.101h.102v-.102h.101v-.101h.101v-.202h.101v-.101h.101v-.101h.101v-.101h.101v-.101h.101v-.101h.101v-.202h.101v-.102h.101v-.101h.102v-.101h.101v-.101h.101v-.202h.101v-.101h.101v-.101h.101v-.101h.101v-.202h.101v-.102h.101v-.101h.101v-.101h.101v-.202h.102v-.101h.101v-.101h.101v-.101h.101v-.101h.101v-.202h.101v-.102h.101v-.101h.101v-.101h.101v-.202h.101v-.101h.101v-.101h.102v-.101h.101v-.202h.101v-.101h.101v-.102h.101v-.101h.101v-.202h.101v-.101h.101v-.101h.101v-.101h.101v-.101h.101v-.202h.102v-.101h.101v-.102h.101v-.101h.101v-.202h.101v-.101h.101v-.101h.101v-.101h.101v-.202h.101v-.101h.101v-.102h.101v-.101h.102v-.202h.101v-.101h.101v-.101h.101v-.101h.101v-.202h.101v-.101h.101v-.101h.101v-.203h.101v-.101h.101v-.101h.102v-.202h.101v-.101h.101v-.101h.101v-.202h.101v-.101h.101v-.102h.101v-.101h.101v-.202h.101v-.101h.101v-.101h.101v-.202h.102v-.101h.101v-.101h.101v-.203h.101v-.101h.101V324h.101v-.202h.101v-.101h.101v-.101h.101v-.202h.101v-.101h.101v-.101h.102v-.203h.101v-.101h.101v-.101h.101v-.101h.101v-.202h.101v-.101h.101v-.101h.101v-.202h.101v-.102h.101v-.101h.101v-.202h.102v-.101h.101v-.101h.101v-.202h.101v-.101h.101v-.101h.101v-.203h.101v-.101h.101v-.202h.101v-.101h.101v-.101h.101v-.202h.102v-.101h.101v-.202h.101v-.102h.101v-.101h.101v-.202h.101v-.101h.101v-.202h.101v-.101h.101v-.101h.101v-.203h.101v-.101h.102v-.202h.101v-.101h.101v-.101h.101v-.202h.101v-.101h.101v-.202h.101v-.102h.101v-.101h.101v-.202h.101v-.101h.101v-.202h.102v-.101h.101v-.101h.101v-.202h.101v-.102h.101v-.202h.101v-.101h.101v-.101h.101v-.202h.101v-.101h.101v-.202h.101v-.101h.102v-.102h.101v-.202h.101v-.101h.101v-.202h.101v-.101h.101v-.202h.101v-.101h.101v-.203h.101v-.101h.101v-.202h.101v-.101h.102v-.202h.101v-.101h.101v-.202h.101v-.101h.101v-.203h.101v-.101h.101v-.202h.101v-.101h.101v-.202h.101v-.101h.102v-.202h.101v-.102h.101v-.202h.101v-.101h.101v-.202h.101v-.101h.101v-.202h.101v-.101h.101v-.203h.101v-.101h.101v-.202h.102v-.101h.101v-.202h.101v-.101h.101v-.202h.101v-.101h.101v-.203h.101v-.101h.101v-.202h.101v-.101h.101v-.202h.101v-.101h.102v-.203h.101v-.101h.101v-.202h.101v-.202h.101v-.101h.101v-.202h.101v-.101h.101v-.203h.101v-.202h.101v-.101h.101v-.202h.102v-.101h.101v-.202h.101v-.202h.101v-.102h.101v-.202h.101v-.101h.101v-.202h.101v-.202h.101v-.101h.101v-.202h.101v-.102h.102v-.202h.101v-.202h.101v-.101h.101v-.202h.101v-.101h.101v-.202h.101v-.203h.101v-.101h.101v-.202h.101v-.101h.101v-.202h.102v-.202h.101v-.101h.101v-.203h.101v-.101h.101v-.202h.101v-.202h.101v-.101h.101v-.202h.101v-.203h.101v-.101h.101v-.202h.102v-.202h.101v-.101h.101v-.202h.101v-.202h.101v-.203h.101v-.101h.101v-.202h.101v-.202h.101v-.101h.101v-.202h.101v-.203h.102v-.202h.101v-.101h.101v-.202h.101v-.202h.101v-.101h.101v-.203h.101v-.202h.101v-.202h.101v-.101h.101v-.202h.101v-.202h.102v-.101h.101v-.203h.101v-.202h.101v-.202h.101v-.101h.101v-.202h.101v-.202h.101v-.102h.101v-.202h.101v-.202h.102v-.202h.101v-.101h.101v-.202h.101v-.203h.101v-.202h.101v-.202h.101v-.202h.101v-.101h.101v-.202h.101v-.203h.101v-.202h.102v-.202h.101v-.202h.101v-.101h.101v-.202h.101v-.203h.101v-.202h.101v-.202h.101v-.202h.101v-.101H278v-.202h.101v-.203h.102v-.202h.101v-.202h.101v-.202h.101v-.101h.101v-.202h.101v-.203h.101v-.202h.101v-.202h.101v-.202h.101v-.101h.101v-.202h.102v-.203h.101v-.202h.101v-.202h.101v-.202h.101v-.202h.101v-.203h.101v-.202h.101v-.202h.101v-.202h.101v-.202h.101v-.202h.102v-.102h.101v-.202h.101v-.202h.101v-.202h.101v-.202h.101v-.202h.101v-.203h.101v-.202h.101v-.202h.101v-.202h.101v-.202h.102v-.203h.101v-.202h.101v-.202h.101v-.202h.101v-.202h.101v-.202h.101v-.203h.101v-.202h.101v-.202h.101v-.202h.101v-.202h.102v-.203h.101v-.202h.101v-.202h.101v-.202h.101v-.202h.101v-.202h.101v-.203h.101v-.202h.101v-.303h.101v-.202h.101v-.202h.102v-.203h.101v-.202h.101v-.202h.101v-.202h.101v-.202h.101v-.304h.101v-.202h.101v-.202h.101v-.202h.101v-.202h.101v-.203h.102v-.202h.101v-.202h.101v-.303h.101v-.202h.101v-.203h.101v-.202h.101v-.202h.101v-.202h.101v-.202h.101v-.304h.102v-.202h.101v-.202h.101v-.202h.101v-.202h.101v-.203h.101v-.303h.101v-.202h.101v-.202h.101v-.303h.101v-.203h.101v-.202h.102v-.303h.101v-.202h.101v-.202h.101v-.203h.101v-.303h.101v-.202h.101v-.202h.101v-.304h.101v-.202h.101v-.202h.101v-.303h.102v-.202h.101v-.203h.101v-.202h.101v-.303h.101v-.202h.101v-.202h.101v-.304h.101v-.202h.101v-.202h.101v-.303h.101v-.203h.102v-.202h.101v-.303h.101v-.202h.101v-.303h.101v-.203h.101v-.303h.101v-.202h.101v-.303h.101v-.203h.101v-.303h.101v-.202h.102v-.303h.101v-.202h.101v-.304h.101v-.202h.101v-.303h.101v-.202h.101v-.304h.101v-.202h.101v-.303h.101v-.202h.101v-.304h.102v-.202h.101v-.303h.101v-.202h.101v-.303h.101v-.203h.101v-.303h.101v-.303h.101v-.202h.101v-.304h.101v-.303h.101v-.303h.102v-.202h.101v-.304h.101v-.303h.101v-.202h.101v-.303h.101v-.304h.101v-.303h.101v-.202h.101v-.303h.101v-.304h.101v-.303h.102v-.202h.101v-.303h.101v-.304h.101v-.202h.101v-.303h.101v-.303h.101v-.304h.101v-.202h.101v-.303h.101v-.303h.102v-.304h.101v-.303h.101v-.303h.101v-.304h.101v-.303h.101v-.303h.101v-.303h.101v-.304h.101v-.303h.101v-.303h.101v-.303h.102v-.304h.101v-.303h.101v-.303h.101v-.304h.101v-.303h.101v-.303h.101v-.303h.101v-.304h.101v-.303h.101v-.303h.101v-.304h.102v-.303h.101v-.303h.101v-.303h.101v-.304h.101v-.404h.101v-.303h.101v-.304h.101v-.404h.101v-.303h.101v-.303h.101v-.405h.102v-.303h.101v-.303h.101v-.405h.101v-.303h.101v-.303h.101v-.405h.101v-.303h.101v-.303h.101v-.303h.101v-.405h.101v-.303h.102v-.303h.101v-.405h.101v-.303h.101v-.404h.101v-.405h.101v-.404h.101v-.303h.101v-.405h.101v-.404h.101v-.303h.101v-.405h.102v-.404h.101v-.303h.101v-.405h.101v-.404h.101v-.405h.101v-.303h.101v-.404h.101v-.405h.101v-.303h.101v-.404h.101v-.405h.102v-.404h.101v-.404h.101v-.405h.101v-.404h.101v-.505h.101v-.405h.101v-.404h.101v-.405h.101v-.404h.101v-.404h.101v-.506h.102v-.404h.101v-.405h.101v-.404h.101v-.404h.101v-.405h.101v-.505h.101v-.404h.101v-.506h.101v-.404h.101v-.506h.101v-.505h.102v-.506h.101v-.404h.101v-.505h.101v-.506h.101v-.505h.101v-.405h.101v-.505h.101v-.506h.101v-.505h.101v-.405h.102v-.505h.101v-.505h.101v-.607h.101v-.505h.101v-.607h.101v-.505h.101v-.607h.101v-.505h.101v-.607h.101v-.607h.101v-.505h.102v-.607h.101v-.505h.101v-.607h.101v-.505h.101v-.607h.101v-.707h.101v-.708h.101v-.606h.101v-.708h.101v-.607h.101v-.707h.102v-.607h.101v-.707h.101v-.607h.101v-.708h.101v-.707h.101v-.809h.101v-.809h.101v-.809h.101v-.808h.101v-.809h.101v-.809h.102v-.808h.101v-.809h.101v-.809h.101v-.91h.101v-1.112h.101v-1.011h.101v-1.011h.101v-1.112h.101v-1.011h.101v-1.112h.101v-1.01h.102v-1.416h.101v-1.516h.101v-1.415h.101v-1.517h.101v-1.516h.101v-1.921h.101v-2.527h.101v-2.426h.101v-3.134h.101v-13.749h-.101v-3.74h-.101v-2.527h-.101v-2.224h-.101v-1.921h-.101v-1.82h-.101v-1.516h-.101v-1.517h-.101V138.8h-.101v-1.314h-.102v-1.213h-.101v-1.213h-.101v-1.213h-.101v-1.112h-.101v-1.011h-.101v-1.112h-.101v-1.011h-.101v-1.011h-.101v-.91h-.101v-1.011h-.101v-.91h-.102v-.91h-.101v-.808h-.101v-.91h-.101v-.809h-.101v-.91h-.101v-.809h-.101v-.808h-.101v-.708h-.101v-.809h-.101v-.707h-.101v-.809h-.102v-.708h-.101v-.707h-.101v-.708h-.101v-.708h-.101v-.707h-.101v-.708h-.101v-.708h-.101v-.606h-.101v-.708h-.101v-.707h-.101v-.607h-.102v-.708h-.101v-.606h-.101v-.607h-.101v-.606h-.101v-.607h-.101v-.606h-.101v-.607h-.101v-.606h-.101v-.607h-.101v-.607h-.101v-.505h-.102v-.607h-.101v-.606h-.101v-.607h-.101v-.505h-.101v-.506h-.101v-.606h-.101v-.505h-.101v-.607h-.101v-.506h-.101v-.505h-.102v-.607h-.101v-.505h-.101v-.505h-.101v-.506h-.101v-.505h-.101v-.506h-.101v-.505h-.101v-.506h-.101v-.505h-.101v-.506h-.101v-.505h-.102v-.506h-.101v-.505h-.101v-.505h-.101v-.405h-.101v-.505h-.101v-.506h-.101v-.505h-.101v-.405h-.101v-.505h-.101v-.404h-.101v-.506h-.102v-.404h-.101v-.506h-.101v-.404h-.101v-.506h-.101v-.404h-.101v-.505h-.101v-.405h-.101v-.404h-.101v-.506h-.101v-.404h-.101v-.404h-.102v-.506h-.101v-.404h-.101v-.404h-.101v-.405h-.101v-.404h-.101v-.506h-.101v-.404h-.101v-.404h-.101v-.405h-.101v-.404h-.101v-.405h-.102v-.404h-.101v-.404h-.101v-.405h-.101v-.404h-.101v-.404h-.101V74.1h-.101v-.404h-.101v-.303h-.101v-.405h-.101v-.404h-.101v-.404h-.102v-.405h-.101v-.303h-.101v-.404h-.101v-.405h-.101v-.404h-.101v-.303h-.101v-.405h-.101v-.404h-.101v-.303h-.101v-.405h-.101v-.303h-.102v-.405h-.101v-.404h-.101v-.303h-.101v-.405h-.101v-.303h-.101v-.303h-.101v-.404h-.101v-.304h-.101v-.404h-.101v-.303h-.101v-.304h-.102v-.404h-.101v-.303h-.101v-.304h-.101v-.303h-.101v-.303h-.101v-.404h-.101v-.304h-.101v-.303h-.101v-.303h-.101v-.304h-.101v-.303h-.102v-.404h-.101v-.303h-.101v-.304h-.101v-.303h-.101v-.202h-.303v-.101h-.304v-.102h-.303v-.1h-.303v-.102h-.303v-.1h-.304v-.102h-.404v-.1h-.303v-.102h-.304v-.101h-.303v-.101h-.303v-.101h-.303v-.101h-.405v-.102h-.303v-.1h-.303v-.102h-.304v-.1h-.303v-.102h-.303v-.1h-.404v-.102h-.304v-.101h-.303v-.101h-.404v-.101h-.304v-.101h-.303v-.101h-.404v-.102h-.304v-.1h-.303v-.102h-.303v-.1h-.405v-.102h-.303v-.101h-.404v-.101h-.303v-.101h-.405v-.101h-.303v-.101h-.404v-.102h-.304v-.1h-.404V55.5h-.303v-.1h-.405v-.102h-.303v-.1h-.404v-.102h-.304v-.101h-.404v-.101h-.303v-.101h-.405v-.101h-.303v-.102h-.404v-.1H278v-.102h-.404v-.1h-.303v-.102h-.405v-.101h-.404v-.101h-.404v-.101h-.304v-.101h-.404v-.101h-.404v-.101h-.405v-.102h-.303v-.1h-.404v-.102h-.405v-.1h-.404v-.102h-.405v-.101h-.404v-.101h-.404v-.101h-.405v-.101h-.404v-.101h-.404v-.101h-.405v-.102h-.404v-.1h-.404v-.102h-.405v-.1h-.404v-.102h-.405v-.101h-.404v-.101h-.404v-.101h-.506v-.101h-.404v-.101h-.404v-.101h-.506v-.102h-.404v-.1h-.405v-.102h-.505v-.1h-.405v-.102h-.404v-.101h-.505v-.101h-.405v-.101h-.404v-.101h-.506v-.101h-.404v-.101h-.505v-.102h-.506v-.1h-.404v-.102h-.506v-.1h-.505v-.102h-.404v-.101h-.506v-.101h-.505v-.101h-.405v-.101h-.505v-.101h-.506v-.101h-.505v-.101h-.506v-.102h-.505v-.1h-.506v-.102h-.505v-.1h-.505v-.102h-.506v-.101h-.505v-.101h-.506v-.101h-.505v-.101h-.506v-.102h-.505v-.1h-.607v-.102h-.505v-.1h-.506v-.102h-.606v-.1h-.506v-.102h-.606v-.101h-.506v-.101h-.505v-.101h-.607v-.101h-.505v-.102h-.607v-.1h-.606v-.102h-.607v-.1h-.606v-.102h-.607v-.1h-.505V46.3h-.607V46.2h-.606v-.101h-.607v-.101h-.607v-.101h-.606v-.102h-.708v-.1h-.606v-.102h-.607v-.1h-.606v-.102h-.708v-.1h-.607v-.102h-.606v-.101h-.708v-.101h-.707v-.101h-.708v-.101h-.607v-.101h-.707v-.102h-.708v-.1h-.708v-.102h-.707v-.1h-.708v-.102h-.707v-.101h-.809v-.101h-.708v-.101h-.708v-.101h-.808v-.101h-.708v-.102h-.809v-.1h-.808v-.102h-.809v-.1h-.809v-.102h-.809v-.101h-.808v-.101h-.809v-.101h-.809v-.101h-.91v-.101h-.909v-.101h-.809v-.102h-.91v-.1h-.91v-.102h-.91v-.1h-.909v-.102h-1.011v-.101h-.91v-.101h-.91v-.101h-1.112v-.101h-1.011v-.101h-1.011v-.101h-1.011v-.102h-.707V5.057h-89.366V41.65h-.707v.1h-1.213v.102h-1.112v.101h-1.213v.101h-1.011v.101h-1.011v.101h-1.011v.101h-1.011v.102h-1.011v.1h-.91v.102h-.91v.1h-.91v.102h-.91v.1h-.91v.102h-.808v.101h-.809v.101h-.91v.101h-.808v.101h-.708v.102h-.809v.1h-.808v.102h-.708v.1h-.809v.102h-.707v.101h-.708v.101h-.708v.101h-.808v.101h-.708v.101h-.708v.101h-.606v.102h-.708v.1h-.707v.102h-.607v.1h-.708v.102h-.606v.101h-.708v.101h-.606v.101h-.607v.101h-.708v.101h-.606v.101h-.607v.101h-.606v.102h-.607v.1h-.606v.102h-.607v.1h-.606v.102h-.607v.101h-.607v.101h-.505v.101H74.4v.101h-.606v.101h-.506v.102h-.606v.1h-.607v.102h-.505v.1h-.607v.102h-.505v.101h-.506v.101h-.606v.101h-.506v.101h-.606v.101h-.506v.101h-.505v.102h-.506v.1h-.606v.102h-.506v.1h-.505v.102h-.505v.101h-.506v.101h-.506v.101h-.505v.101h-.505v.101h-.506v.102h-.505v.1h-.506v.102h-.505v.1h-.506v.102h-.404v.1h-.506v.102h-.505v.101h-.505v.101h-.506v.101h-.404v.101h-.506v.102h-.505v.1H55.8v.102h-.506v.1h-.506v.102h-.404v.1h-.505v.102h-.405v.101h-.505v.101h-.404v.101h-.506v.101h-.404v.102h-.506v.1h-.404v.102h-.506v.1h-.404v.102h-.404v.1h-.506v.102h-.404v.101h-.404v.101h-.506v.101h-.404v.101h-.405v.102h-.505v.1h-.404v.102h-.405v.1h-.404v.102h-.506v.1h-.404v.102h-.404v.101h-.405v.101h-.404v.101h-.405v.101h-.404v.101h-.404v.102h-.506v.1h-.404v.102h-.404v.1h-.405v.102h-.404v.101h-.405v.101h-.404v.101h-.404v.101h-.304v.101h-.404v.102h-.404v.1h-.405v.102h-.404v.1h-.404v.102h-.405v.101h-.404v.101h-.405v.101h-.303v.101h-.404v.101h-.405v.101h-.404v.102h-.303v.1h-.405v.102h-.404v.1h-.404v.102h-.304v.101h-.404v.101h-.404v.101h-.304v.101h-.404v.101h-.404v.101h-.304v.102h-.404v.1h-.303v.102h-.405v.1H27.9v.102h-.404v.101h-.303v.101h-.405v.101h-.303v.101h-.405v.101h-.303v.101h-.404v.101h-.303v.102h-.304v.1h-.303v.102h-.404v.1h-.304v.102h-.303v.101h-.303v.101h-.405v.101h-.303v.101h-.303v.102h-.303v.1h-.405v.102h-.303v.1h-.101v.102h-.101v.303h-.101v.303h-.101v.405h-.102v.303h-.1v.303h-.102v.304h-.1v.303h-.102v.303h-.101v.303h-.101v.304h-.101v.303h-.101v.303h-.101v.303h-.101v.405h-.101v.303h-.102v.303h-.1v.304h-.102v.404h-.1v.303h-.102v.304h-.101v.404H18.8v.303H18.7v.405h-.101v.303h-.101v.404h-.102v.303h-.1v.405h-.102v.303h-.1v.404h-.102v.304h-.101v.404h-.101v.303h-.101v.405h-.101v.404h-.101v.303h-.101v.405h-.101v.404h-.102v.405h-.1v.303h-.102v.404h-.1v.405h-.102v.404h-.101v.404h-.101v.304h-.101v.404h-.101v.404h-.101v.405h-.102v.404h-.1v.404h-.102v.405h-.1v.404h-.102v.404h-.101v.405h-.101v.404h-.101v.405h-.101v.505h-.101v.404h-.101v.405h-.102v.404h-.1v.405h-.102v.404h-.1v.505h-.102v.405h-.101v.404h-.101v.506h-.101v.404h-.101v.404h-.101v.506h-.101v.404h-.102v.506h-.1v.404h-.102v.505h-.1v.405h-.102v.505h-.101v.506h-.101v.404h-.101v.505h-.101v.506h-.101v.505h-.101v.405h-.102v.505h-.1v.506h-.102v.505h-.1v.506h-.102v.505h-.101v.506h-.101v.505h-.101v.506h-.101v.505h-.101v.505h-.101v.506h-.102v.505h-.1v.506h-.102v.606h-.1v.506h-.102v.606h-.101v.506h-.101v.606h-.101v.506h-.101v.505h-.101v.607h-.101v.606h-.102v.607h-.1v.505h-.102v.607h-.1v.607h-.102v.606h-.101v.607h-.101v.606h-.101v.607h-.101v.606h-.101v.607H9.6v.707h-.1v.607h-.102v.708h-.1v.606h-.102v.708h-.101v.606h-.101v.708h-.101v.708h-.101v.707h-.101v.708H8.59v.708h-.102v.707h-.1v.809h-.102v.708h-.1v.808h-.102v.809h-.101v.708h-.101v.808h-.101v.91H7.68v.809H7.58v.91h-.101v.809h-.102v.909h-.1v.91h-.102v.91h-.1v1.011h-.102v.91h-.101v1.011h-.101v1.112H6.67v1.112h-.101v1.011h-.101v1.112h-.101v1.314h-.102v1.213h-.1v1.213h-.102v1.516h-.1v1.517H5.86v1.415H5.76v1.719h-.101v1.92h-.101v1.921h-.101v2.629h-.101v2.931h-.101v4.347h-.102v8.997h.102v4.651h.1v2.83h.102v2.022h.1v2.022h.102v2.022h.101v2.022h.101v1.617h.101v1.213h.101v1.112h.101v1.213h.101v1.213h.102v1.213h.1v1.213h.102v1.214h.1v1.112h.102v.909h.101v.809h.101v.809h.101v.91h.101v.808h.101v.809h.101v.91h.102v.809h.1v.808h.102v.91h.1v.809h.102v.809h.101v.707h.101v.607h.101v.708h.101v.606h.101v.607h.101v.707h.102v.607h.1v.606h.102v.708h.1v.607h.102v.707h.101v.607h.101v.606h.101v.708H9.4v.607H9.5v.606h.101v.506h.102v.505h.1v.506h.102v.505h.1v.607h.102v.505h.101v.505h.101v.506h.101v.505h.101v.506h.101v.505h.101v.607h.102v.505h.1v.506h.102v.505h.1v.506h.102v.505h.101v.607h.101v.404h.101v.404h.101v.405h.101v.505h.101v.405h.102v.404h.1v.505h.102v.405h.1v.404h.102v.506h.101v.404h.101v.404h.101v.405h.101v.505h.101v.405h.101v.404h.102v.505h.1v.405h.102v.404h.1v.506h.102v.404h.101v.404h.101v.405h.101v.404h.101v.303h.101v.405h.101v.404h.102v.303h.1v.405h.102v.404h.1v.303h.102v.405h.101v.404h.101v.303h.101v.405h.101v.404h.101v.303h.101v.405h.102v.404h.1v.303h.102v.405h.1v.404h.102v.303h.101v.405h.101v.404h.101v.303h.101v.405h.101v.303h.102v.404h.1v.304h.102v.303h.1v.303h.102v.304h.101v.404h.101v.303h.101v.303h.101v.304h.101v.303h.102v.404h.1v.304h.102v.303h.1v.303h.102v.303h.1v.304h.102v.404h.101v.303h.101v.304h.101v.303h.101v.303h.101v.405h.102v.303h.1v.303h.102v.303h.1v.304h.102v.404h.101v.303h.101v.304h.101v.303h.101v.202h.101v.303h.102v.304h.1v.303h.102v.303h.1v.202h.102v.304h.101v.303h.101v.303h.101v.303h.101v.203h.101v.303h.101v.303h.102v.303h.1v.304h.102v.202h.1v.303h.102v.303h.101v.304h.101v.303h.101v.202h.101v.303h.101v.304h.101v.303h.102v.303h.1v.202h.102v.304h.1v.303h.102v.303h.101v.304h.101v.202h.101v.303h.101v.202h.101v.304h.101v.202h.102v.303h.1v.202h.102v.303h.1v.203h.102v.303h.101v.202h.101v.303h.101v.203h.101v.303h.101v.202h.101v.303h.101v.202h.102v.304h.1v.202h.102v.303h.1v.202h.102v.304h.101v.202h.101v.303h.101v.202h.101v.304h.102v.202h.1v.303h.102v.202h.1v.303h.102v.203h.1v.303h.102v.202h.101v.303h.101v.203h.101v.303h.101v.202h.101v.202h.102v.304h.1v.202h.102v.202h.1v.202h.102v.303h.101v.203h.101v.202h.101v.202h.101v.303h.101v.202h.102v.203h.1v.202h.102v.303h.1v.202h.102v.202h.1v.203h.102v.202h.101v.303H28v.202h.101v.202h.101v.203h.101v.303h.102v.202h.1v.202h.102v.202h.1v.304h.102v.202h.101v.202h.101v.202h.101v.303h.101v.203h.101v.202h.102v.202h.1v.303h.102v.202h.1v.203h.102v.202h.101v.202h.101v.202h.101v.202h.101v.203h.101v.202h.101v.202h.102v.303h.1v.202h.102v.203h.1v.202h.102v.202h.101v.202h.101v.202h.101v.203h.101v.202h.101v.202h.101v.202h.102v.202h.1v.202h.102v.203h.1v.202h.102v.202h.101v.202h.101v.202h.101v.203h.101v.202h.101v.202h.101v.202h.102v.202h.1v.202h.102v.203h.1v.202h.102v.202h.101v.202h.101v.202h.101v.203h.101v.202h.101v.202h.101v.202h.102v.202h.1v.202h.102v.203h.1v.202h.102v.202h.101v.202h.101v.202h.101v.203h.101v.202h.101v.101h.101v.202h.101v.202h.102v.202h.1v.203h.102v.202h.1v.101h.102v.202h.101v.202h.101v.202h.101v.203h.101v.202h.102v.101h.1v.202h.102v.202h.1v.202h.102v.203h.1v.202h.102v.202h.101v.101h.101v.202h.101v.202h.101v.203h.102v.202h.1v.202h.102v.101h.1v.202h.102v.202h.1v.203h.102v.202h.101v.202h.101v.101h.101v.202h.101v.202h.102v.203h.1v.202h.102v.202h.1v.101h.102v.202h.1v.202h.102v.203h.101v.202h.101v.101h.101v.202h.101v.202h.102v.101h.1v.203h.102v.202h.1v.101h.102v.202h.101v.202h.101v.101h.101v.202h.101v.203h.101v.101h.101v.202h.102v.202h.1v.101h.102v.202h.1v.203h.102v.202h.101v.101h.101v.202h.101v.202h.101v.101h.101v.203h.101v.202h.102v.101h.1v.202h.102v.202h.1v.101h.102v.202h.101v.203h.101v.101h.101v.202h.101v.202h.101v.101h.101v.202h.101v.203h.102v.101h.1v.202h.102v.202h.1v.101h.102v.202h.101v.202h.101v.203h.101v.101h.101v.202h.101v.202h.102v.101h.1v.202h.102v.101h.1v.203h.102v.101h.101v.202h.101v.202h.101v.101h.101v.202h.101v.101h.102v.203h.1v.101h.102v.202h.1v.202h.102v.101h.1v.202h.102v.101h.101v.203h.101v.101h.101v.202h.101v.101h.102v.202h.1v.202h.102v.101h.1v.203h.102v.101h.1v.202h.102v.101h.101v.202h.101v.202h.101v.101h.101v.203h.101v.101h.102v.202h.1v.101h.102v.202h.1v.101h.102v.203h.101v.202h.101v.101h.101v.202h.101v.101h.101v.202h.102v.101h.1v.101h.102v.203h.1v.101h.102v.202h.1v.101h.102v.202h.101v.101h.101v.202h.101v.102h.101v.202h.102v.101h.1v.202h.102v.101h.1v.202h.102v.101h.101v.203h.101v.101h.101v.202h.101v.101h.101v.202h.101v.101h.102v.101h.1v.202h.102v.102h.1v.202h.102v.101h.101v.101h.101v.202h.101v.101h.101v.202h.101v.101h.101v.203h.102v.101h.1v.101h.102v.202h.1v.101h.102v.202h.101v.101h.101v.101h.101v.203h.101v.101h.101v.202h.101v.101h.102v.101h.1v.202h.102v.101h.1v.203h.102v.101h.101v.202h.101v.101h.101v.101h.101v.202h.101v.101h.101v.101h.102v.203h.1v.101h.102v.202h.1v.101h.102v.101h.101v.202h.101v.101h.101v.101h.101v.203h.101v.101h.101v.101h.101v.202h.102v.101h.1v.101h.102v.202h.1v.101h.102v.102h.101v.202h.101v.101h.101v.101h.101v.202h.102v.101h.1v.101h.102v.202h.1v.102h.102v.101h.1v.202h.102v.101h.101v.101h.101v.202h.101v.101h.101v.101h.102v.203h.1v.101h.102v.101h.1v.202h.102v.101h.1v.101h.102V324h.101v.101h.101v.101h.101v.203h.101v.101h.102v.101h.1v.202h.102v.101h.1v.101h.102v.101h.1v.202h.102v.102h.101v.101h.101v.101h.101v.202h.101v.101h.102v.101h.1v.101h.102v.202h.1v.101h.102v.102h.101v.202h.101v.101h.101v.101h.101v.101h.101v.202h.101v.101h.102v.101h.1v.101h.102v.203h.1v.101h.102v.101h.101v.101h.101v.202h.101v.101h.101v.101h.101v.101h.101v.203h.102v.101h.1v.101h.102v.101h.1v.202h.102v.101h.101v.101h.101v.101h.101v.203h.101v.101h.101v.101h.101v.202h.101v.101h.102v.101h.1v.101h.102v.101h.1v.101h.102v.203h.101v.101h.101v.101h.101v.101h.101v.101h.101v.202h.102v.101h.1v.101h.102v.101h.1v.101h.102v.203h.101v.101h.101v.101h.101v.101h.101v.101h.101v.202h.102v.101h.1v.101h.102v.101h.1v.102H65v.101h.1v.202h.102v.101h.101v.101h.101v.101h.101v.101h.101v.202h.102v.101h.1v.102h.102v.101h.1v.101h.102v.202h.1v.101h.102v.101h.101v.101h.101v.101h.101v.202h.101v.102h.102v.101h.1v.101h.102v.101h.1v.101h.102v.101h.1v.202h.102v.101h.101v.101h.101v.101h.101v.102h.101v.101h.102v.101h.1v.101h.102v.202h.1v.101h.102v.101h.1v.101h.102v.101h.101v.101h.101v.102h.101v.101h.101v.202h.102v.101h.1v.101h.102v.101h.1v.101h.102v.101h.101v.101h.101v.102h.101v.202h.101v.101h.101v.101h.101v.101h.102v.101h.1v.101h.102v.101h.1v.101h.102v.203h.101v.101h.101v.101h.101v.101h.101v.101h.101v.101h.101v.101h.102v.101h.1v.202h.102v.101h.1v.102h.102v.101h.101v.101h.101v.101h.101v.101h.101v.101h.101v.101h.101v.101h.101v.101h.102v.101h.1v.101h.102v.102h.1v.202h.102v.101h.101v.101h.101v.101h.101v.101h.101v.101h.101v.101h.102v.101h.1v.101h.102v.102h.1v.101h.102v.101h.101v.101h.101v.101h.101v.202h.101v.101h.101v.101h.102v.101h.1v.101h.102v.102h.1v.101h.102v.101h.1v.101h.102v.101h.101v.101h.101v.101h.101v.101h.101v.101h.102v.101h.1v.203h.102v.101h.1v.101h.102v.101h.1v.101h.102v.101h.101v.101h.101v.101h.101v.101h.101v.101h.102v.101h.1v.102h.102v.101h.1v.101h.102v.101h.1v.101h.102v.101h.101v.101h.101v.101h.101v.101h.101v.101h.102v.101h.1v.102h.102v.101h.1v.101h.102v.101h.1v.101h.102v.101h.101v.101h.101v.101h.101v.101h.101v.101h.102v.102h.1v.101h.102v.101h.1v.101h.102v.101h.101v.101h.101v.101h.101v.101h.101v.101h.101v.101h.101v.101h.102v.102h.1v.101h.102v.101h.1v.101h.102v.101h.101v.101h.101v.101h.101v.101h.101v.101h.101v.101h.101v.101h.102v.102h.1v.101h.102v.101h.1v.101h.102v.101h.101v.101h.101v.101h.101v.101h.101v.101h.101v.101h.101v.101h.102v.102h.1v.101h.102v.101h.1v.101h.102v.101h.202v.101h.101v.101h.101v.101h.101v.101h.101v.101h.102v.101h.1v.102h.102v.101h.1v.101h.102v.101h.101v.101h.101v.101h.101v.101h.101v.101h.101v.101h.101v.101h.102v.101h.1v.102h.102v.101h.1v.101h.102v.101h.202v.101h.101v.101h.101v.101h.101v.101h.102v.101h.1v.101h.102v.101h.1v.102h.102v.101h.1v.101h.102v.101h.101v.101h.101v.101h.202v.101h.102v.101h.1v.101h.102v.101h.1v.101h.102v.102h.1v.101h.102v.101h.101v.101h.101v.101h.101v.101h.101v.101h.102v.101h.1v.101h.203v.101h.1v.101h.102v.102h.101v.101h.101v.101h.101v.101h.101v.101h.101v.101h.203v.101h.1v.101h.102v.101h.1v.101h.102v.102h.101v.101h.101v.101h.101v.101h.101v.101h.203v.101h.1v.101h.102v.101h.1v.101h.102v.101h.101v.101h.101v.102h.101v.101h.202v.101h.101v.101h.102v.101h.1v.101h.102v.101h.1v.101h.102v.101h.101v.101h.202v.101h.101v.102h.101v.101h.101v.101h.102v.101h.1V361h.203v.101h.1v.101h.102v.101h.101v.101h.101v.101h.101v.101h.203v.102h.1v.101h.102v.101h.1v.101h.102v.101h.1v.101h.203v.101h.101v.101h.101v.101h.101v.101h.102v.101h.1v.102h.102v.101h.202v.101h.1v.101h.102v.101h.101v.101h.101v.101h.202v.101h.102v.101h.1v.101h.102v.101h.1v.102h.203v.101h.101v.101h.101v.101h.101v.101h.101v.101h.203v.101h.1v.101h.102v.101h.1v.101h.102v.101h.202v.102h.101v.101h.101v.101h.101v.101h.101v.101h.203v.101h.1v.101h.102v.101h.1v.101h.102v.101h.202v.101h.101v.102h.101v.101h.101v.101h.203v.101h.1v.101h.102v.101h.1v.101h.203v.101h.101v.101h.101v.101h.101v.101h.202v.102h.102v.101h.101v.101h.101v.101h.202v.101h.101v.101h.101v.101h.101v.101h.202v.101h.102v.101h.101v.102h.101v.101h.202v.101h.101v.101h.101v.101h.101v.101h.202v.101h.101v.101h.102v.101h.202v.101h.101v.101h.101v.102h.101v.101h.202v.101h.101v.101h.101v.101h.203v.101h.101v.101h.101v.101h.101v.101h.202v.101h.101v.101h.101v.102h.202v.101h.101v.101h.102v.101h.202v.101h.101v.101h.101v.101h.101v.101h.202v.101h.101v.101h.101v.101h.203v.102h.101v.101h.101v.101h.202v.101h.101v.101h.101v.101h.202v.101h.101v.101h.101v.101h.203v.101h.101v.101h.101v.102h.202v.101h.101v.101h.101v.101h.202v.101h.101v.101h.102v.101h.202v.101h.101v.101h.101v.101h.101v.101h.202v.102h.101v.101h.101v.101h.102v.101h.202v.101h.101v.101h.101v.101h.101v.101h.101v.101h.202v.101h.101v.101h.101v.102h.102v.101h.202v.101h.101v.101h.101v.101h.101v.101h.202v.101h.101v.101h.101v.101h.101v.101h.203v.101h.101v.102h.101v.101h.101v.101h.202v.101h.101v.101h.101v.101h.202v.101h.102v.101h.101v.101h.101v.101h.202v.101h.101v.102h.101v.101h.101v.101h.202v.101h.101v.101h.102v.101h.202v.101h.101v.101h.101v.101h.101v.101h.202v.102h.101v.101h.101v.101h.203v.101h.101v.101h.101v.101h.101v.101h.202v.101h.101v.101h.101v.101h.202v.101h.101v.102h.102v.101h.202v.101h.101v.101h.101v.101h.202v.101h.101v.101h.101v.101h.101v.101h.203v.101h.101v.101h.101v.102h.202v.101h.101v.101h.101v.101h.202v.101h.101v.101h.101v.101h.203v.101h.101v.101h.101v.101h.202v.101h.101v.102h.101v.101h.202v.101h.102v.101h.101v.101h.202v.101h.101v2.831h-.404v-.102h-.809v-.101h-1.011v-.101h-.91v-.101h-1.112v-.101h-1.213v-.101h-1.213v-.101h-1.415v-.101h-1.82v-.101h-2.224v-.101h-6.874v.101H97.55v.101h-1.92v.101h-1.618v.101H92.8v.101h-1.112v.101h-1.112v.101h-1.01v.101h-.81v.101h-.808v.102h-.91v.101h-.809v.101h-.707v.101h-.607v.101h-.708v.101h-.606v.101h-.708v.101h-.606v.101h-.607v.101h-.506v.101h-.505v.102h-.606v.101h-.506v.101h-.606v.101h-.506v.101h-.404v.101h-.506v.101h-.404v.101h-.506v.101h-.505v.101h-.404v.101h-.506v.102h-.404v.101H74.4v.101h-.404v.101h-.404v.101h-.405v.101h-.404v.101h-.405v.101h-.303v.101h-.404v.101h-.404v.102h-.304v.101h-.404v.101h-.404v.101h-.304v.101h-.303v.101h-.404v.101h-.304v.101h-.303v.101h-.404v.101h-.304v.101h-.303v.102h-.303v.101h-.303v.101h-.304v.101h-.303v.101h-.303v.101h-.303v.101h-.304v.101h-.303v.101h-.303v.101h-.203v.101h-.303v.102h-.303v.101h-.303v.101h-.203v.101h-.303v.101h-.202v.101h-.303v.101h-.304v.101h-.202v.101h-.202v.101h-.303v.101h-.202v.102h-.304v.101h-.202v.101h-.202v.101h-.202v.101h-.202v.101h-.203v.101h-.303v.101h-.202v.101h-.202v.101h-.202v.101h-.203v.102h-.202v.101h-.202v.101h-.202v.101h-.303v.101h-.203v.101h-.202v.101h-.202v.101h-.202v.101h-.202v.101h-.203v.101h-.202v.102h-.202v.101h-.303v.101h-.101v119.187h.1v-.101h.203v-.101h.202v-.101h.303v-.101h.203v-.101h.202v-.102h.202v-.101h.303v-.101h.203v-.101h.202v-.101h.202v-.101h.202v-.101h.303v-.101h.203v-.101h.202v-.101h.202v-.101h.303v-.102h.202v-.101h.203v-.101h.202v-.101h.303v-.101h.202v-.101h.202v-.101h.203v-.101h.202v-.101h.303v-.101h.202v-.101h.202v-.102h.202v-.101h.304v-.101h.202v-.101h.202v-.101h.202v-.101h.203v-.101h.303v-.101h.202v-.101h.202v-.101h.202v-.101h.304v-.102H65v-.101h.202v-.101h.202v-.101h.303v-.101h.203v-.101h.202v-.101h.202v-.101h.202v-.101h.303v-.101h.203v-.101h.202v-.102h.303v-.101h.202v-.101h.304v-.101h.202v-.101h.303v-.101h.202v-.101h.303v-.101h.304v-.101h.202v-.101h.303v-.101h.303v-.102h.203v-.101h.303v-.101h.303v-.101h.303v-.101h.304v-.101h.303v-.101h.303v-.101h.304v-.101h.303v-.101h.303v-.101h.303v-.102h.304v-.101h.303v-.101h.404v-.101h.304v-.101h.303v-.101h.303v-.101h.405v-.101h.303v-.101h.404v-.101h.303v-.102h.405v-.101h.303v-.101h.404v-.101h.405v-.101h.404v-.101h.405v-.101h.303v-.101h.404v-.101h.405v-.101h.404v-.101h.404v-.102h.506v-.101h.404v-.101h.506v-.101h.404v-.101h.404v-.101h.506v-.101h.505v-.101h.506v-.101h.505v-.101h.506v-.101h.505v-.102h.506v-.101h.606v-.101h.607v-.101h.606v-.101h.607v-.101h.606v-.101h.81v-.101h.707v-.101h.707v-.101h.81v-.101h.909v-.102h1.01v-.101h1.012v-.101h1.01v-.101h1.618v-.101h1.618v-.101h3.133v-.101h2.528v.101h2.729v.101h2.123v.101h1.314v.101h1.315v.101h1.314v.101h1.314v.102h.91v.101h.808v.101h.91v.101h.809v.101h.91v.101h.809v.101h.909v.101h.607v.101h.708v.101h.707v.101h.607v.102h.707v.101h.607v.101h.708v.101h.707v.101h.607v.101h.606v.101h.607v.101h.505v.101h.607v.101h.607v.101h.505v.102h.607v.101h.606v.101h.607v.101h.505v.101h.607v.101h.505v.101h.506v.101h.505v.101h.505v.101h.506v.101h.606v.102h.506v.101h.505v.101h.506v.101h.505v.101h.506v.101h.505v.101h.506v.101h.505v.101h.506v.101h.505v.102h.506v.101h.404v.101h.505v.101h.506v.101h.505v.101h.506v.101h.505v.101h.506v.101h.404v.101h.505v.101h.506v.102h.505v.101h.405v.101h.505v.101h.506v.101h.404v.101h.506v.101h.505v.101h.505v.101h.405v.101h.505v.101h.506v.102h.404v.101h.506v.101h.505v.101h.404v.101h.506v.101h.505v.101h.506v.101h.404v.101h.506v.101h.505v.101h.404v.102h.506v.101h.505v.101h.506v.101h.404v.101h.506v.101h.505v.101h.506v.101h.505v.101h.505v.101h.506v.101h.404v.102h.506v.101h.505v.101h.506v.101h.505v.101h.506v.101h.505v.101h.505v.101h.506v.101h.505v.101h.506v.101h.505v.102h.506v.101h.606v.101h.506v.101h.505v.101h.506v.101h.606v.101h.506v.101h.505v.101h.506v.101h.505v.101h.607v.102h.606v.101h.607v.101h.505v.101h.607v.101h.606v.101h.607v.101h.606v.101h.607v.101h.505v.101h.607v.101h.607v.102h.606v.101h.708v.101h.707v.101h.708v.101h.708v.101h.707v.101h.708v.101h.708v.101h.606v.101h.708v.101h.707v.102h.91v.101h.91v.101h.91v.101h.91v.101h.91v.101h.909v.101h.91v.101h.91v.101h1.213v.101h1.415v.102h1.416v.101h1.415v.101h1.415v.101h2.123v.101"></path></g></g><defs data-source="https://football-logos.cc"><linearGradient id="c" x1=".2" x2="314.949" y1="260.644" y2="260.644" gradientUnits="userSpaceOnUse"><stop stop-color="#BF935B"></stop><stop offset="1" stop-color="#FBC267"></stop></linearGradient></defs><!-- source: https://football-logos.cc --></svg>