<svg xmlns="http://www.w3.org/2000/svg" width="149.889" height="151.063"><!-- Source: https://football-logos.cc --><defs data-source="https://football-logos.cc"><linearGradient id="a" x1="7.32" x2="7.32" y1="4.546" y2="290.086" gradientTransform="scale(.9961 1.0039)" gradientUnits="userSpaceOnUse"><stop offset="0%" stop-color="#041327"></stop><stop offset="100%" stop-color="#031225"></stop></linearGradient></defs><path fill="url(#a)" stroke="#fff" stroke-miterlimit="10" stroke-width="18" d="M106 286 14 149 149 12l136 138-92 136z" style="fill:url(#a);stroke:#fff;stroke-width:10.4391;stroke-dasharray:none;stroke-opacity:1" transform="matrix(.52698 0 0 .52698 -3.842 -2.405)"></path><path d="M52.6 43.7h.3c1.2 2.2 2.7 4.5 4.6 6.9-2.6-.3-6-.6-9.9-.9-2.1-3.9-3.5-7.7-4.4-11.1 4.1 4.3 9.4 5.1 9.4 5.1M32 95.1h-2.1c-3.5-6.7-4.2-15.8-4.3-19.2h12.8c-.1 3.4-.8 12.5-4.3 19.2zM32 70.5q-6.15 0-11.4.3l-3.8-3.3v-9.4l3.3-3.3c3.6-.2 7.5-.3 11.8-.3 4.2 0 8.2.1 11.8.3l3.3 3.3v9.4l-3.8 3.3c-3.5-.2-7.3-.3-11.3-.3ZM26 40.4c1.5 1.7 3.6 2.5 6 2.5s4.5-.8 6-2.5c.8-.8 1.4-1.8 1.8-2.9.9 3.6 2.2 7.7 4.4 12.1-3.7-.2-7.8-.3-12.2-.3s-8.5.1-12.2.3c2.1-4.4 3.5-8.5 4.4-12.1.5 1.1 1.1 2.1 1.8 2.9" class="cls-1" style="fill:#d5dee5" transform="translate(43.24 25.04)" data-source="https://football-logos.cc"></path><path d="M25.8 27.8c2.1-.2 4.2-.3 6.2-.3s4.2.1 6.2.3v1.7000000000000002c0 3.1-.6 6.9-2.5 9-.9 1-2.2 1.5-3.7 1.5s-2.8-.5-3.7-1.5c-1.9-2-2.5-5.9-2.5-9v-1.7000000000000002M47.5 29v.6c.4 2.2 1.2 6 3.7 11-2.8-.9-8-3.6-9.5-11v-.4c0-.3-.1-.6-.1-1 2.3.3 4.4.6 6 .8zM32 0c2.5 0 4.5 3.5 4.5 6.4s-2 5.3-4.5 5.3-4.5-2.4-4.5-5.3S29.5 0 32 0M32 15c8.1 0 11.3 7.5 12 9.5-.8-.1-1.6-.2-2.5-.3l-3.3-.3c-2.1-.2-4.2-.3-6.2-.3s-4.2.1-6.2.3c-1.1 0-2.2.2-3.3.3-.9 0-1.7.2-2.5.3.7-2 3.9-9.5 12-9.5M16.5 29.5v-.6c1.7-.3 3.7-.6 6-.8 0 .3 0 .7-.1 1v.4c-1.4 7.4-6.6 10.1-9.5 11 2.5-5 3.3-8.8 3.6-11M11.1 43.8h.3s5.4-.8 9.4-5.1c-.9 3.4-2.3 7.2-4.4 11.1q-6 .45-9.9.9c1.8-2.4 3.3-4.7 4.6-6.9M2 72.4v-16c1.6-.2 4.5-.6 8.5-1l3.2 2.9v9.3L10 71.4c-3.8.3-6.6.7-8.1.9zM6.5 77.1c1.4-.2 3-.3 4.8-.5.8 5.3 2.7 10.4 5.8 14.9-8.8-5.2-10.5-14-10.6-14.4M14.3 76.3c2.5-.2 5.2-.3 8.1-.5.1 3.4.7 11.8 3.8 18.8-1.5-.2-2.8-.6-4-.9l-.3-.3c-4.3-4.7-6.9-10.9-7.7-17.1ZM46.7 106.1v4.5H17.2v-4.5c7.8 0 7.8-6.4 7.8-6.5V99c1.6.3 4 .6 7 .6s5.4-.3 7-.6v.6c0 .2 0 6.5 7.7 6.5M42 93.4c0 .1-.2.2-.3.3-1.3.4-2.6.7-4 .9 3.1-7 3.7-15.4 3.9-18.8 3 .1 5.7.3 8.2.5-.8 6.2-3.4 12.3-7.7 17.1zM46.8 91.5c3.1-4.4 5.1-9.6 5.9-14.9 1.8.2 3.4.3 4.8.5 0 .3-1.8 9.3-10.6 14.4zM62 72.4c-1.5-.2-4.3-.6-8-.9l-3.7-3.8v-9.3l3.3-2.9c4 .4 6.9.7 8.5 1v16z" class="cls-1" style="fill:#d5dee5" transform="translate(43.24 25.04)" data-source="https://football-logos.cc"></path><!-- source: https://football-logos.cc --></svg>