<svg xmlns="http://www.w3.org/2000/svg" viewBox="331.76 189.64 403.15 420.73"><!-- Source: https://football-logos.cc --><defs data-source="https://football-logos.cc"><clipPath id="a" clipPathUnits="userSpaceOnUse"><path d="M-268.626 175.298h800v-600h-800Z"></path></clipPath><clipPath id="b" clipPathUnits="userSpaceOnUse"><path d="M-531.374 175.298h800v-600h-800Z"></path></clipPath><clipPath id="c" clipPathUnits="userSpaceOnUse"><path d="M-400 142.227h800v-600h-800Z"></path></clipPath><clipPath id="d" clipPathUnits="userSpaceOnUse"><path d="M-306.847 196.654h800v-600h-800Z"></path></clipPath><clipPath id="e" clipPathUnits="userSpaceOnUse"><path d="M-342.712 202.004h800v-600h-800Z"></path></clipPath><clipPath id="f" clipPathUnits="userSpaceOnUse"><path d="M-476.383 224.397h800v-600h-800Z"></path></clipPath><clipPath id="g" clipPathUnits="userSpaceOnUse"><path d="M-268.129 228.497h800v-600h-800Z"></path></clipPath><clipPath id="h" clipPathUnits="userSpaceOnUse"><path d="M-309.106 190.053h800v-600h-800Z"></path></clipPath><clipPath id="i" clipPathUnits="userSpaceOnUse"><path d="M-339.216 206.48h800v-600h-800Z"></path></clipPath><clipPath id="j" clipPathUnits="userSpaceOnUse"><path d="M-370.607 190.118h800v-600h-800Z"></path></clipPath><clipPath id="k" clipPathUnits="userSpaceOnUse"><path d="M-405.774 206.48h800v-600h-800Z"></path></clipPath><clipPath id="l" clipPathUnits="userSpaceOnUse"><path d="M-449.92 184.532h800v-600h-800Z"></path></clipPath><clipPath id="m" clipPathUnits="userSpaceOnUse"><path d="M-471.802 234.74h800v-600h-800Z"></path></clipPath><clipPath id="n" clipPathUnits="userSpaceOnUse"><path d="M-502.59 203.853h800v-600h-800Z"></path></clipPath><clipPath id="o" clipPathUnits="userSpaceOnUse"><path d="M-539.417 184.532h800v-600h-800Z"></path></clipPath><clipPath id="p" clipPathUnits="userSpaceOnUse"><path d="M-390.927 156.443h800v-600h-800Z"></path></clipPath><clipPath id="q" clipPathUnits="userSpaceOnUse"><path d="M-409.684 174.453h800v-600h-800Z"></path></clipPath><clipPath id="r" clipPathUnits="userSpaceOnUse"><path d="M-504.407 303.722h800v-600h-800Z"></path></clipPath><clipPath id="s" clipPathUnits="userSpaceOnUse"><path d="M-423.14 422.389h800v-600h-800Z"></path></clipPath><clipPath id="t" clipPathUnits="userSpaceOnUse"><path d="M-443.832 301.948h800v-600h-800Z"></path></clipPath><clipPath id="u" clipPathUnits="userSpaceOnUse"><path d="M-440.583 281.264h800v-600h-800Z"></path></clipPath><clipPath id="v" clipPathUnits="userSpaceOnUse"><path d="M-417.038 399.835h800v-600h-800Z"></path></clipPath><clipPath id="w" clipPathUnits="userSpaceOnUse"><path d="M-457.788 375.725h800v-600h-800Z"></path></clipPath><clipPath id="x" clipPathUnits="userSpaceOnUse"><path d="M-431.527 328.727h800v-600h-800Z"></path></clipPath><clipPath id="y" clipPathUnits="userSpaceOnUse"><path d="M-382.962 399.835h800v-600h-800Z"></path></clipPath><clipPath id="z" clipPathUnits="userSpaceOnUse"><path d="M-342.212 375.725h800v-600h-800Z"></path></clipPath><clipPath id="A" clipPathUnits="userSpaceOnUse"><path d="M-368.473 328.727h800v-600h-800Z"></path></clipPath></defs><path d="M0 0h-19.806v-68.017L0-68.018c0-9.526.016-108.207.016-108.207 0-55.115 39.955-88.785 88.778-101.017v307.02C39.857 22.51 0 5.317 0 0" clip-path="url(#a)" style="fill:#d90000;fill-opacity:1;fill-rule:nonzero;stroke:none" transform="matrix(1.33333 0 0 -1.33333 358.168 233.73)"></path><path d="M0 0c0 5.317-39.857 22.51-88.794 29.777v-307.019C-39.972-265.01-.017-231.34-.017-176.225c0 0 .017 98.681.017 108.207l19.806.001V0Z" clip-path="url(#b)" style="fill:#d90000;fill-opacity:1;fill-rule:nonzero;stroke:none" transform="matrix(1.33333 0 0 -1.33333 708.499 233.73)"></path><path d="M0 0c-14.455 0-28.874-1.258-42.58-3.293v-307.02c13.723-3.438 28.145-5.183 42.58-5.234 14.434.051 28.857 1.796 42.58 5.234V-3.294C28.874-1.258 14.455 0 0 0" clip-path="url(#c)" style="fill:#fff;fill-opacity:1;fill-rule:nonzero;stroke:none" transform="matrix(1.33333 0 0 -1.33333 533.333 189.635)"></path><path d="M0 0c.381 1.431.894 2.337 1.24 2.688.376.339.387.375 1.018.417.632-.042.643-.078 1.018-.417.544-.502 1.359-2.368 1.74-5.144.417-2.762.541-6.325.539-10.196.011-5.152-.241-9.796-1.038-12.653-.38-1.429-.893-2.338-1.241-2.689-.375-.339-.386-.373-1.018-.417-.631.044-.642.078-1.018.417-.543.503-1.357 2.369-1.738 5.146-.417 2.761-.541 6.325-.539 10.196C-1.05-7.5-.797-2.855 0 0m-35.222 2.739a5.5 5.5 0 0 0 1.558-.718c1.274-.858 2.174-2.416 2.731-4.781.55-2.325.657-5.216.653-7.922 0-.971-.01-1.92-.01-2.826l.002-2.004c.032-3.838-.209-7.526-1.245-9.6-.513-1.053-1.083-1.718-1.996-2.265a6.4 6.4 0 0 0-1.693-.664zm48.174 10.035c-2.71 2.226-6.389 3.52-10.694 3.5-4.305.02-7.985-1.274-10.693-3.5-4.083-3.36-5.827-8.203-6.712-12.799a46 46 0 0 1-.627-4.765c-.315 2.589-.783 4.869-1.396 6.894-1.773 6.042-5.231 9.915-9.251 11.706-3.985 1.804-8.011 1.79-11.392 1.809h-11.948v-56.543h8.704c3.423.004 6.664.056 9.755.57 2.313.388 4.565 1.049 6.641 2.232 3.138 1.759 5.661 4.768 7.149 8.803.859 2.295 1.452 4.923 1.808 7.986.275-2.802.793-5.747 1.783-8.562 1.077-3.021 2.767-5.969 5.486-8.185 2.708-2.227 6.388-3.522 10.693-3.501l.1-.001c4.263 0 7.907 1.292 10.594 3.502 4.083 3.36 5.827 8.203 6.713 12.801.874 4.629.877 9.248.881 12.627-.02 4.515.022 11.185-2.109 17.241-1.078 3.02-2.767 5.97-5.485 8.185" clip-path="url(#d)" style="fill:#000;fill-opacity:1;fill-rule:nonzero;stroke:none" transform="matrix(1.33333 0 0 -1.33333 409.129 262.206)"></path><path d="M0 0v7.767c.078-.135.163-.336.276-.667.241-.773.362-2.136.354-3.757C.641 1.627.316.525 0 0m31.392 8.089a5.5 5.5 0 0 0 1.557-.718c1.274-.857 2.174-2.415 2.732-4.78.548-2.326.657-5.217.651-7.922 0-.973-.01-1.922-.01-2.827 0-.669.004-1.337.004-2.002.032-3.839-.21-7.527-1.245-9.603-.513-1.052-1.083-1.718-1.996-2.264a6.3 6.3 0 0 0-1.693-.664zm8.799 11.069c-3.984 1.806-8.009 1.791-11.389 1.811H16.854v-49.085L8.944-9.928q.792.477 1.467 1.059c2.235 1.916 3.483 4.408 4.224 6.806.737 2.416.982 4.806.985 6.85 0 3.502-.604 6.412-1.804 8.796-1.785 3.616-4.972 5.653-7.905 6.497-2.952.883-5.783.88-7.897.889h-12.552v-56.543H0v10.871l4.601-10.871h20.956c3.422.003 6.665.055 9.755.569 2.313.389 4.565 1.05 6.641 2.233 3.138 1.758 5.66 4.766 7.151 8.802 1.513 4.048 2.205 9.132 2.211 15.812-.002 6.51-.646 11.569-1.87 15.612-1.774 6.042-5.232 9.913-9.254 11.704" clip-path="url(#e)" style="fill:#000;fill-opacity:1;fill-rule:nonzero;stroke:none" transform="matrix(1.33333 0 0 -1.33333 456.95 269.339)"></path><path d="M0 0c-1.038-.465-1.874-.658-3.071-.667-1.898.021-2.928.493-3.832 1.22C-8.238 1.626-9.3 3.845-9.855 6.597c-.569 2.724-.666 5.789-.663 8.166-.016 3.041.07 7.647 1.188 11.027.546 1.692 1.309 2.99 2.185 3.774.892.772 1.864 1.257 3.773 1.286.92.007 2.033-.34 3.43-.957l3.713-1.621V1.725Zm-34.735-.473-.004 9.832h9.405c.232-3.21.759-6.592 1.889-9.832zm11.442 31.124a33 33 0 0 1-.844-2.852c-.472-1.921-.781-3.853-.988-5.73h-9.62l-.002 8.582zm-43.819-8.255v7.761c.078-.135.162-.336.275-.664.24-.773.36-2.137.353-3.756.01-1.714-.311-2.814-.628-3.341M63.033 43.362H22.711V24.041h-4.403v19.321H3.771v-1.543l-.726.371c-2.632 1.381-5.326 1.859-8.154 1.828-4.473.014-8.297-1.222-11.226-3.372-3.256-2.388-5.306-5.653-6.632-9.103v11.819h-27.292V-5.722l-7.911 18.187c.527.317 1.019.672 1.468 1.058 2.235 1.917 3.482 4.41 4.224 6.808.738 2.415.983 4.806.987 6.85 0 3.502-.606 6.412-1.805 8.796-1.785 3.617-4.974 5.653-7.906 6.497-2.953.881-5.782.88-7.899.888h-12.55v-56.543h14.539v10.868l4.598-10.868h39.547V-1.74c.238-.585.489-1.167.772-1.738 1.427-2.866 3.542-5.533 6.518-7.423 2.972-1.899 6.716-2.946 11.096-2.938h.084c2.493 0 5.151.417 7.654 1.824l.614.342v-1.508h14.537v24.512h4.403v-24.512h14.54v43.832h6.212v-43.832h14.54v43.833l8.527-.001v12.711z" clip-path="url(#f)" style="fill:#000;fill-opacity:1;fill-rule:nonzero;stroke:none" transform="matrix(1.33333 0 0 -1.33333 635.177 299.197)"></path><path d="M0 0v38.379c12.754.656 11.923-12.42 11.923-20.044C11.923 9.923 12.452-.328 0 0m.906 43.965h-8.453v-49.55h5.208c13.508 0 22.262 1.052 22.262 23.92 0 25.104-10.111 25.63-19.017 25.63" clip-path="url(#g)" style="fill:#fff;fill-opacity:1;fill-rule:nonzero;stroke:none" transform="matrix(1.33333 0 0 -1.33333 357.505 304.663)"></path><path d="M0 0c5.962 0 6.792-8.739 6.792-19.254S5.962-38.509 0-38.509s-6.792 8.74-6.792 19.255S-5.962 0 0 0m0-44.688c14.64 0 14.791 16.496 14.791 25.434 0 8.937-.151 25.431-14.791 25.431s-14.791-16.494-14.791-25.431S-14.64-44.688 0-44.688" clip-path="url(#h)" style="fill:#fff;fill-opacity:1;fill-rule:nonzero;stroke:none" transform="matrix(1.33333 0 0 -1.33333 412.14 253.404)"></path><path d="M0 0v16.362h1.207c5.735.132 6.415-3.811 6.415-8.543C7.622 2.825 5.66-.33 0 0m17.237-25.246L7.772-3.483c6.264.985 7.849 8.083 7.849 12.747 0 12.421-8.602 12.684-14.111 12.684h-9.056v-49.55H0v24.249h.151l10.263-24.249h7.849z" clip-path="url(#i)" style="fill:#fff;fill-opacity:1;fill-rule:nonzero;stroke:none" transform="matrix(1.33333 0 0 -1.33333 452.288 275.307)"></path><path d="M0 0c12.755.656 11.924-12.42 11.924-20.044 0-8.412.528-18.663-11.924-18.335zm19.924-20.044C19.924 5.061 9.81 5.586.906 5.586h-8.451v-49.55h5.206c13.508 0 22.263 1.052 22.263 23.92" clip-path="url(#j)" style="fill:#fff;fill-opacity:1;fill-rule:nonzero;stroke:none" transform="matrix(1.33333 0 0 -1.33333 494.143 253.49)"></path><path d="M0 0v16.362h1.205c5.735.132 6.416-3.811 6.416-8.543C7.621 2.825 5.659-.33 0 0m15.621 9.264c0 12.421-8.603 12.684-14.112 12.684h-9.056v-49.55H0v24.249h.149l10.263-24.249h7.85L7.771-3.483c6.264.985 7.85 8.083 7.85 12.747" clip-path="url(#k)" style="fill:#fff;fill-opacity:1;fill-rule:nonzero;stroke:none" transform="matrix(1.33333 0 0 -1.33333 541.033 275.307)"></path><path d="M0 0h-20.299v-49.55H0v5.717h-11.767l-.006 16.823h10.414v5.718h-10.416l-.006 15.574H0z" clip-path="url(#l)" style="fill:#fff;fill-opacity:1;fill-rule:nonzero;stroke:none" transform="matrix(1.33333 0 0 -1.33333 599.893 246.043)"></path><path d="M0 0c2.189 0 4.15.329 6.037 1.38v5.783a10.5 10.5 0 0 0-4.527-.984c-10.339 0-10.942 12.353-10.942 18.925 0 6.178.075 19.584 10.641 19.584 1.734 0 3.32-.591 4.828-1.249v5.98c-2.186 1.117-3.999 1.445-6.565 1.445-15.469 0-16.903-16.296-16.903-26.219C-17.431 14.262-15.394 0 0 0" clip-path="url(#m)" style="fill:#fff;fill-opacity:1;fill-rule:nonzero;stroke:none" transform="matrix(1.33333 0 0 -1.33333 629.07 312.987)"></path><path d="M0 0h-11.396v19.321h-7.544v-49.55h7.544v24.512H0v-24.512h7.547v49.55H0Z" clip-path="url(#n)" style="fill:#fff;fill-opacity:1;fill-rule:nonzero;stroke:none" transform="matrix(1.33333 0 0 -1.33333 670.121 271.805)" data-source="https://football-logos.cc"></path><path d="M0 0h-24.978v-5.718h8.903V-49.55h7.548v43.832H0Z" clip-path="url(#o)" style="fill:#fff;fill-opacity:1;fill-rule:nonzero;stroke:none" transform="matrix(1.33333 0 0 -1.33333 719.223 246.043)"></path><path d="M0 0h5.226v2.314h-8.28v-20.059H0v9.126h4.706v2.314H0z" clip-path="url(#p)" style="fill:#000;fill-opacity:1;fill-rule:nonzero;stroke:none" transform="matrix(1.33333 0 0 -1.33333 521.236 208.591)"></path><path d="M0 0c.885 0 1.681.133 2.443.558v2.341A4.24 4.24 0 0 0 .61 2.5c-4.184 0-4.428 5.002-4.428 7.661 0 2.501.03 7.929 4.307 7.929.702 0 1.344-.24 1.954-.506v2.421c-.886.452-1.618.586-2.656.586-6.263 0-6.845-6.599-6.845-10.615C-7.058 5.772-6.233 0 0 0" clip-path="url(#q)" style="fill:#000;fill-opacity:1;fill-rule:nonzero;stroke:none" transform="matrix(1.33333 0 0 -1.33333 546.245 232.604)"></path><path d="M0 0c-.877 13.573-5.749 24.113-14.48 31.332-13.374 11.048-31.319 10.665-35.398 10.417-13.432 9.528-27.399 15.449-41.534 17.595a81 81 0 0 1-12.995.918 81 81 0 0 1-12.995-.918c-14.135-2.146-28.103-8.067-41.535-17.595-4.08.248-22.024.631-35.398-10.417-8.73-7.219-13.603-17.759-14.479-31.332-.136-1.014-1.207-10.39 3.441-24.02 4.392-12.893 15-32.238 40.575-51.196.497-.414 6.652-5.708 2.486-10.762a2 2 0 0 1-.282-.458c-.533-1.177-1.572-4.088.199-5.722 1.139-1.054 2.812-1.072 4.968-.063 1.011.35 3.55 1.814 5.165 16.328 1.462 13.143-7.092 28.165-16.15 44.069l-.232.411c-5.733 10.065 3.624 21.008 9.687 26.619-.564-3.949-.619-9.368 1.515-15.027 2.508-6.651 4.829-11.36 7.071-15.913 1.224-2.486 4.367-4.831 5.481-7.356 3.307-7.494 5.233-22.05 5.559-30.951.014-.42.307-.809.548-1.124.059-.974.015-1.94.18-2.886.489-2.863.766-7.319 1.056-12.037.805-12.962 1.717-27.654 7.471-31.85 6.796-4.949 15.643-9.184 16.733-9.698 3.483-2.178 6.511-2.965 8.936-3.102 2.425.137 5.453.924 8.935 3.102 1.089.514 9.938 4.749 16.734 9.698 5.754 4.196 6.665 18.888 7.469 31.85.291 4.718.569 9.174 1.056 12.037.165.946.122 1.912.182 2.886.24.315.534.704.548 1.124.326 8.901 2.252 23.457 5.558 30.951 1.114 2.525 4.258 4.87 5.482 7.356 2.242 4.553 4.562 9.262 7.071 15.913 2.133 5.659 2.079 11.078 1.515 15.027 6.061-5.611 15.419-16.554 9.686-26.619l-.232-.411c-9.059-15.904-17.612-30.926-16.151-44.069 1.616-14.514 4.156-15.978 5.165-16.328 2.158-1.009 3.829-.991 4.969.063 1.772 1.634.732 4.545.199 5.722q-.113.246-.281.458c-4.167 5.054 1.988 10.348 2.485 10.762C-18.442-56.258-7.833-36.913-3.441-24.02 1.206-10.39.135-1.014 0 0" clip-path="url(#r)" style="fill:#000;fill-opacity:1;fill-rule:nonzero;stroke:none" transform="matrix(1.33333 0 0 -1.33333 672.543 404.962)"></path><path d="M0 0c-6.76-4.926-16.04-9.288-16.132-9.334a2 2 0 0 1-.236-.129c-2.735-1.731-5.018-2.374-6.773-2.522-1.755.148-4.038.791-6.772 2.522a2 2 0 0 1-.236.129c-.093.046-9.372 4.408-16.133 9.334-1.147.837-2.054 2.608-2.778 4.942 2.732-2.585 5.4-3.973 5.611-4.08 1.599-.812 4.164-2.399 5.597-3.464.193-.141 4.768-3.518 7.718-4.949 3.136-1.523 5.738-1.003 6.993-.346 1.256-.657 3.857-1.177 6.994.346 2.95 1.431 7.524 4.808 7.717 4.949C-6.996-1.537-4.432.05-2.832.862c.21.107 2.879 1.495 5.61 4.08C2.054 2.608 1.147.837 0 0" clip-path="url(#s)" style="fill:#fff;fill-opacity:1;fill-rule:nonzero;stroke:none" transform="matrix(1.33333 0 0 -1.33333 564.187 563.185)"></path><path d="M0 0c-.208-.064-5.147-1.571-9.929-6.182-4.377-4.219-9.47-11.955-8.897-24.843l1.055-23.508c.041-.879-.837-7.159 0-7.409.079-.165 1.649 5.182 1.744 4.947.048-.123 4.83-12.447 3.192-21.987-.525-3.071-.796-7.423-1.105-12.46-.228-3.662-.498-7.986-.939-12.177a2 2 0 0 1-.41-.912c-1.207-7.05-9.16-11.215-9.241-11.254-1.793-.916-4.573-2.634-6.191-3.831-.041-.03-4.45-3.286-7.045-4.546a9 9 0 0 0-1.045-.433s-1.388-.637-1.68 0c-.624 1.363-2.134 3.232-2.183 4.47q-.025.687-.047 1.395c.118 3.724.118 6.614-.006 8.651.037.727.091 1.267.162 1.552.382.656 2.412 1.432 6.655 2.609q.027.01.056.017c.251-.017.795-.144 1.205-.239 1.758-.402 4.417-1.015 7.383.033 10.347 3.657 9.624 9.237 9.156 10.856-.88 3.063-3.986 5.195-6.779 4.65-4.715-.913-5.247-3.223-5.298-3.907-.051-.719-.109-1.549-.006-2.304-1.088-1.529-3.451-4.142-6.692-5.117-.053-.013-.108-.034-.16-.05q-.015-.007-.021-.007c-3.379-.938-5.433-1.786-6.766-2.883-1.334 1.097-3.387 1.945-6.766 2.883-.006 0-.01.003-.022.007-.052.016-.107.037-.159.05-3.242.975-5.604 3.588-6.692 5.117.102.755.044 1.585-.008 2.304-.049.684-.583 2.994-5.296 3.907-2.793.545-5.899-1.587-6.78-4.65-.468-1.619-1.191-7.199 9.156-10.856 2.967-1.048 5.626-.435 7.383-.033.411.095.954.222 1.205.239q.03-.007.056-.017c4.243-1.177 6.274-1.953 6.656-2.609.07-.285.125-.825.161-1.552-.124-2.037-.124-4.927-.006-8.651q-.022-.708-.046-1.395c-.05-1.238-1.559-3.107-2.183-4.47-.292-.637-1.681 0-1.681 0a9 9 0 0 0-1.044.433c-2.595 1.26-7.004 4.516-7.045 4.546-1.62 1.197-4.398 2.915-6.192 3.831-.08.039-8.033 4.204-9.241 11.254a2 2 0 0 1-.409.912c-.442 4.191-.712 8.515-.939 12.177-.309 5.037-.58 9.389-1.105 12.46-1.638 9.54 3.144 21.864 3.192 21.987.094.235 1.665-5.112 1.743-4.947.838.25-.04 6.53 0 7.409l1.055 23.508c.573 12.888-4.52 20.624-8.896 24.843C-82.517-1.571-87.457-.064-87.664 0l-3.893 1.192q2.53 3.356 4.055 6.725c13.356-14.335 28.615-21.236 43.67-21.236S-13.519-6.418-.162 7.917q1.524-3.37 4.055-6.725Z" clip-path="url(#t)" style="fill:#fff;fill-opacity:1;fill-rule:nonzero;stroke:none" transform="matrix(1.33333 0 0 -1.33333 591.776 402.598)"></path><path d="M0 0c-.358-2.822-.168-5.659.559-8.502-12.945-14.547-26.799-24.323-41.142-24.099-14.344-.224-28.198 9.552-41.143 24.099.728 2.843.917 5.68.559 8.502-1.059 8.379-6.646 14.318-9.864 17.105 18.474 12.671 35.668 16.852 50.448 16.74 14.78.112 31.974-4.069 50.447-16.74C6.646 14.318 1.06 8.379 0 0" clip-path="url(#u)" style="fill:#fff;fill-opacity:1;fill-rule:nonzero;stroke:none" transform="matrix(1.33333 0 0 -1.33333 587.444 375.018)"></path><path d="M0 0c-.005-.013-.014-.022-.021-.038l.042.077a1.99 1.99 0 0 1-.208 2.085q.003.148.015.323c.234.156.788.433 1.948.659.338.065 1.551-.53 1.903-1.744.581-2.017-1.928-4.283-6.542-5.915a5.7 5.7 0 0 0-1.119-.27C-1.879-2.993-.508-.992 0 0" clip-path="url(#v)" style="fill:#fff;fill-opacity:1;fill-rule:nonzero;stroke:none" transform="matrix(1.33333 0 0 -1.33333 556.05 533.113)"></path><path d="m0 0-.067-.056c-1.882-1.52-6.183-4.299-7.076-7.583-.184 1.23-.369 2.616-.544 4.19C-9.006 8.406 1.173 22.877 9.899 38.2l.231.409c4.161 7.304 2.729 15.86-4.148 24.746-4.539 5.869-9.966 9.987-11.07 10.798-6.07 6.709-8.747 13.364-7.942 19.775 1.065 8.57 8.096 14.364 9.917 15.733 3.276.187 20.361.629 32.55-9.464 7.832-6.481 12.2-16.08 12.986-28.529l.018-.164C42.495 71.145 47.074 34.87 0 0m-8.705 53.591c-2.441-6.469-4.717-11.089-6.916-15.558-1.241-2.523-2.414-4.907-3.565-7.508-2.024-4.588-4.26-11.717-5.838-18.718-.937 3.57-1.892 6.032-1.981 6.264-.373.936-.852 1.947-1.536 2.62l-.037.894q.079.239.099.497c.422 5.952 3.213 11.78 5.911 17.421 1.605 3.349 3.115 6.506 4.167 9.693 2.693 8.178-.451 15.398-1.341 17.195 3.101 2.353 5.803 3.22 6.075 3.303-.007-.002 1.099.299 3.08.908.709-2.168 4.872-9.091 1.882-17.011m-20.819-10.835c-.453 10.064 2.828 16.559 6.52 20.642.946-2.407 4.383-7.488 2.582-12.956-.969-2.942-4.417-5.987-5.962-9.215-.956-2-1.921-4.021-2.803-6.08z" clip-path="url(#w)" style="fill:#fff;fill-opacity:1;fill-rule:nonzero;stroke:none" transform="matrix(1.33333 0 0 -1.33333 610.384 500.966)"></path><path d="M0 0c1.042 0 4.021 4.591 4.021 6.534 0 1.941-.845 3.517-1.885 3.517S.251 8.475.251 6.534C.251 4.591-1.042 0 0 0" clip-path="url(#x)" style="fill:#000;fill-opacity:1;fill-rule:nonzero;stroke:none" transform="matrix(1.33333 0 0 -1.33333 575.37 438.302)"></path><path d="M0 0c.005-.013.013-.022.021-.038l-.042.077a1.99 1.99 0 0 0 .208 2.085 7 7 0 0 1-.015.323c-.235.156-.788.433-1.949.659-.337.065-1.55-.53-1.903-1.744-.58-2.017 1.929-4.283 6.543-5.915.377-.134.75-.218 1.119-.27C1.879-2.993.508-.992 0 0" clip-path="url(#y)" style="fill:#fff;fill-opacity:1;fill-rule:nonzero;stroke:none" transform="matrix(1.33333 0 0 -1.33333 510.616 533.113)"></path><path d="m0 0 .067-.056c1.881-1.52 6.182-4.299 7.076-7.583.184 1.23.369 2.616.544 4.19C9.005 8.406-1.173 22.877-9.899 38.2l-.231.409c-4.162 7.304-2.73 15.86 4.148 24.746 4.539 5.869 9.965 9.987 11.07 10.798 6.069 6.709 8.746 13.364 7.941 19.775-1.064 8.57-8.096 14.364-9.917 15.733-3.276.187-20.36.629-32.549-9.464-7.832-6.481-12.201-16.08-12.986-28.529l-.019-.164C-42.495 71.145-47.074 34.87 0 0m8.705 53.591c2.441-6.469 4.717-11.089 6.916-15.558 1.241-2.523 2.414-4.907 3.565-7.508 2.024-4.588 4.26-11.717 5.838-18.718.936 3.57 1.892 6.032 1.981 6.264.373.936.852 1.947 1.536 2.62l.037.894a2 2 0 0 0-.099.497c-.422 5.952-3.214 11.78-5.912 17.421-1.604 3.349-3.115 6.506-4.166 9.693-2.693 8.178.451 15.398 1.341 17.195-3.101 2.353-5.803 3.22-6.076 3.303.007-.002-1.098.299-3.079.908-.709-2.168-4.873-9.091-1.882-17.011m20.819-10.835c.453 10.064-2.828 16.559-6.52 20.642-.946-2.407-4.383-7.488-2.583-12.956.97-2.942 4.418-5.987 5.963-9.215.956-2 1.921-4.021 2.803-6.08z" clip-path="url(#z)" style="fill:#fff;fill-opacity:1;fill-rule:nonzero;stroke:none" transform="matrix(1.33333 0 0 -1.33333 456.283 500.966)"></path><path d="M0 0c-1.043 0-4.022 4.591-4.022 6.534 0 1.941.846 3.517 1.885 3.517 1.041 0 1.886-1.576 1.886-3.517C-.251 4.591 1.042 0 0 0" clip-path="url(#A)" style="fill:#000;fill-opacity:1;fill-rule:nonzero;stroke:none" transform="matrix(1.33333 0 0 -1.33333 491.297 438.302)" data-source="https://football-logos.cc"></path><!-- source: https://football-logos.cc --></svg>