<svg xmlns="http://www.w3.org/2000/svg" viewBox="0 0 298.8 427.5"><!-- Source: https://football-logos.cc --><defs data-source="https://football-logos.cc"><style>.cls-2{fill:#fff}</style></defs><g id="Layer_1" data-source="https://football-logos.cc"><path d="M298.8 0H0v352.4c0 25.5 20.7 46.3 46.3 46.3h61.5c12.1.2 26.6 7.8 33.6 17.7l7.9 11.1 7.9-11.1c7-9.8 21.5-17.4 33.6-17.7h61.5c25.6 0 46.4-20.8 46.4-46.3V0Z" class="cls-2"></path><path d="M149.8 410.9c8.5-12 25.7-21.3 41.1-21.6h61.6c20.5 0 37.1-16.6 37.1-37V9.3H9.4v343.1c0 20.4 16.5 37 37 37H108c15.4.3 32.5 9.6 41.1 21.6l.4.5.4-.5Z" style="fill:#e73040"></path><path d="M66.3 323.1c5.3-.7 5.8-2.6 5.8-7.7v-24.5c0-5.1-.4-7-5.8-7.6v-4.4h19.5L96 311.6l11.2-32.7H126v4.3c-5.3.7-5.7 2.6-5.7 7.7v24.7c0 5.1.4 7.1 5.7 7.7v4.3h-21.6v-4.3c5.4-.6 5.8-2.5 5.8-7.7v-29.9l-14.2 42h-4.9L78 285.8v29.9c0 5.1.4 7.1 5.8 7.7v4.3H66.4v-4.3ZM138.5 291.4c-1.7-4.5-2.7-7.4-7.4-8.3v-4.3h21.1v4.3h-.4c-3.5 0-5 .8-5 2.9s.3 1.4.6 2.5l10.2 28.8 9.9-26.1c.6-1.5 1.3-3 1.3-4.7s-1.8-3.1-5.3-3.4v-4.3h16.7v4.3c-4.6 1.6-5.9 5.6-8.1 11.3l-13.2 33.8h-6.8l-13.7-36.7ZM190.6 291.4c-1.7-4.5-2.7-7.4-7.4-8.3v-4.3h21.1v4.3h-.4c-3.5 0-5 .8-5 2.9s.3 1.4.6 2.5l10.2 28.8 9.9-26.1c.6-1.5 1.3-3 1.3-4.7s-1.8-3.1-5.3-3.4v-4.3h16.7v4.3c-4.6 1.6-5.9 5.6-8.1 11.3L211 328.2h-6.8l-13.7-36.7ZM67.3 351.4c1.4-.2 1.6-.7 1.6-2.1v-6.6c0-1.4-.1-1.9-1.6-2.1v-1.2h5.2l2.7 8.8 3-8.8h5.1v1.1c-1.4.2-1.5.7-1.5 2.1v6.6c0 1.4 0 1.9 1.5 2.1v1.1h-5.8v-1.2c1.5-.2 1.6-.7 1.6-2.1V341l-3.8 11.3H74L70.5 341v8.1c0 1.4.1 1.9 1.6 2.1v1.1h-4.7v-1.2ZM95.9 346.4l-1.8-4.8-2 4.8zm-8.9 5c1.1-.2 1.4-.6 1.9-1.6l4.5-10.3h2.3l4.4 10.6c.3.9.8 1.2 1.8 1.2v1.3h-6v-1.1h.3c.9 0 1.3-.3 1.3-.8s0-.4-.2-.7l-.9-2.3h-4.8l-.8 1.9c-.2.4-.2.6-.2.8 0 .6.4.8 1.5 1v1.1h-5v-1.2ZM113.5 346.4l-1.8-4.8-2 4.8zm-8.9 5c1.1-.2 1.4-.6 1.9-1.6l4.5-10.3h2.3l4.4 10.6c.4.9.8 1.2 1.8 1.2v1.3h-6v-1.1h.3c.9 0 1.3-.3 1.3-.8s0-.4-.2-.7l-.9-2.3h-4.8l-.8 1.9c-.2.4-.2.6-.2.8 0 .6.4.8 1.5 1v1.1h-5v-1.2ZM124.6 352.6l-1.4-4.8 1.1-.3c1.2 2.6 3.1 4 5.2 4s2.7-.9 2.7-2.1-.2-.9-.5-1.2c-.7-.7-1.9-.9-3.6-1.3-2.9-.8-4.4-1.6-4.4-3.7s1.9-4 4.5-4 2.1.3 3.2.9l.3-.6h1l1.2 3.8-1.1.3q-1.95-3-4.5-3c-2.55 0-2.2.7-2.2 1.7s.2.8.5 1.1c.7.6 1.7.7 2.9 1 2 .5 3.2.9 3.8 1.3.9.7 1.4 1.6 1.4 2.7 0 2.4-2.2 4.5-5.3 4.5s-2.4-.4-3.5-1l-.3.7h-1.1ZM142.5 351.4c1.5-.2 1.6-.7 1.6-2.1V342c0-.9 0-1.2-.6-1.2-1.1 0-2.5.9-3.5 2.7l-1-.3 1.3-3.7h10.2l1.3 3.7-1 .3c-1-1.8-2.4-2.7-3.4-2.7s-.6.4-.6 1.2v7.3c0 1.4.2 1.9 1.6 2.1v1.1h-5.8v-1.2ZM161.5 345.4c2.5 0 3.6-.6 3.6-2.3s-1-2.2-3-2.2-1.9.3-1.9 1.4v3.1zm-5.6 6c1.4-.2 1.6-.7 1.6-2.1v-6.6c0-1.4-.1-1.9-1.6-2.1v-1.2h6.5c1.8 0 3.1 0 4 .6q1.5.9 1.5 2.7c0 1.8-1.1 3.1-3.2 3.6l2 2.8c.6.9 1.1 1.7 2.6 2.2v1.1h-3.5l-4.1-5.9h-1.5v2.6c0 1.4.1 1.9 1.6 2.1v1.1H156v-1.2ZM172.9 351.4c1.4-.2 1.5-.7 1.5-2.1v-6.6c0-1.4 0-1.9-1.5-2.1v-1.2h5.8v1.1c-1.4.2-1.6.7-1.6 2.1v6.6c0 1.4.1 1.9 1.6 2.1v1.1h-5.8v-1.2ZM195.8 349.5c-1.5 2.3-3.3 3.4-5.8 3.4s-3.5-.7-4.8-2c-1.2-1.2-1.8-2.8-1.8-4.7s.7-3.8 1.8-5.1c1.2-1.3 2.9-2 4.6-2s2.1.3 3.2 1l.4-.7h1l1.3 4.5-1.2.3c-1.3-2.5-2.6-3.7-4.4-3.7s-3.8 1.9-3.8 5.5 1.5 5.4 3.9 5.4 3.2-.9 4.5-2.8l1 .8ZM200.5 351.4c1.4-.2 1.6-.7 1.6-2.1v-6.6c0-1.4-.1-1.9-1.6-2.1v-1.2h5.8v1.1c-1.4.2-1.6.7-1.6 2.1v2h5.8v-2c0-1.4-.1-1.9-1.6-2.1v-1.1h5.8v1.2c-1.4.2-1.6.7-1.6 2.1v6.6c0 1.4.1 1.9 1.6 2.1v1.2h-5.8v-1.1c1.4-.2 1.6-.7 1.6-2.1v-3.3h-5.8v3.3c0 1.4.1 1.9 1.6 2.1v1.1h-5.8zM222.5 351.4c1.5-.2 1.6-.7 1.6-2.1V342c0-.9 0-1.2-.6-1.2-1.1 0-2.5.9-3.5 2.7l-1-.3 1.3-3.7h10.2l1.3 3.7-1 .3c-1-1.8-2.4-2.7-3.4-2.7s-.6.4-.6 1.2v7.3c0 1.4.2 1.9 1.6 2.1v1.1h-5.8v-1.2ZM78.8 247.1l66.3-91.3-57.6 18.7zM38 114.9l107.4 34.8-35.7-49zM112.1 98.5l35.7 49.1v-113zM220 247.1l-66.4-91.3 57.7 18.7zM260.8 114.9l-107.4 34.8 35.7-49zM120.2 195.7v35.6l1.6-.7v-36.9zM140.7 167.5v54.3l1.6-.7v-55.6zM110 209.8V236l1.5-.6v-27.6zM115.1 202.8v30.9l1.5-.7v-32.3zM104.9 216.9v21.5l1.5-.7v-22.9zM130.5 181.6v45l1.5-.7v-46.3zM89.5 238v7.5l1.5-.7V236zM84.4 245.1v2.8l1.5-.7V243zM94.6 231v12.1l1.5-.6v-13.6zM99.8 223.9v16.9l1.5-.7v-18.2zM135.6 174.6v49.6l1.5-.7v-51zM125.4 188.7v40.2l1.5-.7v-41.6zM146.1 160.2v59.2l1.5-.7v-60.6zM94.6 168.9l1.5-.5v-31.3l-1.5-.4zM63.9 147.2l1.5 1.6v-21.6l-1.5-.5zM99.8 167.2l1.5-.5v-27.9l-1.5-.5zM58.7 141.6l1.6 1.7v-17.8l-1.6-.5zM69 152.7l1.5 1.6v-25.5l-1.5-.4zM89.5 170.6l1.5-.5v-34.6l-1.5-.5zM48.5 130.6l1.5 1.6v-10l-1.5-.5zM43.4 125.1l1.5 1.6v-6.2l-1.5-.5zM38.2 119.5l1.6 1.6v-2.2l-1.6-.5zM74.1 158.2l1.5 1.6v-29.3l-1.5-.5zM84.4 169.3l1.5 1.6v-37.1l-1.5-.5zM53.6 136.1l1.5 1.6v-13.8l-1.5-.5zM104.9 165.6l1.5-.5v-24.6l-1.5-.5zM110 163.9l1.5-.5v-21.3l-1.5-.5zM125.4 158.9l1.5-.5v-11.3l-1.5-.5zM120.2 160.5l1.6-.4v-14.6l-1.6-.5zM130.5 157.2l1.5-.5v-7.9l-1.5-.5zM115.1 162.2l1.5-.5v-17.9l-1.5-.5zM140.7 153.9l1.6-.5v-1.3l-1.6-.5zM79.2 163.7l1.6 1.7v-33.2l-1.6-.5zM135.6 155.5l1.5-.4v-4.7l-1.5-.4zM151.2 147.3l1.5-2V37.7l-1.5-2.7zM156.3 140.3l1.5-2.1V46.8l-1.5-2.7zM161.5 133.2l1.5-2V56l-1.5-2.7zM182 105l1.5-2.1V92.7L182 90zM171.7 119.1l1.5-2V74.4l-1.5-2.7zM166.6 126.2l1.5-2.1V65.2l-1.5-2.7zM176.8 112.1l1.5-2.1V83.5l-1.5-2.7zM166.6 225.8l1.5.7v-45.1l-1.5-2.1zM161.5 223.4l1.5.7v-49.8l-1.5-2.1zM176.8 230.5l1.5.7v-35.7l-1.5-2.1zM187.1 235.3l1.5.7v-26.4l-1.5-2.1zM151.2 218.7l1.5.7v-59.2l-1.5-2.1zM202.5 242.4l1.5.7v-12.4l-1.5-2.1zM212.7 247.1l1.5.7v-3l-1.5-2zM207.6 244.7l1.5.7v-7.6l-1.5-2.1zM171.7 228.2l1.5.6v-40.4l-1.5-2.1zM192.2 237.6l1.5.7v-21.7l-1.5-2.1zM197.3 240l1.5.7v-17l-1.5-2.1zM182 232.9l1.5.7v-31.1l-1.5-2.1zM156.3 221l1.5.7v-54.4l-1.5-2.1zM197.3 138.9v27.8l1.5.5v-28.8zM207.6 135.6V170l1.5.5v-35.4zM202.5 137.2v31.1l1.5.5v-32.1zM176.8 145.5V160l1.5.5V145zM212.7 133.9v37.2l1.5-1.6v-36.1zM223 130.6V160l1.5-1.6v-28.3zM217.8 132.2v33.4l1.5-1.6v-32.3zM192.2 140.5V165l1.5.5v-25.4zM243.5 123.9v14l1.5-1.6v-12.9zM238.3 125.6v17.9l1.5-1.7v-16.7zM253.7 120.6v6.3l1.5-1.6v-5.2zM228.1 128.9v25.6l1.5-1.6v-24.5zM248.6 122.3v10.1l1.5-1.6v-9zM187.1 142.2v21.1l1.5.5v-22.1zM166.6 148.8v7.9l1.5.4v-8.7zM258.8 118.9v2.5l1.5-1.6v-1.3zM233.2 127.2V149l1.5-1.6v-20.6zM171.7 147.2v11.1l1.5.5v-12.1zM156.3 152.2v1.1l1.5.5v-2.1zM182 143.9v17.8l1.5.4v-18.7zM161.5 150.5v4.5l1.5.5V150z" class="cls-2"></path></g><!-- source: https://football-logos.cc --></svg>