<svg xmlns="http://www.w3.org/2000/svg" viewBox="1.9 23 1598.4 1910.2"><!-- Source: https://football-logos.cc --><defs data-source="https://football-logos.cc"><style>.cls-2{fill:#fff}.cls-3{fill:#bc181b}</style></defs><g id="Laag_1" data-source="https://football-logos.cc"><g id="Laag_1-2"><path d="M1418.5 640.4c0 341-276.5 617.5-617.5 617.5S183.6 981.5 183.6 640.4 460.1 23 801.1 23s617.5 276.5 617.5 617.5Z" class="cls-2"></path><path d="M783.3 1230.3c-317.8-9.4-572.4-269.9-572.4-589.9S447 79.5 748 52.6c0 0-25.8 36.4-25.8 65.9s13.9 53.3 23.8 49.3c9.9-3.9-3.9-45.3 9.9-55.2 13.8-9.8 47.3-33.5 73-15.7 25.7 17.7 47.3 53.3 7.9 88.8-39.6 35.5-65.2 49.3-61.3 55.2 4 5.9 86.9 4 106.6 5.9 19.8 2 37.5 0 45.3 15.8 7.9 15.7 19.7 41.4 9.8 55.2-9.8 13.9-31.6 57.3-33.5 65.2-2 7.9 0 41.4-13.9 47.4-13.8 5.9-102.5 25.7-126.3 25.7s-69-2-71-9.8c-2-7.9-2-31.6-5.9-39.5s-25.6-47.3-43.4-43.4c-17.8 4-35.5 37.5-33.5 49.3 2 11.9 23.7 41.5 35.5 53.2 11.9 11.9 21.7 23.7 15.9 25.7-6 2-37.6 3.9-43.4 15.8-5.9 11.9-21.7 98.6-3.9 173.7 17.7 74.9 35.5 118.4 35.5 136.1s-3.9 94.7 3.9 116.4c8 21.7 55.4 76.9 63.2 96.7 7.9 19.8 17.8 51.3 29.6 63.1 11.9 11.8 19.8 17.8 19.8 31.6s3.9 65.1 7.9 78.9 9.8 26.6 9.8 26.6" style="fill:#010101"></path><path d="M856.5 1228c300-27.9 534.7-280.5 534.7-587.6s-231.8-556.6-529-587.1c0 0 21.9 11.9 19.8 61.2-1.9 49.3-15.8 53.3-10 67.1 6.1 13.9 57.4 25.7 75 31.6 17.8 5.9 37.6 45.3 21.8 82.9-15.7 37.5-27.6 80.8-31.6 102.6-3.9 21.7-11.8 57.2-35.5 73-23.6 15.7-84.9 13.9-110.5 9.8-25.7-3.9-73-7.9-69.1 5.9 4.1 13.9 33.7 55.2 39.5 69.1 5.9 13.8 21.6 25.7 5.9 35.6-8.6 5.4-31.6-27.7-43.4-35.6s-49.3-7.9-69 11.8c-19.8 19.8-37.5 61.1-17.7 102.6 19.8 41.4 41.4 104.6 37.5 116.4-3.9 11.9-5.9 29.6 0 39.5 6 9.8 21.7 25.7 17.8 35.4-3.9 9.9-21.8 47.4-7.9 69.1 13.7 21.7 33.4 45.4 45.4 57.2 11.8 11.9 33.4 39.5 39.4 55.2 5.8 15.8 39.4 53.3 47.3 61.1 7.9 7.9 29.6 49.3 33.6 65.2 4 15.7 6.1 57.8 6.1 57.8" class="cls-3"></path><path d="M661.1 333.6c8.7-1.3 0-19.8-6-37.5-5.9-17.8-3.9-51.3 4-65.2 7.8-13.9 23.7-35.5 27.5-53.3 3.9-17.8 9.8-33.6-2-43.4-11.9-9.8-29.7-17.8-55.3-19.8s-59.2-7.9-65.1 3.9-29.6 41.4-29.6 88.8-4 120.3 9.8 128.3c13.9 7.9 33.6 23.7 47.4 21.7 13.9-2 21.7-19.8 17.8-43.4-4-23.7-8-31.6-13.9-31.6s-11.8 2-17.8-9.8-19.7-29.6-19.7-51.3 7.9-43.4 33.4-43.4 39.5-5.9 39.5 11.8-7.9 51.3-4 69.1c4 17.8 19.7 77 33.7 75M917.5 493.4c-9 4.5 11.9 104.5 19.8 126.2s13.9 92.7 2 106.6-25.7 41.5-45.4 43.4c-19.7 2-49.3-17.8-63-31.6-13.9-13.8-27.7-23.6-25.7-13.8s7.9 45.4 23.7 65.1c15.7 19.7 55.2 47.3 53.2 61.1-1.9 13.8-13.9 25.7-27.5 27.6-13.9 2-33.6 23.7-13.9 43.4 19.7 19.8 35.5 35.5 51.2 29.6 15.8-6 31.6-27.7 31.6-49.3s-29.6-45.4-21.6-57.3c7.9-11.9 13.8-11.9 27.6-21.7 13.7-9.8 27.6-37.5 33.5-98.6 5.8-61.1 1.9-132.2-5.9-153.9-7.9-21.7-31.6-81-39.5-76.9M957 986.1c-49.3 0-89.3 40-89.3 89.3s39.9 89.3 89.3 89.3 89.3-40 89.3-89.3-40-89.3-89.3-89.3M1.9 1346.9H80v85.5h49.7v-85.5h78.1v253.7h-78.1v-88.1H80v88.1H1.9zM232.7 1346.9h150.1v69.3h-68.4v24.2h62.5v65.9h-62.5v24.9h70.7v69.3H232.6v-253.7ZM408.3 1346.9h81.1v172.3h68.1v81.5H408.3V1347ZM596.3 1346.9h83.5l30.8 133.2h2c1.5-11.1 3-22.9 5.6-33.6l25.2-99.6H826l36.7 253.7h-78.5l-10.9-139h-1.5c-1.5 8.4-3 17.2-5.4 25.3l-32.3 113.7h-47.4l-29-107.3c-2.4-10.8-4.4-20.9-5-31.6H650c-.6 10.1-1.2 20.5-2 30.6l-9.4 108.4h-78.5l36.1-253.7ZM1118.6 1474.4c0 81.5-55.3 130.2-123.5 130.2s-123.5-48.8-123.5-130.2 55.6-131.6 123.5-131.6 123.5 51.8 123.5 131.6m-165.2 1.4c0 29 17.2 48.8 41.7 48.8s41.7-19.8 41.7-48.8-16-49.4-41.7-49.4-41.7 22.5-41.7 49.4M1135.8 1346.9h77.8l72.8 140.6h2.4c-3.2-21.2-6.8-43-6.8-64.6v-76h77.6v253.7H1282l-71.4-133.2h-2.4c2.7 17.5 5 34 5 50.8v82.4h-77.6v-253.7ZM1385.3 1346.9h82.6c74.9 0 132.4 37.4 132.4 130.6s-46.7 123.2-112.2 123.2h-102.7V1347Zm81.2 177.6h5c26.9 0 47.7-14.2 47.7-47.5s-18-50.8-47.7-50.8h-5v98.2Z" class="cls-2"></path><path d="m314.5 1838.3 4.2 3.7c14.5 12.7 32 23.2 50.6 23.2s20.7-3.7 20.7-15.1-10.6-12.4-18-14.2l-16.3-3.4c-31.7-6.4-58.3-27.6-58.3-67.3 0-60.2 48.2-93.9 96.8-93.9s48.9 7.1 70.7 22.2l-21.9 64.9c-13.9-10.8-29.6-19.2-47.1-19.2s-17.5 3-17.5 13.5 10.1 10.8 16.3 12.4l18.3 4.7c34.3 8.7 59.2 29.6 59.2 72.6s-48.6 90.5-96.8 90.5-60.7-8.7-85.9-23.2l24.9-71.7v.2ZM487.1 1675.5h102.7c52.1 0 90.6 30.3 90.6 93.2s-28.4 84.1-73.7 84.1h-41.5v76.3h-78.1v-253.7Zm78.1 113.4h8c14.2 0 29.6-2.7 29.6-23.2s-16.6-20.9-29.9-20.9h-7.7zM931.2 1803c0 81.5-55.4 130.2-123.5 130.2s-123.5-48.8-123.5-130.2 55.6-131.6 123.5-131.6 123.5 51.8 123.5 131.6m-165.2 1.3c0 29 17.2 48.8 41.7 48.8s41.7-19.8 41.7-48.8-16-49.4-41.7-49.4-41.7 22.5-41.7 49.4M949.6 1675.5h98c50.4 0 92.9 24.2 92.9 88.1s-13.1 54.5-43.2 65.9v2c4.2 3.7 9.2 7.7 13.6 15.1l48.6 82.4h-93.6l-35.5-81.5h-1.5v81.5h-79.3v-253.7Zm79.3 112.4h5.6c13.3 0 26.7-2.4 26.7-21.2s-12.1-21.9-26-21.9h-6.2v43Z" class="cls-3"></path><path d="M1142 1675.5h170.5v82.4l-44.7-2.4v173.6h-81.1v-173.6l-44.7 2.4z" class="cls-3"></path></g></g><!-- source: https://football-logos.cc --></svg>