<svg xmlns="http://www.w3.org/2000/svg" viewBox="89.57 137.48 416.13 566.93"><!-- Source: https://football-logos.cc --><path d="m94.969 290.413 51.52-79.565c32.805 12.636 47.759 14.418 72.672 14.456 25.693.04 50.235-3.423 78.243-15.776 22.967 10.877 49.213 16.115 75.482 16.145 24.679.03 49.76-3.771 75.6-14.62l51.813 79.36c-25.802 18.862-35.662 40.872-35.691 65.568-.04 33.986 20.028 68.95 31.616 105.683 6.28 19.907 8.49 38.524 9.335 57.025 1.103 24.179-4.401 50.736-13.323 69.49-13.04 27.41-34.215 46.495-57.23 62.028-45.335 30.596-103.412 47.136-137.327 54.203-58.123-11.705-130.033-38.002-173.677-84.807-22.441-24.066-35.706-58.6-34.337-102.027.617-19.603 3.76-40.094 11.362-61.87 11.861-33.974 29.558-68.557 29.68-100.07.095-24.369-12.462-48.549-35.738-65.223" style="fill:#0b3c72;fill-rule:evenodd" data-source="https://football-logos.cc"></path><path d="M144.03 368.476c-3.757 31.184-19.558 62.987-29.65 91.892-6.547 18.756-9.953 37.814-10.578 57.654-1.048 33.265 7.393 67.106 30.545 91.934 28.063 30.097 69.332 51.57 111.02 65.768V368.475Zm204.399 307.532c28.067-9.48 55.61-21.967 78.664-37.525 44.344-29.929 65.715-66.642 64.325-119.435-.462-18.256-3.184-35.695-8.683-53.129-9.956-31.56-27.749-64.131-31.545-97.443H348.429Z" style="fill:#fff;fill-rule:evenodd"></path><path d="M144.03 368.476c-3.757 31.184-19.558 62.987-29.65 91.892-6.547 18.756-9.953 37.814-10.578 57.654-1.048 33.265 7.393 67.106 30.545 91.934 11.023 11.822 24.085 22.313 38.408 31.556V368.476ZM423.304 640.986v-272.51h27.886c3.796 33.312 21.589 65.882 31.545 97.443 5.5 17.434 8.22 34.873 8.683 53.129 1.39 52.793-19.98 89.506-64.325 119.435q-1.875 1.264-3.79 2.503" style="fill:#db0620;fill-rule:evenodd"></path><path d="M111.883 287.712c19.27 17.399 31.658 41.388 31.554 67.974a102 102 0 0 1-.143 4.982h308.691c-.07-1.567-.11-3.134-.107-4.702.033-28.17 11.388-50.438 31.464-68.24l-39.872-61.07c-22.772 8.15-46.137 11.776-70.599 11.747-25.74-.03-51.908-4.757-75.623-14.977-25.533 10.447-50.268 14.65-78.107 14.608-8.135-.012-16.257-.208-24.352-1.07-15.04-1.602-29.135-5.604-43.168-10.62z" style="fill:#fff;fill-rule:evenodd" data-source="https://football-logos.cc"></path><path d="M189.082 289.072h-17.495v-7.327h16.871v-5.704h-16.871v-7.512h17.495v-5.936h-23.326V295.1h23.325zM208.745 274.711l-7.79-12.118H194.5v.279l10.505 15.79-10.817 16.253v.185h6.589l7.968-12.212 7.968 12.212h6.589v-.185L212.44 278.66l10.55-15.79v-.278h-6.455zM252.709 286.8a10.2 10.2 0 0 1-2.338 1.8q-1.301.73-2.715 1.113a10.6 10.6 0 0 1-2.782.38q-2.305-.012-4.066-.628-1.77-.614-3.027-1.692a9.4 9.4 0 0 1-2.056-2.48 11.2 11.2 0 0 1-1.186-2.984 14 14 0 0 1-.393-3.207q-.011-1.645.378-3.254c.26-1.082.66-2.095 1.21-3.06a10 10 0 0 1 2.1-2.551c.853-.742 1.861-1.33 3.033-1.755q1.747-.637 4.007-.649 1.367 0 2.7.325c.89.224 1.751.564 2.567 1.012a10.1 10.1 0 0 1 2.256 1.724l3.917-3.942c-1.617-1.646-3.39-2.883-5.334-3.717a15.4 15.4 0 0 0-6.106-1.244c-2.256.008-4.266.332-6.047.966-1.78.626-3.331 1.499-4.645 2.611a15.1 15.1 0 0 0-3.271 3.842 17.3 17.3 0 0 0-1.93 4.653 19.9 19.9 0 0 0-.622 5.039q.01 2.55.622 4.984a17.2 17.2 0 0 0 1.877 4.553 14.3 14.3 0 0 0 3.213 3.74c1.307 1.075 2.85 1.925 4.645 2.536 1.795.602 3.843.919 6.158.927 2.263.008 4.392-.386 6.403-1.175 2.01-.788 3.82-2.01 5.438-3.648zM285.368 289.072h-17.494v-7.327h16.871v-5.704h-16.871v-7.512h17.494v-5.936h-23.325V295.1h23.325zM292.03 262.593V295.1h21.902v-5.657h-16.026v-26.85zM344.452 267.972q-.891-1.868-2.226-3.122a10.5 10.5 0 0 0-2.96-1.978 14.3 14.3 0 0 0-3.428-1.044 20.3 20.3 0 0 0-3.628-.301 17.5 17.5 0 0 0-3.457.363 14.6 14.6 0 0 0-3.273 1.067 10.3 10.3 0 0 0-2.744 1.831 8.1 8.1 0 0 0-1.885 2.651q-.692 1.542-.705 3.547c.008 1.446.23 2.698.66 3.741.438 1.044 1.04 1.924 1.819 2.636a9.6 9.6 0 0 0 2.708 1.747c1.024.455 2.136.819 3.338 1.082a39 39 0 0 0 3.717.626 21 21 0 0 1 2.871.51q1.316.348 2.285.904c.654.37 1.15.835 1.514 1.391q.532.823.541 1.97-.012 1.322-.6 2.25a4.5 4.5 0 0 1-1.596 1.506 7.8 7.8 0 0 1-2.292.851q-1.278.265-2.678.263c-.95 0-1.878-.1-2.775-.302a9.6 9.6 0 0 1-2.516-.935 8 8 0 0 1-2.062-1.6 7.4 7.4 0 0 1-1.416-2.31l-4.898 2.642c.78 1.971 1.825 3.533 3.132 4.708q1.967 1.752 4.614 2.519c1.758.51 3.702.757 5.832.75q2.092.002 4.028-.379a14.8 14.8 0 0 0 3.576-1.175 10.6 10.6 0 0 0 2.88-2.024 8.6 8.6 0 0 0 1.906-2.906c.46-1.13.69-2.412.697-3.858-.007-1.545-.238-2.867-.682-3.972-.445-1.098-1.069-2.025-1.863-2.774a10.1 10.1 0 0 0-2.782-1.824 18 18 0 0 0-3.428-1.121 41 41 0 0 0-3.799-.65 30 30 0 0 1-2.663-.432 11 11 0 0 1-2.21-.719c-.639-.301-1.143-.687-1.514-1.167q-.547-.708-.556-1.762c0-.811.23-1.546.704-2.187q.702-.976 2.137-1.546 1.434-.567 3.613-.58a9.9 9.9 0 0 1 3.182.526c.988.34 1.841.78 2.568 1.33q1.092.822 1.64 1.762zM357.97 295.1v-32.507h-5.832V295.1zM381.545 261.99c-2.151.009-4.087.333-5.802.959q-2.57.95-4.496 2.605a15.4 15.4 0 0 0-3.19 3.84 18 18 0 0 0-1.906 4.653 20.3 20.3 0 0 0-.631 5.055c0 1.716.208 3.392.615 5.016a17 17 0 0 0 1.87 4.56 14.4 14.4 0 0 0 3.168 3.725q1.912 1.613 4.504 2.52c1.72.602 3.68.911 5.868.919 2.19-.016 4.14-.325 5.861-.943q2.572-.916 4.467-2.55a14.6 14.6 0 0 0 3.146-3.757 17.7 17.7 0 0 0 1.862-4.567c.415-1.623.63-3.277.645-4.97a19.4 19.4 0 0 0-.6-5.031 17.8 17.8 0 0 0-1.893-4.645 15.2 15.2 0 0 0-3.205-3.825c-1.276-1.106-2.775-1.98-4.488-2.605-1.721-.626-3.651-.95-5.795-.958m0 5.565q2.207.01 3.888.68a8.8 8.8 0 0 1 2.9 1.824 10 10 0 0 1 1.974 2.643c.504.99.876 2.04 1.113 3.138.23 1.106.341 2.203.32 3.308a15 15 0 0 1-.387 3.2 12.2 12.2 0 0 1-1.127 3.006 9.4 9.4 0 0 1-1.944 2.512q-1.192 1.1-2.864 1.723c-1.113.417-2.404.634-3.873.642q-2.204-.01-3.872-.634-1.672-.626-2.865-1.716a9.6 9.6 0 0 1-1.958-2.496 12.5 12.5 0 0 1-1.136-2.999 15.5 15.5 0 0 1-.407-3.192q-.046-1.657.311-3.315.343-1.649 1.12-3.146a10 10 0 0 1 1.989-2.658 9 9 0 0 1 2.923-1.84c1.128-.44 2.426-.672 3.895-.68M431.61 294.683l-9.437-11.083c1.476-.325 2.715-.82 3.731-1.5 1.01-.672 1.819-1.476 2.427-2.403a9.8 9.8 0 0 0 1.32-3.015c.275-1.082.408-2.18.4-3.307 0-1.422-.236-2.775-.719-4.058a10.1 10.1 0 0 0-2.136-3.431c-.943-1.005-2.116-1.794-3.51-2.38q-2.092-.88-4.852-.913c-2.47.023-4.941.023-7.411.016-2.472-.008-4.942-.016-7.413-.016V295.1h5.876v-10.851h5.654l9.08 10.85h6.99zm-12.776-26.386q1.381.01 2.396.448 1.004.44 1.662 1.183c.438.494.757 1.05.972 1.669q.312.93.312 1.917a6.2 6.2 0 0 1-.304 1.917 4.9 4.9 0 0 1-.965 1.669q-.647.743-1.662 1.182c-.675.294-1.476.44-2.41.449h-8.949v-10.434zM190.282 337.29h5.401v-29.799h-6.179l-8.962 12.81-8.962-12.81h-6.222v29.8h5.403V315.62l9.126 12.988h1.064l9.331-12.946zM227.048 337.29h5.894l-12.851-29.884h-5.893l-12.85 29.885h5.852l2.455-5.628h14.978zm-4.584-10.87h-10.64l5.32-12.733zM260.53 337.29h5.894l-12.851-29.884h-5.893l-12.85 29.885h5.852l2.455-5.628h14.979zm-4.584-10.87h-10.64l5.32-12.733zM293.941 312.351c-.546-1.143-1.228-2.103-2.046-2.87a9.7 9.7 0 0 0-2.722-1.82 13 13 0 0 0-3.15-.958 18.7 18.7 0 0 0-3.336-.278c-1.064.007-2.12.114-3.179.334q-1.586.32-3.008.981a9.5 9.5 0 0 0-2.524 1.684 7.5 7.5 0 0 0-1.732 2.437q-.636 1.417-.648 3.261c.007 1.329.212 2.48.607 3.44.403.958.955 1.769 1.672 2.422a8.9 8.9 0 0 0 2.489 1.606q1.412.63 3.07.995 1.646.363 3.416.575 1.434.16 2.64.47 1.21.319 2.101.83c.6.342 1.057.768 1.391 1.28q.49.756.499 1.812-.011 1.214-.553 2.067a4.13 4.13 0 0 1-1.466 1.385 7.1 7.1 0 0 1-2.109.782c-.784.163-1.602.242-2.462.242-.872 0-1.725-.093-2.55-.278a8.8 8.8 0 0 1-2.313-.859 7.3 7.3 0 0 1-1.896-1.471 6.8 6.8 0 0 1-1.303-2.124l-4.501 2.43c.716 1.811 1.677 3.246 2.878 4.326 1.207 1.073 2.619 1.848 4.242 2.317q2.426.702 5.362.689 1.923.002 3.703-.348a13.7 13.7 0 0 0 3.288-1.08 9.8 9.8 0 0 0 2.646-1.862 7.9 7.9 0 0 0 1.754-2.671c.423-1.038.633-2.217.64-3.545-.007-1.422-.217-2.637-.627-3.653-.41-1.009-.982-1.862-1.712-2.55a9.3 9.3 0 0 0-2.557-1.677 16.7 16.7 0 0 0-3.152-1.03 38 38 0 0 0-3.493-.598 28 28 0 0 1-2.447-.397 10.2 10.2 0 0 1-2.033-.661c-.587-.278-1.05-.633-1.392-1.073q-.501-.65-.511-1.62c0-.746.21-1.421.648-2.011q.644-.897 1.964-1.42 1.318-.523 3.321-.534a9.1 9.1 0 0 1 2.926.484q1.36.466 2.36 1.222 1.006.756 1.508 1.62zM324.529 312.351c-.546-1.143-1.228-2.103-2.046-2.87a9.7 9.7 0 0 0-2.723-1.82 13 13 0 0 0-3.15-.958 18.7 18.7 0 0 0-3.336-.278c-1.064.007-2.12.114-3.178.334q-1.587.32-3.008.981a9.5 9.5 0 0 0-2.524 1.684 7.5 7.5 0 0 0-1.732 2.437c-.423.945-.642 2.032-.649 3.261.007 1.329.212 2.48.608 3.44.402.958.954 1.769 1.67 2.422a8.9 8.9 0 0 0 2.49 1.606q1.413.63 3.07.995 1.647.363 3.417.575a19 19 0 0 1 2.64.47q1.209.319 2.1.83c.6.342 1.058.768 1.391 1.28q.49.756.499 1.812-.011 1.214-.553 2.067a4.13 4.13 0 0 1-1.466 1.385 7.1 7.1 0 0 1-2.108.782c-.785.163-1.603.242-2.463.242-.872 0-1.725-.093-2.55-.278a8.8 8.8 0 0 1-2.313-.859 7.3 7.3 0 0 1-1.896-1.471 6.8 6.8 0 0 1-1.302-2.124l-4.502 2.43c.716 1.811 1.678 3.246 2.878 4.326 1.207 1.073 2.62 1.848 4.242 2.317q2.426.702 5.362.689 1.924.002 3.704-.348a13.7 13.7 0 0 0 3.287-1.08 9.8 9.8 0 0 0 2.647-1.862 7.9 7.9 0 0 0 1.753-2.671c.423-1.038.634-2.217.64-3.545-.006-1.422-.217-2.637-.627-3.653-.409-1.009-.982-1.862-1.712-2.55a9.3 9.3 0 0 0-2.557-1.677 16.7 16.7 0 0 0-3.152-1.03 38 38 0 0 0-3.492-.598 28 28 0 0 1-2.448-.397 10.2 10.2 0 0 1-2.033-.661c-.587-.278-1.05-.633-1.391-1.073q-.502-.65-.512-1.62c0-.746.211-1.421.648-2.011q.644-.897 1.964-1.42 1.318-.523 3.322-.534a9.1 9.1 0 0 1 2.926.484q1.36.466 2.36 1.222 1.005.756 1.507 1.62zM333.14 307.406v29.885h20.133v-5.201h-14.732v-24.684zM378.705 307.491v17.096c0 1.712-.28 3.182-.825 4.404-.538 1.23-1.337 2.168-2.374 2.829-1.043.653-2.305.988-3.799.995q-2.241 0-3.902-.939-1.656-.938-2.577-2.77c-.607-1.223-.922-2.73-.928-4.52v-17.095h-5.361v17.096q.007 2.696.661 4.838c.437 1.436 1.05 2.679 1.842 3.745a11 11 0 0 0 2.776 2.657 12.1 12.1 0 0 0 3.486 1.578c1.261.347 2.584.525 3.962.525 1.808 0 3.473-.284 4.98-.845a10.7 10.7 0 0 0 3.921-2.516c1.112-1.115 1.965-2.508 2.578-4.177q.912-2.493.922-5.805V307.49zM397.577 337.29v-29.884h-5.362v29.885zM429.69 312.351c-.546-1.143-1.228-2.103-2.046-2.87a9.7 9.7 0 0 0-2.722-1.82 13 13 0 0 0-3.15-.958 18.7 18.7 0 0 0-3.336-.278 16 16 0 0 0-3.179.334q-1.586.32-3.008.981a9.5 9.5 0 0 0-2.524 1.684 7.5 7.5 0 0 0-1.732 2.437q-.636 1.417-.648 3.261c.007 1.329.212 2.48.607 3.44.403.958.955 1.769 1.671 2.422a8.9 8.9 0 0 0 2.49 1.606q1.412.63 3.07.995 1.646.363 3.416.575a19 19 0 0 1 2.64.47c.805.212 1.508.49 2.1.83.601.342 1.058.768 1.392 1.28q.49.756.499 1.812-.011 1.214-.553 2.067a4.13 4.13 0 0 1-1.466 1.385 7.1 7.1 0 0 1-2.109.782c-.784.163-1.602.242-2.462.242-.872 0-1.725-.093-2.55-.278a8.8 8.8 0 0 1-2.313-.859 7.3 7.3 0 0 1-1.896-1.471 6.8 6.8 0 0 1-1.303-2.124l-4.501 2.43c.715 1.811 1.677 3.246 2.878 4.326 1.207 1.073 2.619 1.848 4.242 2.317q2.426.702 5.361.689 1.924.002 3.704-.348a13.7 13.7 0 0 0 3.288-1.08 9.8 9.8 0 0 0 2.646-1.862 7.9 7.9 0 0 0 1.754-2.671c.423-1.038.633-2.217.64-3.545-.007-1.422-.217-2.637-.627-3.653-.41-1.009-.982-1.862-1.712-2.55a9.3 9.3 0 0 0-2.557-1.677 16.7 16.7 0 0 0-3.152-1.03 38 38 0 0 0-3.493-.598 28 28 0 0 1-2.447-.397 10.2 10.2 0 0 1-2.033-.661c-.587-.278-1.05-.633-1.392-1.073q-.502-.65-.511-1.62c0-.746.21-1.421.648-2.011q.644-.897 1.964-1.42 1.318-.523 3.321-.534a9.1 9.1 0 0 1 2.926.484q1.36.466 2.36 1.222 1.006.756 1.508 1.62z" style="fill:#0b3c72;fill-rule:evenodd"></path><path d="M274.254 616.114a4.9 4.9 0 0 0-1.087-1.489 5.2 5.2 0 0 0-1.445-.943 7 7 0 0 0-1.674-.498 10 10 0 0 0-1.771-.144 8.7 8.7 0 0 0-1.688.174 7.2 7.2 0 0 0-1.597.508c-.5.225-.95.516-1.341.874a3.9 3.9 0 0 0-.92 1.264q-.337.735-.344 1.692c.004.688.112 1.285.323 1.783q.318.747.886 1.257.567.51 1.323.833.75.326 1.63.516.875.189 1.815.298.76.084 1.402.243.642.167 1.115.432c.32.177.562.398.739.663q.26.393.265.94-.005.63-.293 1.073-.286.441-.78.718t-1.119.406a6.5 6.5 0 0 1-1.307.125q-.697 0-1.355-.144a4.7 4.7 0 0 1-1.228-.446 3.9 3.9 0 0 1-1.007-.762 3.5 3.5 0 0 1-.692-1.103l-2.39 1.261c.38.94.89 1.684 1.528 2.244q.96.836 2.253 1.202 1.287.364 2.847.358 1.02 0 1.967-.182a7.3 7.3 0 0 0 1.746-.56 5.2 5.2 0 0 0 1.406-.965 4.1 4.1 0 0 0 .93-1.385q.337-.807.34-1.84-.005-1.104-.332-1.895a3.7 3.7 0 0 0-.91-1.322 4.9 4.9 0 0 0-1.358-.87 9 9 0 0 0-1.673-.535 21 21 0 0 0-1.855-.31c-.46-.055-.895-.121-1.3-.206a5.5 5.5 0 0 1-1.08-.342 2 2 0 0 1-.739-.557q-.266-.337-.272-.84c0-.387.113-.738.345-1.043q.341-.466 1.043-.737.7-.271 1.764-.277a5 5 0 0 1 1.554.25q.721.243 1.253.635.534.393.8.84zM281.556 629.05V613.55h-2.848v15.501zM296.422 623.16l-7.455-9.611h-2.325v15.501h2.87v-10.452l7.997 10.452h1.782V613.55h-2.869zM309.44 613.549h-5.976v15.501h5.976c1.066-.007 2.01-.154 2.844-.442a6.9 6.9 0 0 0 2.155-1.201 6.9 6.9 0 0 0 1.493-1.77c.39-.67.677-1.382.86-2.145a9.2 9.2 0 0 0 .255-2.325 9.2 9.2 0 0 0-.315-2.267 7.9 7.9 0 0 0-.887-2.071 6.7 6.7 0 0 0-1.493-1.702 6.7 6.7 0 0 0-2.123-1.155c-.819-.275-1.746-.42-2.79-.423m-3.13 2.764h3.13q.99.005 1.757.27a4.143 4.143 0 0 1 2.249 1.817c.247.408.428.847.551 1.315q.186.7.203 1.43a6.3 6.3 0 0 1-.138 1.5c-.104.49-.278.954-.514 1.385a4.2 4.2 0 0 1-.92 1.147c-.377.328-.83.59-1.358.777q-.793.282-1.83.288h-3.13zM332.348 616.114a4.9 4.9 0 0 0-1.087-1.489 5.1 5.1 0 0 0-1.445-.943 7 7 0 0 0-1.673-.498 10 10 0 0 0-1.772-.144 8.7 8.7 0 0 0-1.688.174 7.2 7.2 0 0 0-1.597.508c-.5.225-.95.516-1.341.874a3.9 3.9 0 0 0-.92 1.264q-.337.735-.343 1.692c.004.688.112 1.285.322 1.783q.318.747.887 1.257.567.51 1.322.833.75.326 1.63.516a19 19 0 0 0 1.815.298q.761.084 1.402.243.641.167 1.116.432c.318.177.561.398.739.663q.26.393.264.94-.005.63-.293 1.073-.286.441-.78.718-.493.277-1.119.406a6.5 6.5 0 0 1-1.307.125q-.697 0-1.355-.144a4.8 4.8 0 0 1-1.228-.446 3.9 3.9 0 0 1-1.007-.762 3.5 3.5 0 0 1-.692-1.103l-2.391 1.261c.381.94.891 1.684 1.53 2.244q.96.836 2.252 1.202 1.288.364 2.848.358 1.02 0 1.966-.182a7.3 7.3 0 0 0 1.746-.56 5.2 5.2 0 0 0 1.406-.965 4.1 4.1 0 0 0 .93-1.385q.337-.807.341-1.84-.007-1.104-.333-1.895a3.7 3.7 0 0 0-.91-1.322 4.9 4.9 0 0 0-1.358-.87 9 9 0 0 0-1.673-.535 21 21 0 0 0-1.855-.31 15 15 0 0 1-1.3-.206 5.5 5.5 0 0 1-1.08-.342 2 2 0 0 1-.74-.557q-.264-.337-.27-.84c0-.387.112-.738.344-1.043q.342-.466 1.044-.737.698-.271 1.763-.277a5 5 0 0 1 1.554.25q.722.243 1.253.635.534.393.801.84zM254.665 660.497h11.808v-4.137h-3.439v-21.757h-8.51v4.433h3.864v17.324h-3.723zM289.097 652.334a3.8 3.8 0 0 1-.485 1.87 4.3 4.3 0 0 1-1.282 1.374 6 6 0 0 1-1.809.843 7.2 7.2 0 0 1-2.062.271 9.4 9.4 0 0 1-1.992-.215 7 7 0 0 1-1.79-.64q-.809-.433-1.29-1.078a2.47 2.47 0 0 1-.495-1.502h-4.682q.008 1.626.556 2.881a6.4 6.4 0 0 0 1.525 2.155 8.3 8.3 0 0 0 2.275 1.483c.87.382 1.81.671 2.82.85 1.01.185 2.062.278 3.144.278a14 14 0 0 0 3.026-.327 11.7 11.7 0 0 0 2.777-.99 8.9 8.9 0 0 0 2.288-1.676 7.4 7.4 0 0 0 1.548-2.376c.378-.905.567-1.94.573-3.09v-9.642c-.006-1.157-.201-2.204-.59-3.127a7.5 7.5 0 0 0-1.597-2.42 9 9 0 0 0-2.334-1.723c-.875-.462-1.815-.8-2.807-1.029a13.2 13.2 0 0 0-3.026-.345q-1.51-.002-2.99.34a11.7 11.7 0 0 0-2.79 1.027 9.2 9.2 0 0 0-2.323 1.712 7.5 7.5 0 0 0-1.59 2.4c-.384.918-.585 1.946-.59 3.091q.008 1.921.585 3.362.574 1.439 1.583 2.444a8 8 0 0 0 2.31 1.619c.876.413 1.798.714 2.784.905.981.185 1.98.277 2.985.277q.744-.001 1.566-.179a8.8 8.8 0 0 0 1.626-.523 7 7 0 0 0 1.465-.856 4.5 4.5 0 0 0 1.088-1.175v3.878zm-5.709-13.815q1.153 0 2.175.258 1.02.257 1.808.782c.526.344.946.782 1.248 1.311.306.53.466 1.145.478 1.86q.009 1.082-.444 1.895a3.96 3.96 0 0 1-1.247 1.361c-.526.37-1.14.64-1.831.825a8.6 8.6 0 0 1-2.223.277 8 8 0 0 1-2.193-.283 5.5 5.5 0 0 1-1.778-.83 3.8 3.8 0 0 1-1.194-1.368c-.29-.542-.431-1.163-.438-1.878.006-.714.16-1.33.468-1.859q.459-.795 1.246-1.311c.526-.35 1.13-.61 1.803-.782a8.5 8.5 0 0 1 2.122-.258M300.586 660.497h11.808v-4.137h-3.44v-21.757h-8.51v4.433h3.865v17.324h-3.723zM329.415 649.083q1.178.002 2.223.215a6.6 6.6 0 0 1 1.844.678c.532.3.957.683 1.264 1.151.307.462.474 1.016.485 1.65a3 3 0 0 1-.36 1.465c-.248.461-.615.874-1.111 1.237q-.737.544-1.827.856c-.727.21-1.566.314-2.518.32-.95-.006-1.785-.11-2.511-.326-.727-.209-1.342-.499-1.832-.862q-.737-.552-1.111-1.244a2.9 2.9 0 0 1-.361-1.446c.018-.634.19-1.188.514-1.65.325-.468.769-.85 1.318-1.151a6.8 6.8 0 0 1 1.856-.678 10.5 10.5 0 0 1 2.127-.215m-10.708 3.62q-.019 1.809.55 3.195a7 7 0 0 0 1.607 2.364 8.7 8.7 0 0 0 2.4 1.6c.91.42 1.884.721 2.924.918 1.04.203 2.104.302 3.192.308a17 17 0 0 0 3.25-.283 12.4 12.4 0 0 0 2.956-.918 8.7 8.7 0 0 0 2.393-1.618 6.8 6.8 0 0 0 1.601-2.377c.379-.923.557-1.988.544-3.19a6.3 6.3 0 0 0-.242-1.593 7 7 0 0 0-.691-1.632 6.4 6.4 0 0 0-1.164-1.465 5.5 5.5 0 0 0-1.661-1.072c.745-.332 1.347-.763 1.82-1.299a5.4 5.4 0 0 0 1.04-1.735 5.4 5.4 0 0 0 .33-1.841q-.01-1.552-.542-2.808a6.9 6.9 0 0 0-1.496-2.198 8.8 8.8 0 0 0-2.24-1.582 12 12 0 0 0-2.783-.96 14.8 14.8 0 0 0-3.115-.32c-1.081 0-2.122.104-3.109.32-.992.209-1.903.53-2.742.948a8.3 8.3 0 0 0-2.18 1.582 6.8 6.8 0 0 0-1.449 2.198c-.343.837-.514 1.78-.52 2.82q0 1.004.337 1.945a5.5 5.5 0 0 0 1.029 1.748q.69.804 1.755 1.404a6.06 6.06 0 0 0-2.843 2.425 6.6 6.6 0 0 0-.703 1.558 6 6 0 0 0-.248 1.558m5.46-10.786q-.028-.673.29-1.318c.213-.43.538-.825.975-1.176.437-.35.981-.634 1.643-.843.656-.21 1.43-.314 2.305-.32 1.058.006 1.992.16 2.79.462q1.197.46 1.855 1.28.664.814.639 1.915a3.1 3.1 0 0 1-.444 1.514c-.277.45-.656.825-1.128 1.14a5.6 5.6 0 0 1-1.655.72 8.1 8.1 0 0 1-2.022.245 7.8 7.8 0 0 1-1.962-.246 5.9 5.9 0 0 1-1.66-.72 3.74 3.74 0 0 1-1.158-1.139 2.93 2.93 0 0 1-.468-1.514M297.318 137.48l6.242 19.336 20.317-.04-16.46 11.911L313.733 188l-16.415-11.974-16.414 11.974 6.315-19.312-16.46-11.91 20.318.039z" style="fill:#ecbe00;fill-rule:evenodd" data-source="https://football-logos.cc"></path><!-- source: https://football-logos.cc --></svg>